<svg width="266" height="129" viewBox="0 0 266 129" fill="none" xmlns="http://www.w3.org/2000/svg">
<path d="M53.2846 33.9474H2.11447C0.946679 33.9474 0 32.9974 0 31.8257V2.12171C0 0.949923 0.946679 0 2.11447 0H53.2846C54.4524 0 55.399 0.949923 55.399 2.12171V31.8257C55.399 32.9974 54.4524 33.9474 53.2846 33.9474Z" fill="white"/>
<path d="M21.9137 14.2685H19.4895C19.3237 14.2683 19.1824 14.3909 19.1566 14.5573L18.1762 20.8702C18.1671 20.9294 18.184 20.9899 18.2225 21.0355C18.2413 21.058 18.2649 21.076 18.2914 21.0884C18.318 21.1008 18.3469 21.1072 18.3762 21.1072H19.5334C19.6142 21.1068 19.6921 21.0774 19.7531 21.0244C19.8141 20.9714 19.8543 20.8983 19.8663 20.8182L20.1308 19.1156C20.1428 19.0355 20.1829 18.9625 20.2438 18.9095C20.3047 18.8565 20.3825 18.8271 20.4632 18.8266H21.2305C22.8274 18.8266 23.7489 18.0418 23.9897 16.4868C24.0982 15.8063 23.9943 15.2719 23.6806 14.8974C23.3361 14.4862 22.7252 14.2685 21.9137 14.2685ZM22.1934 16.5742C22.0609 17.4574 21.3963 17.4574 20.7537 17.4574H20.3879L20.6446 15.8076C20.6519 15.7596 20.676 15.7158 20.7126 15.684C20.7491 15.6523 20.7958 15.6347 20.8442 15.6345H21.0119C21.4496 15.6345 21.8625 15.6345 22.0759 15.8878C22.2032 16.0391 22.2419 16.2638 22.1934 16.5742ZM29.16 16.5457H27.9991C27.9508 16.546 27.9041 16.5636 27.8675 16.5953C27.8309 16.6271 27.8068 16.6709 27.7995 16.7189L27.7482 17.0486L27.667 16.9291C27.4155 16.5587 26.8552 16.435 26.2959 16.435C25.0131 16.435 23.9176 17.4216 23.7042 18.8058C23.5932 19.4962 23.751 20.1565 24.1366 20.6169C24.4904 21.0402 24.9966 21.2167 25.5988 21.2167C26.6323 21.2167 27.2056 20.5418 27.2056 20.5418L27.1538 20.8694C27.1445 20.9286 27.1612 20.989 27.1994 21.0349C27.2183 21.0574 27.2417 21.0755 27.2682 21.088C27.2948 21.1004 27.3237 21.1069 27.353 21.107H28.3986C28.4793 21.1066 28.5572 21.0772 28.6182 21.0242C28.6792 20.9712 28.7194 20.8981 28.7314 20.818L29.3587 16.7832C29.3634 16.754 29.3617 16.7241 29.3538 16.6956C29.346 16.6671 29.3321 16.6407 29.3131 16.6181C29.2748 16.5725 29.219 16.5455 29.16 16.5457ZM27.542 18.8402C27.4299 19.5136 26.9036 19.9657 26.2323 19.9657C25.8952 19.9657 25.6259 19.856 25.4529 19.6479C25.2814 19.4412 25.2161 19.1472 25.2706 18.8196C25.3753 18.1519 25.9105 17.6849 26.5715 17.6849C26.9011 17.6849 27.169 17.7961 27.3456 18.0059C27.5223 18.2179 27.5925 18.514 27.542 18.8402ZM35.3425 16.5457H34.1759C34.0643 16.5459 33.9598 16.6022 33.897 16.6957L32.2879 19.1026L31.606 16.7897C31.5855 16.7195 31.543 16.6579 31.4847 16.6139C31.4264 16.5699 31.3556 16.546 31.2827 16.5457H30.1364C30.1042 16.5457 30.0723 16.5534 30.0437 16.5683C30.015 16.5832 29.9903 16.6048 29.9717 16.6312C29.9337 16.6851 29.9235 16.7543 29.9447 16.8171L31.2296 20.6466L30.0216 22.3783C29.9779 22.4409 29.9722 22.523 30.0068 22.5913C30.0415 22.6597 30.1109 22.7023 30.1863 22.7023H31.3514C31.4618 22.7025 31.5654 22.6476 31.6282 22.5555L35.508 16.8678C35.551 16.805 35.556 16.7233 35.5211 16.6556C35.4863 16.588 35.4175 16.5457 35.3425 16.5457Z" fill="#253B80"/>
<path d="M39.471 14.2689H36.9254C36.7513 14.2689 36.6033 14.388 36.5763 14.5492L35.5469 20.6793C35.5372 20.7367 35.5548 20.7953 35.5952 20.8394C35.6157 20.8617 35.6407 20.8793 35.6684 20.8913C35.6961 20.9034 35.7261 20.9095 35.7563 20.9092H37.0626C37.1844 20.909 37.2878 20.8259 37.3068 20.7128L37.599 18.9751C37.6259 18.8136 37.7741 18.6946 37.9481 18.6944H38.7535C40.4305 18.6944 41.3979 17.9323 41.651 16.4223C41.7652 15.7616 41.6554 15.2426 41.326 14.8789C40.9646 14.4798 40.3229 14.2689 39.471 14.2689ZM39.7647 16.5078C39.6258 17.3656 38.928 17.3656 38.2528 17.3656H37.8691L38.1389 15.7637C38.1549 15.6669 38.2437 15.5954 38.348 15.5956H38.5241C38.9834 15.5956 39.4173 15.5956 39.6414 15.8418C39.775 15.9886 39.8156 16.2065 39.7647 16.5078ZM47.079 16.4802H45.8609C45.7564 16.48 45.6676 16.5515 45.6518 16.6482L45.5979 16.9684L45.5122 16.8523C45.2483 16.4927 44.6603 16.3724 44.0731 16.3724C42.7262 16.3724 41.5761 17.3306 41.3522 18.6744C41.2361 19.3449 41.4011 19.9859 41.806 20.4331C42.1781 20.8441 42.7089 21.0155 43.3413 21.0155C44.4267 21.0155 45.0284 20.3601 45.0284 20.3601L44.9741 20.6782C44.9644 20.7359 44.9819 20.7947 45.0223 20.839C45.0627 20.8834 45.1219 20.909 45.1841 20.9088H46.2817C46.4557 20.9088 46.6039 20.7896 46.6308 20.6281L47.2898 16.71C47.2944 16.6813 47.2924 16.6519 47.2839 16.6241C47.2755 16.5963 47.2608 16.5708 47.241 16.5496C47.2006 16.5054 47.1412 16.4802 47.079 16.4802ZM45.3801 18.7082C45.2631 19.3621 44.7098 19.8013 44.0048 19.8013C43.6517 19.8013 43.3679 19.6948 43.1863 19.4926C43.0062 19.2919 42.9385 19.0063 42.9949 18.6882C43.1055 18.0398 43.6667 17.5864 44.3609 17.5864C44.707 17.5864 44.9885 17.6944 45.1737 17.8983C45.3602 18.1041 45.434 18.3916 45.3801 18.7082ZM48.516 14.437L47.4713 20.6793C47.4615 20.7367 47.4791 20.7953 47.5195 20.8394C47.54 20.8617 47.565 20.8793 47.5927 20.8913C47.6205 20.9034 47.6504 20.9095 47.6806 20.9092H48.7309C48.9053 20.9092 49.0535 20.7904 49.0804 20.6285L50.1105 14.4987C50.1203 14.4412 50.1027 14.3827 50.0623 14.3383C50.0219 14.294 49.9634 14.2685 49.9012 14.2683H48.7252C48.6209 14.2687 48.5323 14.3402 48.516 14.437Z" fill="#179BD7"/>
<path d="M8.06669 22.1401L8.25382 20.9449L7.83706 20.9351H5.8465L7.22979 12.1158C7.23825 12.06 7.28603 12.0191 7.34206 12.0195H10.6984C11.8127 12.0195 12.5815 12.2527 12.983 12.7129C13.1712 12.9286 13.2911 13.1544 13.3491 13.4026C13.41 13.6632 13.411 13.9742 13.3516 14.3538L13.3474 14.3816V14.6247L13.5356 14.7319C13.6793 14.8051 13.8083 14.9042 13.9166 15.024C14.0777 15.2086 14.1817 15.4431 14.2257 15.7212C14.2712 16.0072 14.2562 16.3476 14.1817 16.7329C14.0959 17.1761 13.957 17.5622 13.7696 17.878C13.6043 18.161 13.3818 18.4061 13.1167 18.5974C12.8676 18.7752 12.5718 18.9102 12.2373 18.9965C11.9131 19.0814 11.5435 19.1243 11.138 19.1243H10.8768C10.6897 19.1246 10.5088 19.1915 10.3662 19.3131C10.2239 19.4357 10.1296 19.605 10.1 19.7909L10.0803 19.8985L9.7496 22.0049L9.73458 22.0823C9.73057 22.1067 9.7238 22.119 9.71386 22.1273C9.70392 22.1356 9.69208 22.1398 9.67961 22.1398L8.06669 22.1401Z" fill="#253B80"/>
<path d="M13.3746 14.2685L13.3414 14.4607C12.9124 16.6817 11.4446 17.4489 9.57008 17.4489H8.61561C8.3864 17.4489 8.19314 17.6168 8.1574 17.8449L7.53046 21.8555C7.51926 21.9266 7.53956 21.9992 7.58586 22.0539C7.6087 22.081 7.63713 22.1027 7.66919 22.1176C7.70126 22.1325 7.73617 22.1403 7.77151 22.1403H9.46436C9.56153 22.1401 9.65544 22.1051 9.7292 22.0416C9.80297 21.9781 9.85173 21.8903 9.86674 21.794L9.88344 21.7072L10.2021 19.6678L10.2226 19.556C10.2375 19.4596 10.2862 19.3716 10.36 19.308C10.4337 19.2444 10.5277 19.2093 10.625 19.2091H10.8781C12.5181 19.2091 13.802 18.5378 14.1773 16.5947C14.334 15.7832 14.253 15.1055 13.8381 14.6288C13.7068 14.4814 13.5496 14.3593 13.3746 14.2685Z" fill="#179BD7"/>
<path d="M13.2091 13.8849C13.0623 13.839 12.9126 13.8032 12.761 13.7775C12.462 13.7279 12.1599 13.7041 11.8573 13.7065H9.11885C8.9036 13.7063 8.72027 13.8756 8.68708 14.1053L8.10454 18.0882L8.08784 18.2045C8.12526 17.9425 8.33438 17.7492 8.57987 17.7494H9.60497C11.6184 17.7494 13.1947 16.8667 13.6554 14.3137C13.6692 14.2382 13.6808 14.1645 13.6912 14.0926C13.5696 14.0239 13.4429 13.9662 13.3123 13.9201C13.278 13.9078 13.2435 13.8959 13.2091 13.8849Z" fill="#222D65"/>
<path d="M8.77145 14.2C8.80337 13.9963 8.98205 13.8463 9.19159 13.8469H11.8569C12.1726 13.8469 12.4673 13.8673 12.7363 13.9099C12.9183 13.9382 13.0979 13.9802 13.2731 14.0358C13.4 14.0765 13.5233 14.1276 13.6419 14.1885C13.7753 13.3523 13.6409 12.7831 13.1807 12.2675C12.6739 11.7002 11.7586 11.4572 10.5871 11.4572H7.18644C6.94708 11.4572 6.74304 11.6282 6.70603 11.8608L5.28955 20.6835C5.27623 20.7665 5.30034 20.8509 5.35595 20.9148C5.41156 20.9786 5.49254 21.0155 5.57796 21.0155H7.67742L8.77145 14.2Z" fill="#253B80"/>
<path d="M123.485 0H72.3148C71.147 0 70.2003 0.949922 70.2003 2.12171V31.8257C70.2003 32.9974 71.147 33.9474 72.3148 33.9474H123.485C124.653 33.9474 125.599 32.9974 125.599 31.8257V2.12171C125.599 0.949922 124.653 0 123.485 0Z" fill="white"/>
<path d="M101.581 11.4594C99.1558 11.4594 96.9885 12.7218 96.9885 15.0514C96.9885 17.7248 100.833 17.9094 100.833 19.2524C100.833 19.8189 100.188 20.3239 99.0839 20.3239C97.5192 20.3239 96.3478 19.6173 96.3478 19.6173L95.8467 21.9703C95.8467 21.9703 97.1936 22.5686 98.9846 22.5686C101.636 22.5686 103.723 21.2447 103.723 18.8747C103.723 16.0507 99.8621 15.8704 99.8621 14.625C99.8621 14.1815 100.393 13.6956 101.492 13.6956C102.734 13.6956 103.746 14.2091 103.746 14.2091L104.237 11.9367C104.237 11.9367 103.135 11.4594 101.581 11.4594ZM79.3856 11.6312L79.3264 11.9749C79.3264 11.9749 80.3476 12.1616 81.2653 12.5372C82.4494 12.9658 82.534 13.2161 82.7328 13.9906L84.9043 22.3925H87.8159L92.3007 11.6333H89.3954L86.5134 18.949L85.3378 12.7472C85.2299 12.0386 84.6844 11.6333 84.0141 11.6333H79.3834L79.3856 11.6312ZM93.4721 11.6312L91.1927 22.3904H93.9627L96.2336 11.6312H93.4721ZM108.92 11.6312C108.252 11.6312 107.899 11.9898 107.639 12.6178L103.581 22.3904H106.487L107.049 20.7609H110.589L110.931 22.3904H113.494L111.257 11.6312H108.92ZM109.299 14.538L110.16 18.5756H107.853L109.299 14.538Z" fill="#1434CB"/>
<path d="M193.685 0H142.515C141.347 0 140.401 0.949922 140.401 2.12171V31.8257C140.401 32.9974 141.347 33.9474 142.515 33.9474H193.685C194.853 33.9474 195.8 32.9974 195.8 31.8257V2.12171C195.8 0.949922 194.853 0 193.685 0Z" fill="white"/>
<path d="M158.902 27.864V26.4079C158.92 26.1601 158.828 25.9169 158.651 25.7404C158.474 25.5639 158.228 25.4709 157.977 25.4856C157.645 25.4641 157.328 25.6222 157.149 25.8982C156.986 25.6305 156.688 25.4722 156.371 25.4856C156.237 25.4785 156.102 25.5065 155.982 25.5668C155.861 25.6272 155.758 25.7179 155.682 25.8301V25.5437H155.17V27.864H155.687V26.5874C155.665 26.4268 155.717 26.2647 155.828 26.1454C155.883 26.0863 155.951 26.0401 156.026 26.01C156.102 25.9799 156.182 25.9666 156.263 25.971C156.603 25.971 156.775 26.1893 156.775 26.5827V27.8738H157.292V26.5874C157.271 26.427 157.323 26.2653 157.434 26.1463C157.545 26.0272 157.704 25.9629 157.868 25.9708C158.218 25.9708 158.385 26.1891 158.385 26.5825V27.8735L158.902 27.864ZM166.551 25.5437H165.709V24.8399H165.192V25.5437H164.724V26.0047H165.202V27.0726C165.202 27.6113 165.414 27.9317 166.019 27.9317C166.245 27.9325 166.467 27.8702 166.659 27.752L166.511 27.32C166.374 27.4009 166.218 27.446 166.058 27.4511C165.812 27.4511 165.719 27.2958 165.719 27.0628V26.0047H166.556L166.551 25.5437ZM170.918 25.4853C170.663 25.4779 170.426 25.6084 170.298 25.825V25.5435H169.79V27.8638H170.303V26.563C170.303 26.1796 170.47 25.9659 170.795 25.9659C170.904 25.9645 171.013 25.9843 171.115 26.0243L171.272 25.5388C171.155 25.4977 171.032 25.4762 170.908 25.4758L170.918 25.4853ZM164.315 25.7281C164.025 25.5579 163.692 25.4738 163.355 25.4853C162.76 25.4853 162.371 25.7669 162.371 26.2279C162.371 26.6065 162.656 26.8396 163.183 26.9124L163.429 26.9464C163.71 26.9852 163.843 27.058 163.843 27.1891C163.843 27.3686 163.656 27.4706 163.306 27.4706C163.026 27.4788 162.75 27.3935 162.523 27.2279L162.277 27.6211C162.576 27.8264 162.933 27.9319 163.296 27.9219C163.976 27.9219 164.37 27.6064 164.37 27.1647C164.37 26.7229 164.06 26.5434 163.548 26.4705L163.301 26.4365C163.08 26.4074 162.903 26.3637 162.903 26.2084C162.903 26.0531 163.07 25.9366 163.351 25.9366C163.61 25.9395 163.864 26.0079 164.089 26.1357L164.315 25.7281ZM178.03 25.4853C177.775 25.4779 177.537 25.6084 177.409 25.825V25.5435H176.902V27.8638H177.414V26.563C177.414 26.1796 177.582 25.9659 177.907 25.9659C178.016 25.9645 178.125 25.9843 178.227 26.0243L178.384 25.5388C178.267 25.4977 178.144 25.4762 178.02 25.4758L178.03 25.4853ZM171.432 26.6988C171.42 27.0285 171.549 27.348 171.788 27.5791C171.907 27.6936 172.049 27.7824 172.203 27.8397C172.358 27.8971 172.523 27.9218 172.688 27.9124C172.995 27.928 173.296 27.8295 173.535 27.6357L173.289 27.2279C173.112 27.3609 172.896 27.4341 172.673 27.4367C172.281 27.4053 171.978 27.0822 171.978 26.6941C171.978 26.306 172.281 25.9827 172.673 25.9515C172.896 25.954 173.111 26.0272 173.289 26.1603L173.535 25.7525C173.296 25.5587 172.995 25.4601 172.688 25.4758C172.523 25.4664 172.358 25.4911 172.203 25.5484C172.049 25.6058 171.907 25.6945 171.788 25.8091C171.549 26.0402 171.42 26.3597 171.432 26.6894V26.6988ZM176.228 25.5435H175.716V25.825C175.539 25.6012 175.264 25.4747 174.977 25.4853C174.297 25.4853 173.746 26.0287 173.746 26.6988C173.746 27.3688 174.297 27.9122 174.977 27.9122C175.264 27.9226 175.539 27.7961 175.716 27.5725V27.854H176.228V25.5435ZM174.322 26.6988C174.345 26.3179 174.673 26.0249 175.059 26.0391C175.446 26.0533 175.75 26.3699 175.744 26.7514C175.738 27.1329 175.423 27.4394 175.036 27.4414C174.939 27.4428 174.843 27.4242 174.753 27.3868C174.663 27.3495 174.582 27.2941 174.514 27.2241C174.448 27.1549 174.396 27.0724 174.363 26.9819C174.33 26.8914 174.316 26.7949 174.322 26.6988ZM168.144 25.4853C167.464 25.4947 166.92 26.0457 166.93 26.7157C166.939 27.3858 167.498 27.9217 168.178 27.9122C168.532 27.93 168.88 27.8177 169.155 27.5967L168.909 27.2228C168.715 27.3764 168.474 27.4619 168.225 27.4655C167.873 27.4955 167.561 27.2436 167.521 26.8976H169.268V26.7034C169.268 25.9753 168.811 25.49 168.151 25.49L168.144 25.4853ZM168.144 25.9369C168.298 25.9337 168.448 25.9912 168.56 26.0966C168.615 26.1485 168.659 26.2108 168.69 26.2801C168.721 26.3493 168.737 26.424 168.739 26.4997H167.508C167.527 26.1758 167.805 25.9256 168.134 25.9366L168.144 25.9369ZM180.972 24.6118H180.479V25.8252C180.303 25.6014 180.028 25.475 179.741 25.4856C179.061 25.4856 178.51 26.0289 178.51 26.699C178.51 27.369 179.061 27.9124 179.741 27.9124C180.028 27.9228 180.303 27.7963 180.479 27.5727V27.8542H180.972V24.6118ZM181.826 27.5267C181.858 27.5262 181.89 27.5319 181.919 27.5436C181.948 27.5551 181.973 27.5714 181.996 27.5922C182.018 27.613 182.035 27.6378 182.047 27.665C182.072 27.7223 182.072 27.7872 182.047 27.8445C182.035 27.8716 182.017 27.8965 181.996 27.9173C181.974 27.938 181.948 27.9544 181.919 27.9658C181.89 27.9787 181.858 27.9853 181.826 27.9854C181.731 27.9847 181.644 27.9298 181.604 27.8447C181.592 27.8164 181.586 27.7858 181.586 27.7549C181.586 27.7241 181.592 27.6935 181.604 27.6652C181.617 27.638 181.634 27.6132 181.656 27.5924C181.677 27.5716 181.704 27.5553 181.732 27.5438C181.764 27.5313 181.799 27.5254 181.833 27.5269L181.826 27.5267ZM181.826 27.9368C181.85 27.9369 181.875 27.9319 181.897 27.9221C181.918 27.9128 181.938 27.8996 181.954 27.8833C182.018 27.8146 182.018 27.7093 181.954 27.6406C181.938 27.6241 181.918 27.611 181.897 27.6018C181.875 27.592 181.85 27.587 181.826 27.5871C181.801 27.5873 181.777 27.5922 181.754 27.6018C181.732 27.6107 181.712 27.6239 181.695 27.6406C181.631 27.7093 181.631 27.8146 181.695 27.8833C181.712 27.8999 181.732 27.9132 181.754 27.9221C181.779 27.9327 181.806 27.9376 181.833 27.9368H181.826ZM181.841 27.648C181.864 27.6469 181.886 27.6538 181.905 27.6675C181.92 27.68 181.928 27.6989 181.927 27.7185C181.927 27.7348 181.921 27.7507 181.91 27.7622C181.895 27.775 181.877 27.7827 181.858 27.784L181.93 27.864H181.873L181.807 27.784H181.784V27.864H181.738V27.6503L181.841 27.648ZM181.786 27.6892V27.7475H181.841C181.85 27.7503 181.86 27.7503 181.87 27.7475C181.874 27.7407 181.874 27.7325 181.87 27.7257C181.874 27.7189 181.874 27.7106 181.87 27.7038C181.86 27.7011 181.85 27.7011 181.841 27.7038L181.786 27.6892ZM179.078 26.7038C179.101 26.323 179.429 26.03 179.815 26.0442C180.202 26.0584 180.506 26.375 180.5 26.7565C180.494 27.138 180.179 27.4445 179.792 27.4464C179.695 27.4478 179.599 27.4293 179.509 27.3919C179.419 27.3546 179.338 27.2992 179.27 27.2292C179.204 27.16 179.152 27.0774 179.119 26.987C179.086 26.8965 179.072 26.8 179.078 26.7038ZM161.79 25.5437H161.278V25.8252C161.101 25.6014 160.826 25.475 160.539 25.4856C159.859 25.4856 159.308 26.0289 159.308 26.699C159.308 27.369 159.859 27.9124 160.539 27.9124C160.826 27.9228 161.101 27.7963 161.278 27.5727V27.8542H161.79V25.5437ZM159.884 26.7038C159.907 26.323 160.235 26.03 160.621 26.0442C161.008 26.0584 161.312 26.375 161.306 26.7565C161.3 27.138 160.985 27.4445 160.598 27.4464C160.501 27.4485 160.404 27.4304 160.313 27.3933C160.223 27.3563 160.141 27.301 160.073 27.2309C160.006 27.1616 159.954 27.0789 159.92 26.9881C159.887 26.8973 159.873 26.8004 159.879 26.7038H159.884Z" fill="#231F20"/>
<path d="M164.467 7.99227H172.161V21.9449H164.467V7.99227Z" fill="#FF5F00"/>
<path d="M164.955 14.9697C164.952 12.2467 166.191 9.67351 168.314 7.99227C164.708 5.13327 159.531 5.54976 156.42 8.94895C153.31 12.3481 153.31 17.589 156.42 20.9882C159.531 24.3874 164.708 24.8039 168.314 21.9449C166.191 20.264 164.953 17.6921 164.955 14.9697Z" fill="#EB001B"/>
<path d="M182.541 14.9697C182.541 18.3668 180.619 21.4658 177.591 22.9503C174.563 24.4349 170.96 24.0445 168.314 21.9449C170.435 20.2628 171.673 17.691 171.673 14.9687C171.673 12.2463 170.435 9.67436 168.314 7.99227C170.96 5.89263 174.563 5.50244 177.591 6.98701C180.619 8.47157 182.541 11.5705 182.541 14.9676V14.9697ZM181.701 20.6793V20.2167H181.816V20.121H181.525V20.2167H181.649V20.6793H181.701ZM182.265 20.6793V20.121H182.177L182.074 20.5197L181.972 20.121H181.894V20.6793H181.957V20.2606L182.052 20.6235H182.118L182.214 20.2606V20.6833L182.265 20.6793Z" fill="#F79E1B"/>
<path d="M263.886 33.9474H212.715C211.548 33.9474 210.601 32.9974 210.601 31.8257V2.12171C210.601 0.949923 211.548 0 212.715 0H263.886C265.053 0 266 0.949923 266 2.12171V31.8257C266 32.9974 265.053 33.9474 263.886 33.9474Z" fill="white"/>
<path d="M237.003 18.0984V23.3388H235.34V10.3972H239.75C240.276 10.3861 240.799 10.4794 241.289 10.6717C241.778 10.8639 242.226 11.1515 242.605 11.5177C242.987 11.8609 243.291 12.2823 243.496 12.7535C243.702 13.2246 243.805 13.7346 243.797 14.249C243.808 14.7661 243.707 15.2794 243.501 15.7536C243.295 16.2278 242.989 16.6516 242.605 16.9957C241.834 17.7309 240.882 18.0982 239.75 18.0976L237.003 18.0984ZM237.003 16.5082H239.791C240.096 16.5173 240.4 16.4625 240.683 16.3473C240.967 16.2321 241.223 16.059 241.436 15.839C241.647 15.6337 241.815 15.3879 241.929 15.1162C242.044 14.8446 242.103 14.5526 242.103 14.2576C242.103 13.9626 242.044 13.6706 241.929 13.3989C241.815 13.1273 241.647 12.8815 241.436 12.6762C241.225 12.4515 240.97 12.2742 240.687 12.1558C240.403 12.0375 240.098 11.9808 239.791 11.9896H237.003V16.5082ZM247.656 14.0033C248.882 14.0033 249.849 14.3358 250.558 15.0005C251.268 15.6652 251.622 16.5767 251.621 17.7347V23.2584H250.035V22.0147H249.963C249.276 23.039 248.363 23.551 247.223 23.551C246.25 23.551 245.436 23.2584 244.781 22.673C244.144 22.129 243.783 21.3226 243.798 20.4781C243.798 19.5507 244.144 18.8132 244.835 18.2654C245.525 17.7176 246.448 17.4432 247.601 17.4417C248.586 17.4417 249.397 17.6246 250.034 17.9904V17.606C250.036 17.3224 249.976 17.0418 249.858 16.7843C249.739 16.5269 249.566 16.2988 249.349 16.1165C248.911 15.7151 248.339 15.4959 247.749 15.5029C246.822 15.5029 246.089 15.8995 245.549 16.6923L244.089 15.759C244.892 14.5885 246.081 14.0033 247.656 14.0033ZM245.51 20.5148C245.508 20.9493 245.713 21.3582 246.06 21.6122C246.426 21.9045 246.882 22.0597 247.349 22.0511C248.049 22.0499 248.72 21.7673 249.214 21.2653C249.764 20.7406 250.038 20.1251 250.038 19.4185C249.521 19.0006 248.8 18.7914 247.875 18.7914C247.202 18.7914 246.64 18.9562 246.19 19.2857C245.736 19.6201 245.51 20.0268 245.51 20.5148ZM260.714 14.4276L255.148 27.1579H253.427L255.493 22.7036L251.833 14.4276H253.645L256.29 20.7747H256.326L258.899 14.4276H260.714Z" fill="#5F6368"/>
<path d="M230.477 16.7925C230.478 16.2843 230.434 15.7773 230.348 15.2763H223.288V18.1481H227.331C227.248 18.6076 227.073 19.0454 226.816 19.4349C226.559 19.8244 226.225 20.1574 225.836 20.4138V22.278H228.25C229.663 20.9803 230.477 19.0614 230.477 16.7925Z" fill="#4285F4"/>
<path d="M223.41 23.9753C225.426 23.9753 227.124 23.3244 228.362 22.2018L225.953 20.365C225.283 20.8119 224.419 21.0671 223.41 21.0671C221.46 21.0671 219.806 19.7752 219.214 18.0345H216.733V19.9273C218.001 22.4089 220.585 23.9751 223.41 23.9753Z" fill="#34A853"/>
<path d="M219.27 18.0572C218.947 17.1508 218.947 16.1602 219.27 15.2538V13.3668H216.709C216.169 14.3785 215.887 15.5081 215.887 16.6554C215.887 17.8028 216.169 18.9324 216.709 19.9441L219.27 18.0572Z" fill="#FBBC04"/>
<path d="M223.383 12.244C224.444 12.2268 225.47 12.6227 226.238 13.346L228.362 11.2491C227.015 10.0003 225.231 9.31473 223.383 9.33595C220.569 9.33616 217.996 10.9022 216.733 13.3835L219.204 15.2763C219.794 13.5357 221.442 12.244 223.383 12.244Z" fill="#EA4335"/>
<path d="M53.2846 81.4737H2.11447C0.946679 81.4737 0 80.5238 0 79.352V49.648C0 48.4762 0.946679 47.5263 2.11447 47.5263H53.2846C54.4524 47.5263 55.399 48.4762 55.399 49.648V79.352C55.399 80.5238 54.4524 81.4737 53.2846 81.4737Z" fill="white"/>
<path d="M13.6497 57.7564C13.1268 58.3799 12.2901 58.8715 11.4536 58.8013C11.349 57.9583 11.7588 57.0626 12.2379 56.5092C12.7608 55.8682 13.676 55.4114 14.4167 55.3764C14.5038 56.2546 14.164 57.1154 13.6497 57.7564ZM14.408 58.9683C13.1966 58.8981 12.1595 59.6621 11.5843 59.6621C11.0005 59.6621 10.1203 59.0035 9.16156 59.0211C7.9153 59.0387 6.75615 59.7499 6.12011 60.8829C4.81295 63.1485 5.78032 66.5031 7.04393 68.3473C7.66262 69.2605 8.40353 70.2617 9.37957 70.2265C10.3034 70.1913 10.6694 69.6205 11.785 69.6205C12.9092 69.6205 13.2317 70.2265 14.2077 70.2089C15.2187 70.1913 15.8549 69.2957 16.4736 68.3823C17.1794 67.3461 17.4672 66.3361 17.4845 66.2835C17.4672 66.2659 15.5325 65.5195 15.5149 63.2715C15.4976 61.3923 17.0401 60.4965 17.1096 60.4439C16.2381 59.1442 14.8787 59.0033 14.408 58.9683ZM21.406 56.4216V70.1121H23.515V65.4316H26.4344C29.1012 65.4316 30.9748 63.5875 30.9748 60.9179C30.9748 58.2484 29.1359 56.4218 26.504 56.4218L21.406 56.4216ZM23.515 58.213H25.9464C27.7765 58.213 28.8223 59.1966 28.8223 60.9264C28.8223 62.6562 27.7765 63.6488 25.9377 63.6488H23.515V58.213ZM34.827 70.2174C36.1517 70.2174 37.3804 69.5412 37.9382 68.4699H37.9818V70.1121H39.9338V63.2976C39.9338 61.3217 38.3651 60.0484 35.951 60.0484C33.7114 60.0484 32.0555 61.3393 31.9944 63.1133H33.8943C34.0512 62.2703 34.8268 61.717 35.8899 61.717C37.1797 61.717 37.9031 62.3229 37.9031 63.4381V64.1932L35.2712 64.3513C32.8222 64.5006 31.4977 65.5104 31.4977 67.2667C31.4977 69.0407 32.8662 70.2174 34.827 70.2174ZM35.3934 68.5928C34.2692 68.5928 33.5545 68.0483 33.5545 67.2141C33.5545 66.3535 34.243 65.853 35.559 65.7739L37.9033 65.6245V66.3972C37.9033 67.6794 36.8226 68.5928 35.3934 68.5928ZM42.5397 73.8355C44.5964 73.8355 45.5638 73.0452 46.4092 70.6479L50.1129 60.1802H47.969L45.4854 68.2679H45.4418L42.9579 60.1802H40.753L44.326 70.1474L44.1342 70.7533C43.8118 71.7809 43.2889 72.1759 42.3564 72.1759C42.1908 72.1759 41.8684 72.1583 41.7377 72.1407V73.7829C41.8597 73.8181 42.3828 73.8355 42.5397 73.8355Z" fill="black"/>
<path d="M123.485 47.5263H72.3148C71.147 47.5263 70.2003 48.4762 70.2003 49.648V79.352C70.2003 80.5238 71.147 81.4737 72.3148 81.4737H123.485C124.653 81.4737 125.599 80.5238 125.599 79.352V49.648C125.599 48.4762 124.653 47.5263 123.485 47.5263Z" fill="white"/>
<path d="M77.9997 56.6497C76.6105 56.6497 75.4865 57.7784 75.4865 59.1722V69.8707C75.4865 71.2632 76.6105 72.3928 77.9997 72.3928H88.663C90.0511 72.3928 91.1756 71.2634 91.1756 69.8707V69.7612C91.1289 69.7417 87.0981 68.0547 85.0494 67.0662C83.6672 68.7729 81.8844 69.8085 80.0334 69.8085C76.9034 69.8085 75.8404 67.0598 77.3225 65.2502C77.6456 64.8558 78.1953 64.479 79.0485 64.2681C80.3832 63.939 82.5071 64.4735 84.4979 65.1327C84.8561 64.4707 85.1572 63.7417 85.3818 62.9656H79.2471V62.342H82.4105V61.2241H78.5791V60.6001H82.4105V59.0054C82.4105 59.0054 82.4105 58.7368 82.6818 58.7368H84.2283V60.6001H88.0162V61.2241H84.2281V62.342H87.3199C87.0241 63.5582 86.5748 64.6778 86.011 65.6606L88.4194 66.5351C90.5132 67.2383 91.1001 67.324 91.1758 67.3331V59.1722C91.1758 57.7786 90.0514 56.6497 88.6632 56.6497H77.9997ZM79.7203 65.1794C79.586 65.1809 79.4509 65.1883 79.3149 65.2017C78.9229 65.2411 78.1871 65.4147 77.7847 65.7718C76.5788 66.8271 77.3005 68.7561 79.7412 68.7561C81.16 68.7561 82.5776 67.8459 83.691 66.3885C82.2553 65.6856 81.019 65.1641 79.7203 65.1794Z" fill="#00A1E9"/>
<path d="M118.95 67.6802L118.227 69.2089L117.494 67.6802H116.778L117.893 69.7939V71.2683H118.55V69.7939L118.554 69.7856L119.665 67.6802H118.95ZM113.661 68.6051L114.17 70.0933H113.133L113.661 68.6051ZM114.327 70.5454L114.572 71.268H115.261L113.905 67.68H113.379L112.027 71.268H112.717L112.973 70.5454H114.327ZM109.188 69.3954H108.457V68.168H109.188C109.556 68.168 109.775 68.4814 109.775 68.7842C109.775 69.0806 109.57 69.3954 109.188 69.3954ZM109.225 67.68H107.795V71.2683H108.457V69.8887H109.225C109.939 69.8887 110.438 69.4345 110.438 68.7842C110.438 68.1339 109.939 67.68 109.225 67.68ZM104.447 71.2683H105.11V67.6802H104.447V71.2683ZM99.7897 67.6802V71.2683H102.019V70.7794H100.452V67.6802H99.7897ZM96.0177 68.6051L96.5267 70.0933H95.4902L96.0177 68.6051ZM96.6838 70.5454L96.9293 71.268H97.6173L96.2616 67.68H95.7357L94.3845 71.268H95.073L95.3293 70.5454H96.6838ZM101.345 60.6663H98.5048V59.6742H101.798V59.0563H98.5048V57.7992H97.0365C96.9982 57.7993 96.9602 57.807 96.9248 57.8218C96.8895 57.8366 96.8573 57.8582 96.8303 57.8855C96.8032 57.9128 96.7818 57.9451 96.7672 57.9807C96.7527 58.0163 96.7452 58.0544 96.7453 58.0929V59.0563H93.4747V59.6742H96.7453V60.6663H93.9849V61.2835H99.4832C99.4832 61.2835 99.1785 62.443 97.6702 63.6891C96.3191 62.6921 95.8674 61.8981 95.8674 61.8981H94.3923C94.9891 62.9062 95.837 63.7133 96.7502 64.3536C95.9114 64.8847 94.8235 65.3966 93.4172 65.8065V66.5462C93.4172 66.5462 95.587 66.1473 97.6842 64.9428C99.7847 66.138 101.894 66.5462 101.894 66.5462V65.846C100.544 65.3669 99.4747 64.8403 98.6346 64.3322C99.8513 63.4538 100.918 62.2614 101.345 60.6663ZM110.572 57.9231H109.093V59.4287H105.449V60.0351H109.093V65.4482C109.08 65.5721 108.98 65.6689 108.854 65.6754H108.103V66.3026H110.019C110.323 66.2905 110.565 66.0452 110.572 65.7412V60.0349H111.172V59.4285H110.572V57.9231ZM107.454 61.0565C107.399 60.9489 107.289 60.8748 107.161 60.8738H105.929L106.889 63.8194H108.346L107.454 61.0565ZM103.815 57.8518L102.119 61.7613H103.42V66.4131H104.843V60.2426H104.327L105.399 57.8518H103.815ZM120.313 66.1999L119.793 64.489C119.758 64.3797 119.657 64.3008 119.536 64.3008H118.159L118.558 65.615H116.938V63.0689H120.119V62.4632H116.938V61.2648H120.119V60.6591H112.182V61.2648H115.362V62.4632H112.182V63.0689H115.362V65.615H112.182V66.2207H120.313L120.306 66.1999H120.313ZM113.836 59.2135H118.468V60.1074H120.123V59.0485L120.122 59.0425C120.122 58.8045 119.931 58.6118 119.694 58.608H117.016V57.7742H115.285V58.6076H112.182V60.1072H113.836V59.2135Z" fill="#3F3B3A"/>
<path d="M193.685 47.5263H142.515C141.347 47.5263 140.401 48.4762 140.401 49.648V79.352C140.401 80.5238 141.347 81.4737 142.515 81.4737H193.685C194.853 81.4737 195.8 80.5238 195.8 79.352V49.648C195.8 48.4762 194.853 47.5263 193.685 47.5263Z" fill="#2E78BF"/>
<path fill-rule="evenodd" clip-rule="evenodd" d="M188.089 73.203H173.585L172.746 72.1626V73.203H169.414V71.3875C168.936 71.5568 168.396 71.6593 167.801 71.6593H167.852V73.203H163.073L162.386 72.2725L161.721 73.203H154.087V66.0471H161.75L162.422 66.9642L163.102 66.0471H189.743V70.1522C189.603 69.5049 189.052 69.1359 188.21 69.1359H187.039C186.75 69.1359 186.548 68.9564 186.548 68.6738C186.548 68.3842 186.75 68.1914 187.039 68.1914H189.237L189.686 67.2122H187.075C185.983 67.2122 185.333 67.8466 185.333 68.7152C185.333 69.6046 185.948 70.1147 186.91 70.1147H188.073C188.362 70.1147 188.572 70.2938 188.572 70.5838C188.572 70.8798 188.362 71.0731 188.073 71.0731H185.478V72.0384H188.037C188.98 72.0384 189.594 71.5649 189.744 70.8539V72.766C189.571 72.8665 189.389 72.9498 189.2 73.0149C188.863 73.1313 188.488 73.1982 188.089 73.203ZM180.663 72.0384H183.222C184.314 72.0384 184.965 71.404 184.965 70.5008C184.965 69.6388 184.379 69.1359 183.396 69.1359H182.225C181.935 69.1359 181.733 68.9564 181.733 68.6738C181.733 68.3842 181.935 68.1914 182.225 68.1914H184.422L184.871 67.2122H182.261C181.169 67.2122 180.518 67.8466 180.518 68.7152C180.518 69.6046 181.133 70.1147 182.095 70.1147H183.259C183.547 70.1147 183.757 70.2938 183.757 70.5838C183.757 70.8798 183.547 71.0731 183.259 71.0731H180.663L180.663 72.0384ZM175.878 72.0384H179.926V71.0661H177.092V70.0943H179.861V69.1289H177.092V68.1914H179.926V67.2122H175.877L175.878 72.0384ZM173.802 72.0384H175.313L173.629 70.2594C174.489 70.1077 175.002 69.5149 175.002 68.7426C175.002 67.8394 174.33 67.212 173.253 67.212H170.506V72.0382H171.72V70.3005H172.291L173.802 72.0384ZM165.315 72.0382H166.529V70.445H168.054C169.161 70.445 169.847 69.7559 169.847 68.8251C169.847 67.8672 169.175 67.212 168.098 67.212H165.314L165.315 72.0382ZM163.528 72.0382H165.047L163.015 69.6044L165.032 67.212H163.558L162.314 68.7426L161.078 67.212H159.56L161.584 69.625L159.567 72.0382H161.042L162.285 70.4868L163.528 72.0382ZM155.265 72.0382H159.314V71.0658H156.48V70.0941H159.249V69.1287H156.48V68.1911H159.314V67.212H155.265L155.265 72.0382ZM167.982 69.4249H166.529V68.2395H167.982C168.409 68.2395 168.625 68.5013 168.625 68.8319C168.625 69.1565 168.409 69.4249 167.982 69.4249ZM173.144 69.3903H171.72V68.1979H173.144C173.578 68.1979 173.809 68.4667 173.809 68.7982C173.809 69.1296 173.578 69.3903 173.144 69.3903ZM187.549 62.7445H184.35L183.654 61.6828V62.7445H179.049L178.64 61.7174H177.88L177.478 62.7445H174.731C174.48 62.7445 174.216 62.7248 173.952 62.6787C173.787 62.6505 173.625 62.6115 173.466 62.562C173.335 62.5218 173.207 62.4738 173.082 62.4184C172.957 62.3622 172.834 62.2977 172.715 62.224V62.7445H168.125L167.293 61.7036V62.7445H150.679L150.27 61.7174H149.51L149.108 62.7445H146.955V58.6352L148.312 55.5888H151.361L152.035 57.0509V55.5888H155.772L156.217 56.8364L156.655 55.5888H172.715V56.1481C172.855 56.0583 173.003 55.9799 173.157 55.9117C173.29 55.8536 173.426 55.8036 173.565 55.7622C173.747 55.708 173.932 55.6668 174.119 55.6389C174.33 55.6076 174.542 55.5909 174.755 55.5888H179.731L180.398 57.0356V55.5888H183.375L184.135 56.7331V55.5888H187.549L187.549 62.7445Z" fill="#FFFFFE"/>
<path fill-rule="evenodd" clip-rule="evenodd" d="M151.508 61.6438H152.871L150.714 56.6898H149.12L146.955 61.6438H148.247L148.673 60.5821H151.075L151.508 61.6438ZM149.502 58.5371L149.87 57.61L150.238 58.5371L150.685 59.6341H149.063L149.502 58.5371ZM154.329 58.2613L154.299 56.9238L155.699 61.6438H156.796L158.195 56.952L158.166 58.2541V61.6438H159.342V56.6898H157.207L156.247 60.1999L155.281 56.6898H153.152V61.6438H154.328L154.329 58.2613ZM164.378 57.695V56.69H160.338V61.644H164.377V60.6321H161.55V59.6485H164.312V58.6579H161.55V57.6953L164.378 57.695ZM166.477 59.8607H167.046L168.555 61.6438H170.062L168.381 59.8178C169.24 59.6623 169.752 59.0536 169.752 58.2613C169.752 57.3341 169.081 56.69 168.006 56.69H165.265V61.644H166.477V59.8607ZM167.898 57.702C168.331 57.702 168.562 57.9781 168.562 58.3178C168.562 58.6574 168.331 58.9261 167.898 58.9261H166.477V57.7018L167.898 57.702ZM170.444 61.6438H171.656V56.6898H170.444V61.6438ZM174.751 61.6438H174.816L175.314 60.5893H174.946C174.116 60.5893 173.626 60.0798 173.626 59.2025V59.1319C173.626 58.3462 174.065 57.7589 174.932 57.7589H176.244V56.69H174.831C173.272 56.69 172.421 57.7165 172.421 59.1249V59.2097C172.421 60.6818 173.294 61.637 174.751 61.6438ZM180.039 61.6438H181.402L179.246 56.6898H177.651L175.487 61.6438H176.778L177.204 60.5821H179.606L180.039 61.6438ZM178.034 58.5371L178.402 57.61L178.769 58.5371L179.217 59.6341H177.593L178.034 58.5371ZM182.867 58.6787L182.852 58.2681L183.105 58.6787L185.038 61.6438H186.452V56.6898H185.269V59.556L185.284 59.9239L185.06 59.556L183.17 56.6898H181.684V61.6438H182.867V58.6787Z" fill="#2E78BF"/>
<path d="M263.886 47.5263H212.715C211.548 47.5263 210.601 48.4762 210.601 49.648V79.352C210.601 80.5238 211.548 81.4737 212.715 81.4737H263.886C265.053 81.4737 266 80.5238 266 79.352V49.648C266 48.4762 265.053 47.5263 263.886 47.5263Z" fill="white"/>
<path d="M223.771 81.4737H263.886C264.163 81.4739 264.437 81.4191 264.694 81.3126C264.95 81.206 265.184 81.0498 265.38 80.8528C265.577 80.6558 265.732 80.4218 265.839 80.1644C265.945 79.9069 266 79.6307 266 79.352V67.0168C266 67.2289 251.086 76.8728 223.771 81.4737Z" fill="#E6772F"/>
<path fill-rule="evenodd" clip-rule="evenodd" d="M220.669 64.4781C220.246 64.8414 219.707 65.0001 218.845 65.0001H218.488V60.6661H218.845C219.707 60.6661 220.225 60.8142 220.669 61.1954C221.127 61.5894 221.403 62.1971 221.403 62.8258C221.403 63.4574 221.128 64.0871 220.669 64.4781ZM219.112 59.556H217.156V66.1108H219.1C220.135 66.1108 220.882 65.8744 221.537 65.3527C222.314 64.7349 222.776 63.8017 222.776 62.8351C222.776 60.9001 221.27 59.556 219.112 59.556ZM223.39 59.556H224.716V66.1108H223.39V59.556ZM227.974 62.0683C227.174 61.7863 226.939 61.5986 226.939 61.2442C226.939 60.8324 227.358 60.5201 227.933 60.5201C228.331 60.5201 228.66 60.6733 229.01 61.0478L229.702 60.1753C229.13 59.6918 228.445 59.4469 227.698 59.4469C226.49 59.4469 225.569 60.254 225.569 61.321C225.569 62.227 225.997 62.6868 227.247 63.1232C227.769 63.2976 228.034 63.4166 228.169 63.4973C228.435 63.6623 228.567 63.8991 228.567 64.1728C228.567 64.706 228.127 65.0979 227.532 65.0979C226.899 65.0979 226.387 64.7934 226.08 64.2218L225.222 65.02C225.835 65.8834 226.571 66.2691 227.584 66.2691C228.966 66.2691 229.94 65.3805 229.94 64.1151C229.94 63.0725 229.489 62.6 227.974 62.0683ZM230.359 62.8351C230.359 64.7627 231.934 66.2564 233.963 66.2564C234.535 66.2564 235.025 66.1479 235.629 65.8744V64.368C235.096 64.883 234.627 65.086 234.021 65.086C232.681 65.086 231.732 64.1548 231.732 62.826C231.732 61.5706 232.712 60.5759 233.963 60.5759C234.595 60.5759 235.077 60.7906 235.629 61.3132V59.8085C235.046 59.5252 234.567 59.4079 233.991 59.4079C231.974 59.4079 230.359 60.9309 230.359 62.8351ZM246.415 63.9566L244.595 59.556H243.143L246.037 66.2761H246.751L249.701 59.556H248.261L246.415 63.9566ZM250.305 66.1108H254.08V65.0001H251.637V63.2308H253.987V62.1203H251.637V60.6661H254.08V59.556H250.305V66.1108ZM256.68 62.5701H256.294V60.5876H256.702C257.534 60.5876 257.979 60.9228 257.979 61.5612C257.979 62.2172 257.534 62.5701 256.68 62.5701ZM259.35 61.4899C259.35 60.2625 258.473 59.556 256.936 59.556H254.959V66.1108H256.294V63.4754H256.467L258.306 66.1108H259.944L257.797 63.3481C258.8 63.1512 259.35 62.4931 259.35 61.4899Z" fill="#1A1919"/>
<path fill-rule="evenodd" clip-rule="evenodd" d="M243.331 62.8504C243.331 64.7374 241.738 66.2672 239.772 66.2672C237.806 66.2672 236.214 64.7376 236.214 62.8504C236.214 60.9631 237.807 59.4331 239.772 59.4331C241.738 59.4331 243.331 60.9629 243.331 62.8504Z" fill="#E6772F"/>
<path d="M53.2846 95.0526H2.11447C0.946679 95.0526 0 96.0025 0 97.1743V126.878C0 128.05 0.946679 129 2.11447 129H53.2846C54.4524 129 55.399 128.05 55.399 126.878V97.1743C55.399 96.0025 54.4524 95.0526 53.2846 95.0526Z" fill="white"/>
<path d="M35.5231 114.466H37.7432C37.8067 114.466 37.9547 114.445 38.0181 114.445C38.441 114.36 38.8005 113.978 38.8005 113.448C38.8005 112.939 38.441 112.557 38.0181 112.451C37.9547 112.429 37.8278 112.429 37.7432 112.429H35.5231V114.466Z" fill="url(#paint0_linear_890_2484)"/>
<path d="M37.4895 100.399C35.375 100.399 33.6412 102.118 33.6412 104.261V108.271H39.0754C39.2022 108.271 39.3502 108.271 39.456 108.292C40.6824 108.356 41.5916 108.992 41.5916 110.096C41.5916 110.965 40.9784 111.708 39.8366 111.857V111.899C41.0841 111.984 42.0356 112.684 42.0356 113.766C42.0356 114.933 40.9784 115.697 39.5828 115.697H33.62V123.547H39.2657C41.3801 123.547 43.114 121.829 43.114 119.686V100.399H37.4895Z" fill="url(#paint1_linear_890_2484)"/>
<path d="M38.5256 110.35C38.5256 109.841 38.1661 109.501 37.7432 109.438C37.701 109.438 37.5952 109.417 37.5318 109.417H35.5231V111.284H37.5318C37.5952 111.284 37.7221 111.284 37.7432 111.263C38.1661 111.199 38.5256 110.859 38.5256 110.35Z" fill="url(#paint2_linear_890_2484)"/>
<path d="M16.3535 100.357C14.2342 100.357 12.4965 102.075 12.4965 104.218V113.745C13.5772 114.275 14.7004 114.615 15.8236 114.615C17.1587 114.615 17.8793 113.809 17.8793 112.705V108.207H21.1853V112.684C21.1853 114.424 20.1046 115.845 16.4383 115.845C14.213 115.845 12.4754 115.357 12.4754 115.357V123.484H18.1335C20.2528 123.484 21.9905 121.765 21.9905 119.622V100.357H16.3535Z" fill="url(#paint3_linear_890_2484)"/>
<path d="M26.9047 100.357C24.7854 100.357 23.0477 102.072 23.0477 104.211V109.252C24.0225 108.426 25.7178 107.896 28.4516 108.023C29.9138 108.087 31.4821 108.489 31.4821 108.489V110.12C30.698 109.718 29.7656 109.358 28.5576 109.273C26.4807 109.125 25.2305 110.141 25.2305 111.92C25.2305 113.72 26.4807 114.737 28.5576 114.567C29.7656 114.483 30.6978 114.102 31.4821 113.72V115.351C31.4821 115.351 29.9351 115.754 28.4516 115.817C25.7178 115.944 24.0225 115.415 23.0477 114.589V123.484H28.7058C30.8251 123.484 32.5628 121.768 32.5628 119.629V100.357H26.9047Z" fill="url(#paint4_linear_890_2484)"/>
<path d="M123.485 95.0526H72.3148C71.147 95.0526 70.2003 96.0025 70.2003 97.1743V126.878C70.2003 128.05 71.147 129 72.3148 129H123.485C124.653 129 125.599 128.05 125.599 126.878V97.1743C125.599 96.0025 124.653 95.0526 123.485 95.0526Z" fill="white"/>
<path d="M99.5787 121.752H86.7841V102.317H99.5914C99.6745 102.323 99.7578 102.323 99.8409 102.317L100.647 102.37L101.429 102.468C101.821 102.529 102.209 102.611 102.592 102.714C103.301 102.9 103.987 103.169 104.634 103.514C105.936 104.204 107.014 105.252 107.743 106.535C108.219 107.388 108.559 108.31 108.749 109.268L108.914 110.276L108.984 110.995L109.001 111.386V111.689C109 111.704 109 111.719 109.001 111.734V112.306C109 112.321 109 112.336 109.001 112.351V112.69C109.001 112.903 108.982 113.134 108.965 113.357L108.887 114.101L108.696 115.162C108.553 115.812 108.344 116.445 108.073 117.053C107.781 117.704 107.399 118.31 106.939 118.854C106.373 119.52 105.689 120.076 104.922 120.494C103.997 120.992 102.997 121.334 101.962 121.508C101.757 121.544 101.55 121.575 101.34 121.604L100.706 121.669L100.27 121.703H100.226L99.7606 121.725C99.7086 121.718 99.6561 121.718 99.6041 121.725C99.6041 121.725 99.5914 121.748 99.5787 121.752ZM88.0908 112.026V120.343C88.0908 120.379 88.0781 120.422 88.0908 120.447C88.1035 120.473 88.1585 120.447 88.1923 120.447H99.2996L100.568 120.399L101.363 120.309C101.732 120.259 102.098 120.188 102.459 120.097C102.995 119.963 103.516 119.771 104.013 119.527C105.189 118.957 106.147 118.018 106.74 116.851C107.039 116.269 107.266 115.652 107.415 115.014C107.546 114.455 107.634 113.888 107.679 113.316L107.73 112.255L107.705 111.161L107.624 110.312L107.451 109.349C107.324 108.786 107.139 108.239 106.899 107.715C106.333 106.464 105.387 105.424 104.197 104.745C103.431 104.31 102.601 104.001 101.738 103.828L100.837 103.68L100.156 103.616L99.2764 103.593H88.2156C88.1775 103.593 88.1289 103.578 88.1035 103.593C88.0781 103.607 88.0908 103.671 88.0908 103.711V112.026Z" fill="#141710"/>
<path d="M99.5914 102.315H86.7841V102.298H99.5787C99.5845 102.303 99.589 102.308 99.5914 102.315Z" fill="#7B7D79"/>
<path d="M109.001 112.357C109 112.342 109 112.328 109.001 112.313V111.74C109 111.725 109 111.71 109.001 111.695H109.016V112.353C109.014 112.355 109.011 112.356 109.009 112.357C109.006 112.357 109.003 112.358 109.001 112.357Z" fill="#8A8C88"/>
<path d="M100.272 121.716C100.263 121.723 100.253 121.729 100.241 121.732C100.23 121.735 100.218 121.735 100.207 121.733H99.9953C99.9741 121.733 99.953 121.733 99.9361 121.746H99.7584V121.729L100.224 121.708L100.272 121.716Z" fill="#C6D8D7"/>
<path d="M109.001 112.357L109.008 112.359L109.016 112.357V112.697H109.001C108.994 112.582 108.999 112.47 109.001 112.357ZM109.016 111.697H109.001V111.39H109.016V111.697Z" fill="#C0BFBE"/>
<path d="M99.5914 102.315C99.5924 102.31 99.5924 102.305 99.5914 102.3H99.8409C99.8398 102.305 99.8398 102.31 99.8409 102.315C99.7578 102.321 99.6745 102.321 99.5914 102.315Z" fill="#DBC9C7"/>
<path d="M99.7563 121.735V121.752H99.5787C99.5787 121.752 99.5935 121.739 99.5999 121.739C99.6516 121.732 99.7042 121.73 99.7563 121.735Z" fill="#8A8C88"/>
<path d="M88.0908 112.026V103.728C88.0908 103.688 88.0739 103.637 88.1035 103.609C88.1331 103.582 88.1775 103.609 88.2156 103.609H99.2764L100.156 103.633L100.837 103.696L101.738 103.845C102.601 104.018 103.431 104.327 104.197 104.762C105.387 105.441 106.333 106.481 106.899 107.732C107.139 108.256 107.324 108.803 107.451 109.366L107.624 110.329L107.705 111.178L107.73 112.272L107.679 113.333C107.634 113.905 107.546 114.472 107.415 115.031C107.268 115.667 107.045 116.284 106.749 116.866C106.155 118.025 105.201 118.958 104.032 119.524C103.532 119.768 103.007 119.957 102.467 120.089C102.106 120.179 101.74 120.25 101.372 120.301L100.577 120.39L99.3081 120.439H88.2008C88.1669 120.439 88.1225 120.456 88.0993 120.439C88.076 120.422 88.0993 120.371 88.0993 120.335L88.0908 112.026ZM94.4659 119.113C94.4659 119.181 94.4659 119.181 94.5357 119.183H98.2487L99.4476 119.17C99.6844 119.17 99.9213 119.147 100.158 119.126L100.976 119.028C101.351 118.972 101.721 118.893 102.086 118.792C102.627 118.643 103.148 118.429 103.639 118.156C104.404 117.738 105.053 117.134 105.527 116.399C105.867 115.862 106.121 115.274 106.279 114.657C106.377 114.282 106.448 113.899 106.491 113.514L106.561 112.608V112.349C106.561 112.222 106.573 112.238 106.455 112.238H104.108C104.104 112.239 104.101 112.238 104.097 112.236C104.094 112.235 104.091 112.232 104.088 112.23C104.086 112.227 104.084 112.223 104.083 112.22C104.082 112.216 104.082 112.212 104.083 112.209C104.081 112.191 104.081 112.173 104.083 112.156V108.744C104.083 108.723 104.083 108.723 104.106 108.721H104.825C104.861 108.721 104.907 108.704 104.935 108.733C104.962 108.763 104.935 108.801 104.935 108.837V111.464C104.935 111.492 104.945 111.498 104.973 111.5H106.501C106.504 111.5 106.507 111.5 106.51 111.498C106.513 111.497 106.515 111.495 106.517 111.493C106.519 111.491 106.521 111.488 106.522 111.486C106.523 111.483 106.523 111.48 106.523 111.477C106.523 111.432 106.523 111.387 106.523 111.343L106.406 110.46C106.325 110.026 106.205 109.6 106.047 109.187C105.568 107.915 104.647 106.86 103.452 106.217C102.724 105.824 101.94 105.547 101.127 105.396L100.293 105.264L99.6041 105.203L98.7583 105.18H94.5294C94.4152 105.18 94.4279 105.18 94.4279 105.286V108.644C94.4279 108.685 94.4279 108.693 94.4744 108.693H94.8212C94.9956 108.691 95.17 108.699 95.3434 108.719C95.5809 108.736 95.808 108.823 95.9968 108.969C96.1904 109.123 96.3411 109.325 96.4345 109.555C96.5298 109.792 96.5821 110.044 96.5889 110.299C96.6009 110.483 96.5959 110.668 96.5741 110.851C96.5452 111.12 96.4579 111.38 96.3182 111.613C96.2302 111.761 96.1121 111.89 95.9715 111.991C95.831 112.091 95.6711 112.161 95.502 112.196C95.3522 112.231 95.199 112.248 95.0453 112.249H94.5738C94.449 112.249 94.4638 112.232 94.4638 112.357L94.4659 119.113ZM92.8251 116.217V113.357C92.8251 113.323 92.8399 113.28 92.8124 113.255C92.7849 113.229 92.7511 113.255 92.7194 113.255H89.3151C89.2834 113.255 89.2728 113.255 89.2728 113.295V119.151C89.2722 119.155 89.2725 119.16 89.2738 119.164C89.2752 119.169 89.2775 119.172 89.2805 119.176C89.2835 119.179 89.2873 119.181 89.2915 119.183C89.2956 119.185 89.3001 119.185 89.3045 119.185H92.7236C92.8463 119.185 92.8315 119.2 92.8315 119.077L92.8251 116.217ZM93.0958 110.276C93.0966 109.876 92.9793 109.485 92.7587 109.152C92.538 108.819 92.224 108.559 91.8562 108.405C91.4884 108.252 91.0835 108.211 90.6925 108.288C90.3015 108.365 89.942 108.556 89.6595 108.838C89.3771 109.12 89.1842 109.48 89.1054 109.872C89.0266 110.264 89.0654 110.67 89.2168 111.04C89.3682 111.41 89.6255 111.726 89.9561 111.95C90.2867 112.173 90.6759 112.292 91.0743 112.294C91.3391 112.296 91.6017 112.246 91.8471 112.146C92.0925 112.046 92.3158 111.898 92.5042 111.712C92.6926 111.525 92.8424 111.303 92.945 111.058C93.0476 110.813 93.101 110.55 93.1021 110.284L93.0958 110.276ZM94.8212 111.485H94.9375C95.038 111.483 95.1383 111.475 95.2377 111.46C95.323 111.446 95.403 111.409 95.4692 111.354C95.5355 111.298 95.5855 111.225 95.6141 111.144C95.6571 111.02 95.6848 110.892 95.6966 110.762C95.7135 110.566 95.7135 110.37 95.6966 110.174C95.688 110.031 95.6521 109.892 95.5908 109.762C95.5558 109.692 95.5056 109.63 95.4438 109.581C95.382 109.532 95.3102 109.498 95.2335 109.48C95.1412 109.459 95.0469 109.448 94.9523 109.448H94.5294C94.4596 109.448 94.4596 109.448 94.4596 109.518V111.415C94.4585 111.433 94.4585 111.451 94.4596 111.468C94.4601 111.474 94.4627 111.48 94.4669 111.484C94.4712 111.489 94.4769 111.491 94.4829 111.492H94.8191L94.8212 111.485Z" fill="#FFFEFE"/>
<path d="M94.4659 112.357C94.4659 112.232 94.4511 112.251 94.5759 112.249H95.0474C95.2011 112.248 95.3543 112.231 95.5042 112.196C95.6732 112.161 95.8331 112.091 95.9736 111.991C96.1142 111.89 96.2323 111.761 96.3203 111.613C96.46 111.38 96.5474 111.12 96.5762 110.851C96.598 110.668 96.603 110.483 96.591 110.299C96.5842 110.044 96.5319 109.792 96.4366 109.555C96.3426 109.325 96.1912 109.123 95.9968 108.969C95.8181 108.83 95.6043 108.743 95.3794 108.719C95.206 108.699 95.0316 108.691 94.8571 108.693H94.5167C94.4765 108.693 94.4723 108.693 94.4702 108.644V105.275C94.4702 105.158 94.4575 105.169 94.5717 105.169H98.8006L99.6464 105.192L100.336 105.254L101.169 105.385C101.982 105.536 102.767 105.813 103.495 106.206C104.689 106.849 105.611 107.905 106.089 109.177C106.247 109.589 106.368 110.015 106.449 110.45L106.565 111.333C106.565 111.378 106.565 111.422 106.565 111.466C106.565 111.469 106.565 111.472 106.564 111.475C106.563 111.478 106.562 111.48 106.56 111.483C106.558 111.485 106.555 111.487 106.552 111.488C106.55 111.489 106.547 111.49 106.544 111.49H105.015C104.988 111.49 104.977 111.49 104.977 111.453V108.844C104.977 108.808 104.992 108.765 104.977 108.74C104.962 108.714 104.903 108.727 104.867 108.727H104.148C104.133 108.727 104.125 108.727 104.125 108.75V112.166C104.124 112.184 104.124 112.202 104.125 112.219C104.124 112.223 104.124 112.227 104.125 112.23C104.126 112.234 104.128 112.237 104.131 112.24C104.133 112.243 104.136 112.245 104.139 112.247C104.143 112.248 104.146 112.249 104.15 112.249H106.497C106.616 112.249 106.605 112.232 106.603 112.359V112.618C106.603 112.92 106.569 113.223 106.533 113.524C106.49 113.91 106.42 114.292 106.322 114.668C106.163 115.284 105.909 115.872 105.569 116.41C105.095 117.144 104.446 117.748 103.681 118.167C103.191 118.44 102.669 118.654 102.129 118.803C101.764 118.904 101.393 118.982 101.019 119.039L100.2 119.136L99.4899 119.181L98.291 119.193H94.5357C94.4681 119.193 94.4659 119.193 94.4659 119.123V112.357ZM99.8303 109.448C99.8515 109.448 99.8599 109.436 99.8599 109.414V108.778C99.861 108.763 99.861 108.748 99.8599 108.733C99.8599 108.695 99.86 108.689 99.8113 108.689C99.8001 108.688 99.7887 108.688 99.7775 108.689H97.2063C97.1894 108.689 97.1809 108.689 97.1809 108.716V112.164C97.1809 112.255 97.1809 112.249 97.2676 112.249H99.8896C99.8932 112.249 99.8967 112.248 99.8999 112.246C99.9032 112.245 99.906 112.242 99.9084 112.24C99.9107 112.237 99.9126 112.234 99.9137 112.23C99.9148 112.227 99.9152 112.223 99.9149 112.219V111.613C99.9149 111.479 99.9318 111.494 99.7965 111.494H98.0648C98.0521 111.494 98.0436 111.494 98.0415 111.47C98.0394 111.447 98.0415 111.424 98.0415 111.4V110.864C98.0415 110.758 98.0415 110.768 98.1367 110.768H99.6993C99.7141 110.768 99.7204 110.768 99.7225 110.745C99.7246 110.721 99.7225 110.698 99.7225 110.675V110.117C99.7225 110.006 99.7331 110.017 99.621 110.017H98.0838C98.0478 110.017 98.0394 110.017 98.0394 109.968V109.48C98.0419 109.469 98.0454 109.459 98.05 109.448H99.8303ZM103.744 112.238C103.741 112.204 103.731 112.171 103.715 112.141C103.389 111.326 103.064 110.511 102.74 109.695C102.613 109.378 102.487 109.061 102.361 108.744C102.357 108.726 102.346 108.709 102.33 108.698C102.315 108.687 102.296 108.683 102.277 108.685H101.549C101.531 108.682 101.511 108.686 101.496 108.697C101.48 108.708 101.47 108.725 101.467 108.744C101.467 108.763 101.452 108.782 101.444 108.803L100.866 110.289L100.148 112.147C100.132 112.173 100.124 112.202 100.124 112.232H101.031L101.057 112.168L101.268 111.583C101.268 111.557 101.289 111.532 101.298 111.506C101.299 111.501 101.301 111.495 101.304 111.491C101.307 111.486 101.311 111.482 101.316 111.479C101.321 111.476 101.326 111.473 101.332 111.472C101.337 111.471 101.343 111.471 101.349 111.473H102.522L102.564 111.577L102.799 112.19C102.802 112.205 102.811 112.219 102.824 112.229C102.837 112.238 102.853 112.243 102.869 112.241H103.715L103.744 112.238Z" fill="#CA015C"/>
<path d="M92.8251 116.217V119.068C92.8251 119.191 92.8399 119.176 92.7173 119.176H89.3045C89.3001 119.177 89.2956 119.176 89.2915 119.175C89.2873 119.173 89.2835 119.17 89.2805 119.167C89.2775 119.164 89.2752 119.16 89.2738 119.156C89.2725 119.151 89.2722 119.147 89.2728 119.143V113.287C89.2728 113.253 89.2728 113.246 89.3151 113.246H92.7257C92.7575 113.246 92.7955 113.234 92.8188 113.246C92.842 113.259 92.8315 113.314 92.8315 113.348L92.8251 116.217ZM93.1021 110.284C93.1017 110.685 92.9829 111.076 92.7607 111.408C92.5386 111.741 92.2231 112 91.8542 112.152C91.4854 112.304 91.0797 112.343 90.6887 112.264C90.2977 112.185 89.9388 111.991 89.6577 111.707C89.3765 111.424 89.1856 111.062 89.1092 110.669C89.0328 110.277 89.0744 109.87 89.2286 109.501C89.3828 109.131 89.6427 108.817 89.9754 108.596C90.3082 108.375 90.6987 108.258 91.0976 108.26C91.6307 108.263 92.1412 108.477 92.517 108.856C92.8928 109.236 93.1032 109.749 93.1021 110.284Z" fill="#141710"/>
<path d="M94.8275 111.494H94.4913C94.4853 111.493 94.4797 111.491 94.4754 111.486C94.4711 111.482 94.4685 111.476 94.4681 111.47C94.4669 111.453 94.4669 111.435 94.4681 111.417V109.518C94.4681 109.451 94.4681 109.448 94.5378 109.448H94.9607C95.0554 109.448 95.1497 109.459 95.242 109.48C95.3202 109.497 95.3935 109.532 95.4565 109.582C95.5195 109.631 95.5705 109.695 95.6056 109.767C95.6669 109.896 95.7028 110.036 95.7114 110.178C95.7283 110.374 95.7283 110.57 95.7114 110.766C95.6996 110.896 95.6719 111.024 95.6289 111.148C95.6003 111.23 95.5503 111.302 95.484 111.358C95.4178 111.414 95.3378 111.45 95.2525 111.464C95.1531 111.479 95.0528 111.487 94.9523 111.49H94.836L94.8275 111.494Z" fill="#CB035E"/>
<path d="M98.05 109.448C98.0484 109.462 98.0484 109.475 98.05 109.489V109.96C98.05 110 98.05 110.009 98.0944 110.009H99.6316C99.7437 110.009 99.7331 110.009 99.7331 110.108V110.741C99.7331 110.764 99.7331 110.764 99.7098 110.764H98.1472C98.0436 110.764 98.0521 110.764 98.0521 110.859V111.46C98.0521 111.483 98.0521 111.483 98.0753 111.483H99.8029C99.9382 111.483 99.9192 111.468 99.9213 111.602V112.209C99.9216 112.212 99.9211 112.216 99.92 112.22C99.9189 112.223 99.9171 112.226 99.9147 112.229C99.9124 112.232 99.9095 112.234 99.9063 112.236C99.903 112.237 99.8995 112.238 99.8959 112.238H97.2655C97.1682 112.238 97.1788 112.238 97.1788 112.154V108.723C97.1788 108.706 97.1788 108.695 97.2042 108.695H99.7648C99.776 108.694 99.7874 108.694 99.7986 108.695C99.8409 108.695 99.8473 108.695 99.8473 108.74C99.8483 108.755 99.8483 108.77 99.8473 108.784V109.421C99.8473 109.442 99.8473 109.455 99.8177 109.455H98.0479L98.05 109.448ZM103.744 112.238H102.867C102.851 112.24 102.835 112.236 102.822 112.227C102.809 112.217 102.8 112.203 102.797 112.188L102.562 111.574L102.52 111.47H101.346C101.341 111.469 101.335 111.469 101.33 111.47C101.324 111.471 101.319 111.473 101.314 111.477C101.309 111.48 101.305 111.484 101.302 111.489C101.299 111.493 101.297 111.499 101.296 111.504C101.296 111.53 101.277 111.555 101.266 111.581L101.055 112.166L101.029 112.23H100.122C100.122 112.2 100.13 112.171 100.145 112.145L100.864 110.287L101.442 108.801C101.442 108.78 101.458 108.761 101.465 108.742C101.468 108.723 101.478 108.706 101.494 108.695C101.509 108.684 101.529 108.679 101.547 108.682H102.275C102.294 108.68 102.313 108.685 102.328 108.696C102.344 108.707 102.355 108.723 102.359 108.742C102.485 109.06 102.611 109.377 102.738 109.692C103.062 110.507 103.387 111.323 103.713 112.139C103.73 112.17 103.74 112.203 103.744 112.238ZM101.596 110.717H102.222C102.223 110.699 102.218 110.682 102.209 110.666L101.932 109.917C101.928 109.903 101.922 109.89 101.915 109.877H101.903C101.9 109.878 101.897 109.879 101.895 109.881C101.893 109.883 101.891 109.885 101.89 109.888V109.913L101.609 110.69C101.604 110.694 101.601 110.699 101.599 110.705C101.597 110.711 101.596 110.717 101.596 110.724V110.717Z" fill="#FFFEFE"/>
<path d="M101.596 110.724C101.592 110.717 101.59 110.709 101.59 110.701C101.59 110.694 101.592 110.686 101.596 110.679L101.883 109.905V109.879C101.885 109.877 101.887 109.874 101.889 109.873C101.891 109.871 101.893 109.869 101.896 109.869H101.909C101.916 109.881 101.921 109.895 101.926 109.909L102.203 110.658C102.212 110.673 102.217 110.691 102.215 110.709H101.613L101.596 110.724Z" fill="#CB0861"/>
<path d="M193.685 95.0526H142.515C141.347 95.0526 140.401 96.0025 140.401 97.1743V126.878C140.401 128.05 141.347 129 142.515 129H193.685C194.853 129 195.8 128.05 195.8 126.878V97.1743C195.8 96.0025 194.853 95.0526 193.685 95.0526Z" fill="#FA82A0"/>
<path d="M159.686 124.332H159.763C160.679 124.332 161.421 123.572 161.421 122.633C161.421 121.682 160.769 121.297 159.984 121.059C159.465 120.912 159.155 120.799 159.155 120.425C159.155 120.279 159.212 120.14 159.315 120.036C159.365 119.986 159.424 119.946 159.49 119.92C159.556 119.893 159.626 119.88 159.697 119.881C159.98 119.883 160.237 120.05 160.36 120.312L161.178 119.768C160.819 119.119 160.088 118.786 159.377 118.948C158.666 119.109 158.141 119.727 158.083 120.471C158.083 121.15 158.481 121.671 159.453 122C160.006 122.158 160.338 122.249 160.338 122.702C160.332 123.06 160.046 123.348 159.697 123.348H159.63C159.23 123.33 158.861 123.12 158.635 122.781L157.951 123.505C158.339 124.021 158.94 124.323 159.575 124.321L159.686 124.332ZM163.72 124.332C162.696 124.307 161.883 123.442 161.897 122.392C161.911 121.343 162.747 120.501 163.772 120.504C164.796 120.508 165.626 121.357 165.633 122.407C165.636 122.915 165.442 123.403 165.093 123.764C164.745 124.125 164.271 124.329 163.776 124.332H163.72ZM163.72 123.369C164.232 123.363 164.642 122.934 164.638 122.411C164.634 121.887 164.217 121.465 163.706 121.467C163.195 121.469 162.781 121.894 162.781 122.418C162.781 122.672 162.88 122.916 163.057 123.095C163.233 123.274 163.472 123.373 163.72 123.369ZM168.142 119.926V118.963H167.777C167.558 118.964 167.34 119.008 167.138 119.095C166.936 119.181 166.753 119.307 166.601 119.465C166.29 119.786 166.116 120.221 166.119 120.674V124.241H167.114V122.712C167.138 122.238 167.524 121.867 167.987 121.874H168.076V120.844H167.998C167.68 120.848 167.375 120.977 167.147 121.206V120.753C167.147 120.288 167.511 119.91 167.965 119.903H168.12L168.142 119.926ZM170.33 124.321C169.303 124.296 168.489 123.426 168.507 122.373C168.525 121.321 169.369 120.481 170.396 120.493C171.423 120.505 172.248 121.365 172.243 122.418C172.237 123.47 171.402 124.321 170.374 124.321L170.33 124.321ZM170.33 123.369C170.843 123.369 171.259 122.943 171.259 122.418C171.259 121.893 170.843 121.467 170.33 121.467C169.818 121.467 169.402 121.893 169.402 122.418C169.402 122.943 169.818 123.369 170.33 123.369ZM173.746 121.002V120.583H172.806V124.219H173.746V122.486C173.746 122.009 174.12 121.62 174.586 121.614H174.674V120.515H174.564C174.392 120.512 174.223 120.553 174.072 120.635C173.921 120.716 173.794 120.835 173.702 120.98L173.746 121.002ZM176.288 122.361V121.467C176.513 121.699 176.82 121.83 177.139 121.829H177.216V120.878H177.161C176.686 120.878 176.295 120.493 176.277 120.006V119.428H175.26V122.441C175.254 122.474 175.254 122.509 175.26 122.543C175.272 123.485 176.021 124.242 176.94 124.241H177.239V123.29H177.084C176.867 123.293 176.658 123.208 176.502 123.053C176.346 122.896 176.257 122.685 176.255 122.463V122.384L176.288 122.361ZM178.443 124.287C178.805 124.28 179.095 123.978 179.095 123.607C179.095 123.236 178.805 122.934 178.443 122.928C178.081 122.922 177.781 123.214 177.769 123.585C177.766 123.766 177.834 123.941 177.959 124.072C178.084 124.202 178.255 124.275 178.432 124.275L178.443 124.287ZM173.735 109.042C173.582 108.859 173.371 108.735 173.138 108.691L172.541 108.555L173.912 101.566C173.922 101.457 173.922 101.347 173.912 101.238C173.913 100.546 173.459 99.9408 172.806 99.7654C172.676 99.7357 172.542 99.7205 172.408 99.72C171.726 99.7425 171.137 100.214 170.949 100.886L169.656 105.27L168.728 100.977C168.596 100.233 167.95 99.7021 167.213 99.7312C167.103 99.722 166.992 99.722 166.882 99.7312C166.213 99.9364 165.754 100.567 165.754 101.283C165.754 101.421 165.772 101.558 165.81 101.691L166.384 106.561C166.135 106.248 165.762 106.065 165.367 106.062C165.1 106.06 164.838 106.139 164.616 106.289L164.527 106.346C164.159 106.649 163.944 107.107 163.941 107.592C163.941 107.901 164.029 108.203 164.196 108.464C164.021 108.467 163.848 108.505 163.688 108.577C163.529 108.649 163.386 108.753 163.267 108.883L163.201 108.95C162.649 109.677 162.772 110.724 163.477 111.295L163.488 111.306L164.074 111.895C164.169 114.462 166.232 116.49 168.739 116.482H168.882C172.397 116.482 173.934 114.353 174.188 111.125C174.203 110.967 174.203 110.808 174.188 110.649C174.194 110.066 174.011 109.496 173.668 109.03L173.735 109.042ZM167.081 100.457H167.258C167.669 100.463 168.021 100.759 168.109 101.17L169.369 106.675V106.777H169.822L169.899 106.686V106.641L171.535 101.068C171.598 100.823 171.753 100.613 171.966 100.485C172.072 100.422 172.189 100.381 172.31 100.365C172.432 100.348 172.555 100.356 172.674 100.389C173.037 100.498 173.289 100.838 173.293 101.227C173.298 101.291 173.298 101.355 173.293 101.419L171.878 108.396L169.424 107.807H169.258C169.118 107.797 168.978 107.797 168.838 107.807C168.69 107.807 168.542 107.823 168.396 107.853C168.074 107.926 167.79 108.12 167.6 108.396L167.213 107.649L166.473 101.646V101.566C166.463 101.488 166.463 101.408 166.473 101.329C166.446 100.899 166.704 100.504 167.103 100.366L167.081 100.457ZM164.936 106.89H165.003C165.467 106.618 165.865 106.822 166.263 107.433L166.594 107.943L167.346 109.053C167.316 109.171 167.301 109.293 167.302 109.415C167.309 109.769 167.443 110.108 167.678 110.367C167.625 110.47 167.549 110.559 167.457 110.627H167.379C167.251 110.72 167.095 110.768 166.937 110.763C166.678 110.769 166.433 110.641 166.285 110.424L164.904 108.294C164.539 107.683 164.572 107.06 164.904 106.822L164.936 106.89ZM163.732 109.404L163.787 109.336C163.927 109.207 164.107 109.135 164.295 109.133C164.453 109.129 164.608 109.177 164.738 109.269L165.754 110.798C166.02 111.198 166.464 111.436 166.937 111.432C167.072 111.58 167.147 111.774 167.147 111.975C167.145 112.181 167.071 112.378 166.937 112.53L166.882 112.587C166.735 112.735 166.537 112.82 166.329 112.825C166.225 112.827 166.121 112.807 166.025 112.768C165.928 112.73 165.84 112.672 165.765 112.598L164.008 110.763C163.488 110.31 163.422 109.688 163.731 109.359L163.732 109.404ZM173.569 111.126C173.326 114.048 172 115.894 168.85 115.894H168.761C166.875 115.896 165.238 114.561 164.815 112.677L165.29 113.153C165.847 113.72 166.746 113.72 167.302 113.153L167.369 113.085C167.628 112.813 167.771 112.446 167.766 112.066C167.764 111.824 167.703 111.587 167.59 111.375L167.744 111.296L167.8 111.25C167.953 111.117 168.074 110.951 168.153 110.763C168.379 110.896 168.621 110.998 168.872 111.069L169.756 111.284C169.084 111.729 168.676 112.492 168.673 113.312C168.669 113.353 168.669 113.395 168.673 113.436C168.695 113.596 168.826 113.715 168.983 113.719C169.146 113.722 169.287 113.601 169.314 113.436C169.31 113.387 169.31 113.338 169.314 113.289C169.333 112.595 169.756 111.98 170.386 111.726C170.614 111.644 170.853 111.602 171.094 111.601H171.47C171.547 111.597 171.62 111.565 171.675 111.511C171.731 111.457 171.765 111.385 171.773 111.308C171.789 111.147 171.689 110.997 171.536 110.956L169.082 110.423C168.787 110.352 168.506 110.229 168.253 110.061C168.225 110.021 168.187 109.989 168.142 109.97C168.014 109.836 167.929 109.665 167.9 109.481C167.87 109.297 167.897 109.108 167.976 108.94C168.035 108.66 168.254 108.445 168.529 108.396C168.625 108.386 168.721 108.386 168.817 108.396H169.236L172.962 109.28H173.039C173.11 109.317 173.173 109.367 173.227 109.427C173.463 109.776 173.59 110.191 173.592 110.616C173.592 110.787 173.574 110.958 173.536 111.126L173.569 111.126Z" fill="white"/>
<path d="M263.886 95.0526H212.715C211.548 95.0526 210.601 96.0025 210.601 97.1743V126.878C210.601 128.05 211.548 129 212.715 129H263.886C265.053 129 266 128.05 266 126.878V97.1743C266 96.0025 265.053 95.0526 263.886 95.0526Z" fill="white"/>
<path d="M228.151 101.545H236.486C237.649 101.545 238.374 102.496 238.102 103.667L234.222 120.386C233.947 121.553 232.782 122.508 231.619 122.508H223.273C222.112 122.508 221.387 121.555 221.658 120.386L225.542 103.667C225.812 102.493 226.977 101.545 228.143 101.545" fill="#E21836"/>
<path d="M235.784 101.545H245.371C246.534 101.545 246.006 102.496 245.735 103.667L241.855 120.386C241.582 121.553 241.669 122.508 240.502 122.508H230.917C229.75 122.508 229.029 121.555 229.301 120.386L233.183 103.667C233.458 102.493 234.619 101.545 235.784 101.545Z" fill="#00447C"/>
<path d="M244.991 101.545H253.326C254.491 101.545 255.216 102.496 254.941 103.667L251.061 120.386C250.789 121.553 249.621 122.508 248.456 122.508H240.125C238.958 122.508 238.235 121.555 238.508 120.386L242.39 103.667C242.66 102.493 243.826 101.545 244.991 101.545Z" fill="#007B84"/>
<path d="M230.318 106.902C229.922 106.922 229.524 106.916 229.128 106.883L228.517 109.712C228.392 110.253 228.305 110.639 227.992 110.889C227.819 111.032 227.601 111.107 227.377 111.101C227.299 111.11 227.22 111.103 227.145 111.08C227.07 111.057 227 111.019 226.94 110.967C226.881 110.916 226.832 110.852 226.798 110.781C226.764 110.71 226.745 110.633 226.743 110.554V110.431L226.859 109.701C226.859 109.697 227.466 107.261 227.574 106.943C227.576 106.93 227.576 106.917 227.574 106.905C226.394 106.905 226.182 106.905 226.17 106.885C226.17 106.913 226.132 107.064 226.132 107.064L225.512 109.822L225.459 110.055L225.356 110.819C225.349 111.016 225.395 111.212 225.489 111.386C225.77 111.88 226.576 111.954 227.032 111.954C227.557 111.971 228.077 111.849 228.54 111.602C229.187 111.218 229.356 110.62 229.506 110.087L230.308 106.934C230.31 106.923 230.314 106.913 230.318 106.902ZM232.448 108.948C232.214 108.952 231.984 109.006 231.773 109.107C231.682 109.151 231.598 109.207 231.509 109.26L231.589 108.965L231.545 108.916C231.02 109.022 230.91 109.037 230.418 109.107L230.378 109.132C230.305 109.719 230.197 110.301 230.054 110.874L229.809 111.895L229.832 111.937C230.329 111.912 230.479 111.912 230.91 111.918L230.946 111.88C231.001 111.598 231.008 111.532 231.13 110.961L231.365 109.883C231.462 109.828 231.569 109.794 231.68 109.784C231.923 109.784 231.892 109.996 231.892 110.081C231.892 110.221 231.794 110.685 231.703 111.082L231.642 111.339L231.513 111.899L231.53 111.937C231.882 111.916 232.235 111.909 232.587 111.918L232.638 111.88C232.712 111.439 232.735 111.322 232.868 110.681L232.936 110.386C233.067 109.809 233.133 109.516 233.033 109.279C232.984 109.168 232.9 109.076 232.795 109.017C232.689 108.957 232.568 108.933 232.448 108.948ZM234.824 109.55C234.564 109.601 234.401 109.635 234.232 109.656C234.063 109.678 233.909 109.707 233.657 109.741L233.638 109.76L233.619 109.773C233.594 109.962 233.575 110.125 233.541 110.316C233.507 110.507 233.467 110.741 233.393 111.061C233.364 111.205 233.324 111.347 233.272 111.485C233.22 111.62 233.177 111.759 233.141 111.899L233.158 111.92L233.171 111.941C233.405 111.941 233.558 111.922 233.716 111.92H234.291L234.313 111.901L234.338 111.882L234.401 111.498C234.423 111.392 234.463 111.224 234.556 110.8L234.695 110.2L234.841 109.599V109.576L234.824 109.55ZM234.824 108.738C234.674 108.672 234.509 108.647 234.346 108.664C234.183 108.681 234.028 108.74 233.894 108.835C233.615 109.024 233.583 109.294 233.82 109.436C233.97 109.5 234.134 109.525 234.296 109.507C234.458 109.49 234.613 109.431 234.746 109.336C235.027 109.143 235.063 108.876 234.829 108.738H234.824ZM236.256 111.982C236.503 111.992 236.75 111.951 236.98 111.86C237.211 111.769 237.42 111.632 237.594 111.456C237.821 111.167 237.978 110.829 238.053 110.469C238.201 109.832 238.085 109.521 237.941 109.336C237.73 109.056 237.338 108.967 236.939 108.967C236.476 108.948 236.023 109.104 235.67 109.404C235.384 109.705 235.196 110.086 235.129 110.497C235.038 110.893 234.934 111.604 235.588 111.869C235.803 111.947 236.031 111.985 236.26 111.982H236.256ZM236.218 110.526C236.328 110.036 236.459 109.625 236.791 109.625C237.051 109.625 237.07 109.93 236.956 110.422C236.913 110.664 236.83 110.896 236.71 111.11C236.679 111.168 236.635 111.218 236.58 111.255C236.525 111.292 236.463 111.315 236.397 111.322C236.361 111.322 236.154 111.322 236.15 111.012C236.156 110.848 236.18 110.685 236.222 110.526H236.218ZM239.25 111.918L239.286 111.88L239.466 110.961L239.702 109.883C239.801 109.828 239.909 109.794 240.022 109.784C240.261 109.784 240.233 109.996 240.233 110.081C240.187 110.418 240.125 110.752 240.045 111.082L239.992 111.339L239.859 111.899L239.876 111.937C240.368 111.912 240.51 111.912 240.933 111.918L240.984 111.88C241.058 111.439 241.079 111.322 241.216 110.681L241.282 110.386C241.413 109.809 241.481 109.516 241.383 109.279C241.332 109.168 241.248 109.077 241.142 109.018C241.036 108.958 240.914 108.934 240.793 108.948C240.561 108.952 240.331 109.006 240.121 109.107C240.03 109.153 239.942 109.204 239.857 109.26L239.933 108.967L239.893 108.916C239.368 109.024 239.248 109.037 238.764 109.107L238.728 109.132C238.656 109.719 238.55 110.3 238.41 110.874L238.167 111.895L238.188 111.937C238.675 111.912 238.823 111.912 239.254 111.918H239.25ZM242.859 111.937L243.071 110.889L243.236 110.208C243.263 110.17 243.296 110.138 243.335 110.113H243.407C244.09 110.113 244.86 110.113 245.464 109.665C245.885 109.343 246.175 108.88 246.283 108.36C246.318 108.211 246.336 108.057 246.338 107.904C246.348 107.698 246.291 107.495 246.175 107.325C245.866 106.9 245.253 106.883 244.544 106.881H242.777L242.741 107.066L242.415 108.579L241.603 111.939C242.403 111.922 242.726 111.922 242.863 111.937H242.859ZM243.46 109.255L243.804 107.753V107.617L243.942 107.632L244.669 107.694C244.95 107.804 245.067 108.084 244.986 108.451C244.955 108.61 244.889 108.759 244.793 108.89C244.697 109.02 244.574 109.127 244.432 109.204C244.178 109.307 243.904 109.35 243.631 109.33H243.445L243.46 109.255ZM245.61 110.554C245.519 110.944 245.414 111.657 246.065 111.912C246.248 111.992 246.447 112.027 246.646 112.016C246.854 111.994 247.048 111.904 247.2 111.761L247.154 111.939L247.183 111.978C247.651 111.956 247.797 111.956 248.304 111.961L248.348 111.927C248.422 111.49 248.492 111.065 248.685 110.229L248.968 109.035L248.953 108.992C248.566 109.065 248.178 109.128 247.788 109.181L247.75 109.213C247.75 109.253 247.739 109.291 247.733 109.33C247.648 109.191 247.519 109.085 247.367 109.028C247.143 108.939 246.619 109.054 246.166 109.465C245.876 109.763 245.684 110.143 245.614 110.554H245.61ZM246.708 110.577C246.82 110.098 246.949 109.69 247.283 109.69C247.494 109.69 247.604 109.886 247.581 110.219C247.563 110.308 247.543 110.397 247.522 110.486L247.416 110.91C247.387 110.999 247.345 111.083 247.293 111.161C247.243 111.22 247.18 111.267 247.111 111.301C247.041 111.335 246.965 111.355 246.887 111.358C246.853 111.358 246.648 111.358 246.64 111.055C246.646 110.893 246.67 110.733 246.712 110.577H246.708ZM252.444 108.99L252.404 108.943C251.886 109.05 251.793 109.064 251.317 109.13L251.283 109.164V109.187C250.93 110.006 250.941 109.824 250.649 110.475V110.397L250.564 108.99L250.518 108.943C249.977 109.05 249.964 109.064 249.461 109.13L249.423 109.164C249.42 109.182 249.42 109.201 249.423 109.219C249.474 109.469 249.511 109.721 249.533 109.975L249.632 110.717L249.767 111.958C249.431 112.519 249.344 112.731 249.025 113.231L248.795 113.594C248.776 113.628 248.747 113.655 248.712 113.671C248.664 113.688 248.613 113.695 248.562 113.692H248.45L248.262 114.328H248.909C249.061 114.336 249.212 114.301 249.345 114.225C249.477 114.15 249.586 114.039 249.657 113.904L250.063 113.204L250.106 113.155C250.366 112.576 252.448 108.99 252.448 108.99H252.444ZM245.61 117.265H245.335L246.352 113.891H246.689L246.796 113.543L246.807 113.929C246.794 114.169 246.982 114.381 247.473 114.354H248.044L248.238 113.705H248.027C247.904 113.705 247.847 113.673 247.854 113.607L247.843 113.212H246.786C246.263 113.215 245.741 113.245 245.221 113.301C245.038 113.359 244.865 113.445 244.709 113.556L244.811 113.208H243.826L243.614 113.898L242.584 117.324H242.384L242.187 117.961H244.151L244.086 118.173H245.067L245.13 117.961H245.401L245.61 117.265ZM244.809 114.572C244.655 114.623 244.504 114.682 244.356 114.748L244.618 113.887H245.401L245.213 114.524C245.077 114.529 244.942 114.546 244.809 114.572ZM244.824 115.805C244.824 115.805 244.578 115.835 244.416 115.873C244.258 115.934 244.105 116.005 243.957 116.085L244.221 115.179H245.008L244.824 115.805ZM244.386 117.269H243.599L243.828 116.512H244.61L244.386 117.269ZM246.276 115.177H247.41L247.247 115.705H246.099L245.927 116.285H246.932L246.171 117.358C246.134 117.417 246.08 117.462 246.016 117.488C245.951 117.523 245.879 117.543 245.805 117.545H245.526L245.335 118.181H246.063C246.214 118.186 246.364 118.152 246.499 118.081C246.633 118.011 246.747 117.908 246.83 117.78L247.352 117.065L247.465 117.793C247.474 117.846 247.496 117.896 247.528 117.939C247.561 117.981 247.603 118.016 247.651 118.039C247.727 118.093 247.815 118.13 247.906 118.147C248.021 118.147 248.103 118.158 248.158 118.158H248.515L248.727 117.449H248.585C248.502 117.453 248.418 117.44 248.34 117.409C248.318 117.362 248.306 117.311 248.304 117.258L248.19 116.529H247.725L247.936 116.287H249.084L249.26 115.707H248.203L248.367 115.179H249.425L249.621 114.526H246.471L246.276 115.177ZM236.71 117.418L236.975 116.535H238.062L238.26 115.877H237.173L237.338 115.334H238.396L238.592 114.698H235.941L235.746 115.334H236.351L236.186 115.879H235.579L235.368 116.548H235.972L235.619 117.715C235.603 117.764 235.601 117.817 235.613 117.867C235.625 117.918 235.651 117.964 235.687 118.001C235.707 118.037 235.735 118.069 235.769 118.093C235.803 118.118 235.841 118.135 235.882 118.143C235.981 118.168 236.083 118.18 236.186 118.179H237.41L237.622 117.452L237.078 117.526C236.97 117.528 236.679 117.515 236.71 117.42V117.418ZM236.835 113.193L236.56 113.692C236.523 113.773 236.469 113.846 236.402 113.904C236.323 113.936 236.239 113.949 236.154 113.942H236.011L235.82 114.579H236.296C236.467 114.576 236.635 114.532 236.786 114.451C236.877 114.403 236.901 114.43 236.97 114.362L237.131 114.222H238.622L238.818 113.558H237.727L237.918 113.195L236.835 113.193ZM239.036 117.437C239.011 117.398 239.036 117.335 239.068 117.199L239.474 115.845H240.922C241.134 115.845 241.286 115.845 241.385 115.833C241.508 115.817 241.627 115.777 241.734 115.716C241.838 115.661 241.925 115.58 241.988 115.48C242.1 115.305 242.184 115.113 242.238 114.912L242.741 113.2H241.237C241.012 113.231 240.79 113.279 240.571 113.344C240.393 113.431 240.225 113.539 240.07 113.664L240.208 113.193H239.279L237.979 117.519C237.942 117.639 237.914 117.761 237.894 117.884C237.894 117.963 237.994 118.041 238.059 118.097C238.153 118.144 238.258 118.164 238.362 118.156C238.478 118.156 238.643 118.171 238.871 118.171H239.584L239.795 117.428L239.161 117.49C239.137 117.489 239.114 117.484 239.093 117.474C239.071 117.464 239.052 117.45 239.036 117.432V117.437ZM239.736 114.935H241.261L241.163 115.239C241.097 115.232 241.029 115.232 240.963 115.239H239.645L239.736 114.935ZM240.043 113.915H241.576L241.472 114.275C241.472 114.275 240.749 114.275 240.626 114.29C240.33 114.338 240.052 114.463 239.819 114.653L240.043 113.915ZM241.195 116.249C241.188 116.286 241.167 116.319 241.136 116.342C241.087 116.365 241.033 116.375 240.98 116.369H240.768L240.781 116H239.878L239.842 117.81C239.842 117.942 239.842 118.022 239.948 118.077C240.053 118.133 240.337 118.162 240.732 118.162H241.297L241.508 117.485L241.015 117.511H240.853C240.827 117.502 240.804 117.487 240.785 117.469C240.764 117.447 240.73 117.468 240.734 117.331V116.866L241.25 116.845C241.341 116.851 241.432 116.838 241.518 116.808C241.604 116.777 241.683 116.729 241.749 116.666C241.836 116.585 241.894 116.477 241.914 116.359L242.001 115.947H241.292L241.195 116.249Z" fill="#FEFEFE"/>
<defs>
<linearGradient id="paint0_linear_890_2484" x1="-15302.2" y1="6466.02" x2="61816.1" y2="6466.02" gradientUnits="userSpaceOnUse">
<stop stop-color="#007940"/>
<stop offset="0.2285" stop-color="#00873F"/>
<stop offset="0.7433" stop-color="#40A737"/>
<stop offset="1" stop-color="#5CB531"/>
</linearGradient>
<linearGradient id="paint1_linear_890_2484" x1="48.5494" y1="6444.84" x2="26672.7" y2="6444.84" gradientUnits="userSpaceOnUse">
<stop stop-color="#007940"/>
<stop offset="0.2285" stop-color="#00873F"/>
<stop offset="0.7433" stop-color="#40A737"/>
<stop offset="1" stop-color="#5CB531"/>
</linearGradient>
<linearGradient id="paint2_linear_890_2484" x1="-16705.2" y1="6431.66" x2="67476.6" y2="6431.66" gradientUnits="userSpaceOnUse">
<stop stop-color="#007940"/>
<stop offset="0.2285" stop-color="#00873F"/>
<stop offset="0.7433" stop-color="#40A737"/>
<stop offset="1" stop-color="#5CB531"/>
</linearGradient>
<linearGradient id="paint3_linear_890_2484" x1="46.6981" y1="6450.75" x2="27081" y2="6450.75" gradientUnits="userSpaceOnUse">
<stop stop-color="#1F286F"/>
<stop offset="0.4751" stop-color="#004E94"/>
<stop offset="0.8261" stop-color="#0066B1"/>
<stop offset="1" stop-color="#006FBC"/>
</linearGradient>
<linearGradient id="paint4_linear_890_2484" x1="-153.178" y1="6438.93" x2="26103.4" y2="6438.93" gradientUnits="userSpaceOnUse">
<stop stop-color="#6C2C2F"/>
<stop offset="0.1735" stop-color="#882730"/>
<stop offset="0.5731" stop-color="#BE1833"/>
<stop offset="0.8585" stop-color="#DC0436"/>
<stop offset="1" stop-color="#E60039"/>
</linearGradient>
</defs>
</svg>
