<svg width="27" height="31" viewBox="0 0 27 31" fill="none" xmlns="http://www.w3.org/2000/svg">
<path d="M11.0773 12.0039L16.7023 15.168L11.0773 18.332V12.0039ZM26.4289 4.79688V25.4219C26.4289 27.0039 25.1398 28.2344 23.6164 28.2344H2.99141C1.40938 28.2344 0.178906 27.0039 0.178906 25.4219V4.79688C0.178906 3.27344 1.40938 1.98438 2.99141 1.98438H23.6164C25.1398 1.98438 26.4289 3.27344 26.4289 4.79688ZM23.968 15.168C23.968 15.168 23.968 11.6523 23.4992 10.0117C23.2648 9.07422 22.5031 8.3125 21.6242 8.07812C19.925 7.60938 13.3039 7.60938 13.3039 7.60938C13.3039 7.60938 6.62422 7.60938 4.925 8.07812C4.04609 8.3125 3.28438 9.07422 3.05 10.0117C2.63984 11.6523 2.63984 15.168 2.63984 15.168C2.63984 15.168 2.63984 18.625 3.05 20.3242C3.28438 21.2617 4.04609 21.9648 4.925 22.1992C6.62422 22.6094 13.3039 22.6094 13.3039 22.6094C13.3039 22.6094 19.925 22.6094 21.6242 22.1992C22.5031 21.9648 23.2648 21.2617 23.4992 20.3242C23.968 18.625 23.968 15.168 23.968 15.168Z" fill="#FF7801"/>
</svg>
