<svg width="36" height="28" viewBox="0 0 36 28" fill="none" xmlns="http://www.w3.org/2000/svg">
<path d="M29.8602 3.21094C33.7273 8.95312 35.6609 15.3984 34.9578 22.8398C34.9578 22.8398 34.9578 22.8984 34.8992 22.8984C32.3211 24.832 29.3914 26.2969 26.2859 27.2344C26.2273 27.2344 26.1688 27.2344 26.1688 27.2344C25.5242 26.2969 24.9383 25.3594 24.4109 24.3633V24.3047C24.4109 24.2461 24.4109 24.2461 24.4695 24.1875C25.407 23.8359 26.2859 23.4258 27.1648 22.8984C27.2234 22.8984 27.2234 22.8984 27.2234 22.8398C27.2234 22.7812 27.2234 22.7812 27.1648 22.7227C26.9891 22.6055 26.8133 22.4883 26.6375 22.3125H26.5789H26.5203C20.9539 24.8906 14.8602 24.8906 9.23516 22.3125C9.17656 22.3125 9.17656 22.3125 9.17656 22.3125C9.11797 22.3125 9.11797 22.3125 9.11797 22.3125C8.94219 22.4883 8.76641 22.6055 8.59063 22.7227C8.53203 22.7812 8.53203 22.7812 8.53203 22.8398C8.53203 22.8984 8.53203 22.8984 8.59063 22.8984C9.41094 23.4258 10.3484 23.8359 11.2859 24.1875C11.2859 24.2461 11.3445 24.2461 11.3445 24.3047V24.3633C10.8172 25.3594 10.2313 26.2969 9.58672 27.2344C9.52813 27.2344 9.52813 27.2344 9.46953 27.2344C6.30547 26.2969 3.37578 24.832 0.856251 22.8984C0.797657 22.8984 0.797657 22.8398 0.797657 22.8398C0.21172 16.3945 1.44219 9.89062 5.89531 3.21094C5.89531 3.21094 5.89531 3.21094 5.95391 3.21094C8.12188 2.21484 10.5242 1.45312 12.9266 1.04297C12.9266 1.04297 12.9266 1.04297 12.9852 1.04297H13.0438C13.3953 1.62891 13.6883 2.27344 13.9227 2.85938C15.2117 2.68359 16.5008 2.56641 17.8484 2.56641C19.1961 2.56641 20.5438 2.68359 21.8328 2.85938C22.0672 2.27344 22.3602 1.62891 22.7117 1.04297L22.7703 0.984375C22.7703 0.984375 22.7703 1.04297 22.8289 1.04297C25.2313 1.45312 27.6336 2.21484 29.8016 3.21094C29.8602 3.21094 29.8602 3.21094 29.8602 3.21094ZM12.1648 18.9141C13.8641 18.9141 15.2703 17.332 15.2703 15.457C15.2703 13.5234 13.9227 12 12.1648 12C10.4656 12 9.05938 13.5234 9.05938 15.457C9.05938 17.332 10.4656 18.9141 12.1648 18.9141ZM23.5906 18.9141C25.3484 18.9141 26.6961 17.332 26.6961 15.457C26.7547 13.5234 25.3484 12 23.5906 12C21.8914 12 20.5438 13.5234 20.5438 15.457C20.5438 17.332 21.8914 18.9141 23.5906 18.9141Z" fill="#FF7801"/>
</svg>
