<svg width="27" height="31" viewBox="0 0 27 31" fill="none" xmlns="http://www.w3.org/2000/svg">
<path d="M26.2434 12.7734H26.1848C23.4895 12.7734 21.0285 11.9531 19.0363 10.4883V20.9766C19.0363 26.25 14.759 30.4688 9.48555 30.4688C4.21211 30.4688 -0.00664043 26.25 -0.00664043 20.9766C-0.00664043 15.7031 4.21211 11.4258 9.48555 11.4258C9.9543 11.4258 10.3645 11.4844 10.8332 11.543V16.8164C10.3645 16.6406 9.9543 16.582 9.48555 16.582C7.0832 16.582 5.09102 18.5742 5.09102 20.9766C5.09102 23.3789 7.0832 25.3711 9.48555 25.3711C11.8879 25.3711 13.8801 23.3789 13.8801 20.9766V0.46875H19.0363C19.0363 0.527344 19.0363 0.527344 19.0363 0.585938C19.0363 0.996094 19.0363 1.40625 19.1535 1.81641C19.5051 3.75 20.677 5.44922 22.3176 6.50391C23.4309 7.26562 24.7785 7.67578 26.1848 7.67578C26.1848 7.67578 26.1848 7.67578 26.2434 7.67578V12.7734Z" fill="#FF7801"/>
</svg>
