<svg width="27" height="31" viewBox="0 0 27 31" fill="none" xmlns="http://www.w3.org/2000/svg">
<path d="M23.6164 1.98438C25.1398 1.98438 26.4289 3.27344 26.4289 4.79688V25.4219C26.4289 27.0039 25.1398 28.2344 23.6164 28.2344H15.5305V19.3281H18.9289L19.5734 15.1094H15.5305V12.4141C15.5305 11.2422 16.1164 10.1289 17.9328 10.1289H19.7492V6.55469C19.7492 6.55469 18.1086 6.26172 16.468 6.26172C13.1867 6.26172 11.0188 8.3125 11.0188 11.9453V15.1094H7.32734V19.3281H11.0188V28.2344H2.99141C1.40938 28.2344 0.178906 27.0039 0.178906 25.4219V4.79688C0.178906 3.27344 1.40938 1.98438 2.99141 1.98438H23.6164Z" fill="#FF7801"/>
</svg>
