<svg width="27" height="31" viewBox="0 0 27 31" fill="none" xmlns="http://www.w3.org/2000/svg">
<path d="M13.3039 12.0039C15.0031 12.0039 16.4094 13.4102 16.4094 15.1094C16.4094 16.8672 15.0031 18.2734 13.3039 18.2734C11.5461 18.2734 10.1398 16.8672 10.1398 15.1094C10.1398 13.4102 11.5461 12.0039 13.3039 12.0039ZM20.5695 9.60156C21.0969 10.832 20.9797 13.7617 20.9797 15.1094C20.9797 16.5156 21.0969 19.4453 20.5695 20.6758C20.2766 21.4961 19.632 22.1406 18.8117 22.4336C17.5813 22.9609 14.6516 22.8438 13.3039 22.8438C11.8977 22.8438 8.96797 22.9609 7.7375 22.4336C6.91719 22.1406 6.27266 21.4961 5.97969 20.6758C5.51094 19.4453 5.56953 16.5156 5.56953 15.1094C5.56953 13.7617 5.51094 10.832 5.97969 9.60156C6.27266 8.78125 6.91719 8.13672 7.7375 7.84375C8.96797 7.31641 11.8977 7.43359 13.3039 7.43359C14.6516 7.43359 17.5813 7.31641 18.8117 7.84375C19.632 8.13672 20.2766 8.78125 20.5695 9.60156ZM13.3039 19.9141V19.9727C15.9406 19.9727 18.1086 17.8047 18.1086 15.168V15.1094C18.1086 12.4727 15.9406 10.3047 13.3039 10.3047C10.6086 10.3047 8.49922 12.4727 8.49922 15.1094C8.49922 17.8047 10.6086 19.9141 13.3039 19.9141ZM18.2844 11.2422C18.8703 11.2422 19.3977 10.7734 19.3977 10.1289C19.3977 9.48438 18.8703 9.01562 18.2844 9.01562C17.6398 9.01562 17.1711 9.48438 17.1711 10.1289C17.1711 10.7734 17.6398 11.2422 18.2844 11.2422ZM23.6164 1.98438C25.1398 1.98438 26.4289 3.27344 26.4289 4.79688V25.4219C26.4289 27.0039 25.1398 28.2344 23.6164 28.2344H2.99141C1.40938 28.2344 0.178906 27.0039 0.178906 25.4219V4.79688C0.178906 3.27344 1.40938 1.98438 2.99141 1.98438H23.6164ZM22.5617 18.9766C22.6789 17.4531 22.6789 12.8242 22.5617 11.3008C22.5031 9.77734 22.1516 8.42969 21.0969 7.375C19.9836 6.26172 18.6359 5.91016 17.1711 5.85156C15.5891 5.73438 10.9602 5.73438 9.43672 5.85156C7.91328 5.91016 6.56563 6.26172 5.51094 7.31641C4.39766 8.42969 4.04609 9.77734 3.9875 11.2422C3.87031 12.8242 3.87031 17.4531 3.9875 18.9766C4.04609 20.5 4.39766 21.8477 5.51094 22.9023C6.56563 24.0156 7.91328 24.3672 9.43672 24.4258C10.9602 24.543 15.5891 24.543 17.1711 24.4258C18.6359 24.3672 19.9836 24.0156 21.0969 22.9023C22.1516 21.8477 22.5031 20.5 22.5617 18.9766Z" fill="#FF7801"/>
</svg>
