<svg width="27" height="31" viewBox="0 0 27 31" fill="none" xmlns="http://www.w3.org/2000/svg">
<path d="M23.6164 1.98438C25.1398 1.98438 26.4289 3.27344 26.4289 4.79688V25.4219C26.4289 27.0039 25.1398 28.2344 23.6164 28.2344H2.99141C1.40938 28.2344 0.178906 27.0039 0.178906 25.4219V4.79688C0.178906 3.27344 1.40938 1.98438 2.99141 1.98438H23.6164ZM20.7453 11.3008C21.4484 10.7734 22.1516 10.0703 22.6789 9.30859C21.9758 9.60156 21.2141 9.83594 20.4523 9.89453C21.2141 9.42578 21.8586 8.72266 22.1516 7.78516C21.3898 8.25391 20.5695 8.54688 19.6906 8.72266C18.9875 7.96094 17.9914 7.49219 16.8781 7.49219C14.5344 7.49219 12.6008 9.66016 13.1281 12.2383C9.96406 12.0625 7.09297 10.5391 5.21797 8.19531C4.86641 8.78125 4.69063 9.42578 4.69063 10.1875C4.69063 11.4766 5.33516 12.6484 6.38984 13.3516C5.74531 13.3516 5.15938 13.1758 4.69063 12.8828V12.9414C4.69063 14.8164 5.97969 16.3398 7.7375 16.6914C7.15156 16.8672 6.62422 16.8672 5.97969 16.75C6.50703 18.2734 7.91328 19.3867 9.6125 19.4453C8.26484 20.4414 6.62422 21.0859 4.80781 21.0859C4.51484 21.0859 4.22188 21.0859 3.92891 21.0273C5.62813 22.1406 7.62031 22.7266 9.78828 22.7266C16.8781 22.7266 20.7453 16.8672 20.7453 11.8281C20.7453 11.6523 20.7453 11.4766 20.7453 11.3008Z" fill="#FF7801"/>
</svg>
