<svg width="27" height="28" viewBox="0 0 27 28" fill="none" xmlns="http://www.w3.org/2000/svg">
<path d="M24.5539 0.984375C25.55 0.984375 26.4289 1.86328 26.4289 2.91797V25.3594C26.4289 26.4141 25.55 27.2344 24.5539 27.2344H1.99531C0.999219 27.2344 0.178906 26.4141 0.178906 25.3594V2.91797C0.178906 1.86328 0.999219 0.984375 1.99531 0.984375H24.5539ZM8.08906 23.4844V11.0039H4.22188V23.4844H8.08906ZM6.15547 9.24609C7.38594 9.24609 8.38203 8.25 8.38203 7.01953C8.38203 5.78906 7.38594 4.73438 6.15547 4.73438C4.86641 4.73438 3.87031 5.78906 3.87031 7.01953C3.87031 8.25 4.86641 9.24609 6.15547 9.24609ZM22.6789 23.4844V16.6289C22.6789 13.2891 21.9172 10.6523 17.9914 10.6523C16.1164 10.6523 14.8273 11.707 14.3 12.7031H14.2414V11.0039H10.55V23.4844H14.4172V17.332C14.4172 15.6914 14.7102 14.1094 16.7609 14.1094C18.7531 14.1094 18.7531 15.9844 18.7531 17.3906V23.4844H22.6789Z" fill="#FF7801"/>
</svg>
