<svg width="240" height="28" viewBox="0 0 240 28" fill="none" xmlns="http://www.w3.org/2000/svg">
<g clip-path="url(#clip0_890_2442)">
<g clip-path="url(#clip1_890_2442)">
<g clip-path="url(#clip2_890_2442)">
<path d="M126.66 6.71094H147.911V27.9615H126.66V6.71094ZM149.688 6.71094H170.938V27.9615H149.688V6.71094ZM172.705 6.71094H193.956V27.9615H172.705V6.71094ZM195.732 6.71094H216.983V27.9615H195.732V6.71094ZM218.75 6.71094H240V27.9615H218.75V6.71094Z" fill="#00B67A"/>
<path d="M137.291 21.0337L140.523 20.2106L141.878 24.3764L137.291 21.0337ZM144.729 15.6533H139.037L137.291 10.293L135.544 15.6533H129.853L134.46 18.9759L132.713 24.3362L137.321 21.0136L140.152 18.9759L144.729 15.6533ZM160.308 21.0337L163.54 20.2106L164.895 24.3764L160.308 21.0337ZM167.746 15.6533H162.055L160.308 10.293L158.561 15.6533H152.87L157.477 18.9759L155.731 24.3362L160.338 21.0136L163.169 18.9759L167.746 15.6533ZM183.335 21.0337L186.568 20.2106L187.923 24.3764L183.335 21.0337ZM190.774 15.6533H185.082L183.335 10.293L181.589 15.6533H175.897L180.505 18.9759L178.758 24.3362L183.355 21.0136L186.186 18.9759L190.774 15.6533ZM206.353 21.0337L209.585 20.2106L210.94 24.3764L206.353 21.0337ZM213.791 15.6533H208.099L206.353 10.293L204.606 15.6533H198.914L203.522 18.9759L201.775 24.3362L206.383 21.0136L209.213 18.9759L213.791 15.6533ZM229.38 21.0337L232.612 20.2106L233.967 24.3764L229.38 21.0337ZM236.818 15.6533H231.127L229.38 10.293L227.633 15.6533H221.942L226.549 18.9759L224.803 24.3362L229.41 21.0136L232.241 18.9759L236.818 15.6533Z" fill="white"/>
<path d="M126.66 6.71094H147.912V27.9625H126.66V6.71094ZM149.683 6.71094H170.934V27.9625H149.683V6.71094ZM172.705 6.71094H193.957V27.9625H172.705V6.71094ZM195.727 6.71094H216.979V27.9625H195.727V6.71094Z" fill="#00B67A"/>
<path d="M229.375 6.71094H240V27.9625H229.375V6.71094Z" fill="#DCDCE6"/>
<path d="M218.749 6.71094H229.374V27.9625H218.749V6.71094Z" fill="#00B67A"/>
<path d="M137.286 21.0318L140.518 20.2137L141.868 24.3745L137.286 21.0318ZM144.724 15.6534H139.034L137.286 10.2961L135.537 15.6534H129.852L134.457 18.974L132.703 24.3273L137.308 21.0147L140.141 18.979L144.724 15.6584V15.6534ZM160.308 21.0318L163.54 20.2137L164.89 24.3745L160.308 21.0318ZM167.746 15.6534H162.057L160.308 10.2961L158.561 15.6534H152.87L157.474 18.974L155.726 24.3273L160.33 21.0147L163.164 18.979L167.746 15.6584V15.6534ZM183.33 21.0318L186.567 20.2117L187.918 24.3725L183.33 21.0318ZM190.768 15.6534H185.079L183.33 10.2961L181.582 15.6534H175.892L180.496 18.974L178.748 24.3273L186.189 18.979L190.771 15.6584L190.768 15.6534ZM206.352 21.0318L209.585 20.2137L210.935 24.3745L206.352 21.0318ZM213.791 15.6534H208.101L206.352 10.2961L204.604 15.6534H198.914L203.519 18.974L201.77 24.3273L206.375 21.0147L209.208 18.979L213.791 15.6584V15.6534ZM229.375 21.0318L232.606 20.2137L233.957 24.3745L229.375 21.0318ZM236.812 15.6534H231.123L229.375 10.2961L227.623 15.6534H221.934L226.538 18.974L224.792 24.3273L229.397 21.0147L232.23 18.979L236.812 15.6584V15.6534ZM29.8733 9.92969H41.382V12.0808H36.8568V24.1486H34.3684V12.0808H29.8623V9.92969H29.8733ZM40.8921 13.8526H43.0232V15.8391H43.0634C43.14 15.5456 43.2729 15.2698 43.4548 15.027C43.6511 14.7554 43.8838 14.5122 44.1465 14.3043C44.4208 14.0849 44.725 13.9057 45.0499 13.7723C45.3722 13.6422 45.7162 13.5741 46.0637 13.5715L46.6158 13.5916L46.926 13.6317V15.819L46.4351 15.7488C46.2719 15.729 46.1077 15.719 45.9433 15.7186C45.5697 15.7186 45.2003 15.7973 44.8592 15.9495C44.5181 16.1044 44.2165 16.3343 43.9768 16.6221C43.7094 16.9496 43.5052 17.3241 43.3745 17.7263C43.2182 18.2156 43.1435 18.7274 43.1537 19.241V24.1386H40.8811V13.8526H40.8921ZM57.3475 24.1486H55.1201V22.7132H55.0799C54.7943 23.2398 54.3619 23.6722 53.8352 23.9579C53.3238 24.2583 52.7429 24.4202 52.1498 24.4277C50.7947 24.4277 49.8109 24.0974 49.2097 23.4239C48.6084 22.7503 48.3062 21.7375 48.3062 20.3833V13.8526H50.5738V20.1645C50.5738 21.0679 50.7445 21.7094 51.0958 22.0808C51.4471 22.4522 51.929 22.6429 52.5513 22.6429C52.9606 22.6578 53.3681 22.5824 53.7449 22.4221C54.0471 22.2908 54.3124 22.0875 54.5178 21.8298C54.7244 21.5707 54.8717 21.2696 54.9494 20.9475C55.0408 20.5832 55.0847 20.2087 55.0799 19.8332V13.8626H57.3475V24.1486ZM61.2102 20.8471C61.2804 21.5086 61.5314 21.9703 61.963 22.2414C62.4421 22.516 62.9869 22.6548 63.539 22.6429C63.7803 22.6391 64.0212 22.6224 64.2607 22.5927C64.5222 22.5625 64.7787 22.4984 65.0236 22.402C65.2522 22.3162 65.4558 22.1748 65.6159 21.9904C65.7729 21.7915 65.8483 21.5403 65.8267 21.2878C65.8255 21.1532 65.7964 21.0203 65.7411 20.8976C65.6858 20.7749 65.6055 20.6651 65.5055 20.5751C65.2835 20.3756 65.0242 20.2221 64.7426 20.1233C64.3956 20.001 64.0404 19.9037 63.6795 19.8322L62.4649 19.5712C62.0507 19.4801 61.6419 19.3662 61.2403 19.23C60.8628 19.1062 60.5073 18.9233 60.1873 18.6879C59.8734 18.465 59.6184 18.1691 59.4445 17.8256C59.2537 17.4743 59.1634 17.0427 59.1634 16.5207C59.1473 16.0203 59.2915 15.528 59.575 15.1153C59.8471 14.7375 60.2004 14.4254 60.6089 14.2019C61.0454 13.9667 61.5157 13.8008 62.0032 13.71C62.4867 13.6209 62.9771 13.5738 63.4687 13.5695C63.9818 13.5689 64.4933 13.6261 64.9935 13.7401C65.4618 13.8425 65.9075 14.0296 66.3085 14.2922C66.6996 14.5465 67.0314 14.882 67.2812 15.276C67.5549 15.7201 67.7232 16.2211 67.773 16.7405H65.4081C65.2977 16.1985 65.0568 15.827 64.6653 15.6474C64.2446 15.4523 63.7848 15.3562 63.3212 15.3663C63.1298 15.3667 62.9386 15.3801 62.749 15.4065C62.5369 15.4353 62.3284 15.4857 62.1266 15.557C61.9411 15.6263 61.7732 15.7356 61.6348 15.8772C61.4981 16.0278 61.426 16.2261 61.434 16.4293C61.4299 16.556 61.4538 16.682 61.5042 16.7982C61.5545 16.9145 61.63 17.0182 61.7251 17.1019C61.9482 17.2897 62.2032 17.4359 62.478 17.5335C62.8252 17.656 63.1808 17.7533 63.542 17.8246L64.7757 18.0856C65.1973 18.176 65.5888 18.2964 65.9903 18.4269C66.3721 18.5473 66.7313 18.7301 67.0533 18.968C67.3626 19.195 67.6194 19.486 67.8062 19.8212C68.0102 20.2144 68.1104 20.6532 68.0973 21.096C68.1138 21.6446 67.967 22.1858 67.6757 22.6509C67.3974 23.073 67.0271 23.4265 66.5926 23.6848C66.1312 23.9558 65.6297 24.152 65.1069 24.266C64.5768 24.385 64.0352 24.4456 63.4918 24.4467C62.8824 24.4538 62.2748 24.3795 61.685 24.2259C61.1706 24.0943 60.6845 23.8702 60.2505 23.5644C59.8528 23.2696 59.5268 22.8887 59.2969 22.4502C59.0556 21.9564 58.9286 21.4147 58.9255 20.8652H61.2132L61.2102 20.8471ZM68.6966 13.8526H70.4121V10.7618H72.6797V13.8526H74.7274V15.549H72.6797V21.0478C72.6782 21.2554 72.6882 21.4628 72.7098 21.6692C72.726 21.8245 72.7738 21.9748 72.8503 22.1109C72.9266 22.2364 73.0434 22.332 73.1816 22.3819C73.3748 22.4499 73.5792 22.4805 73.7838 22.4722C73.9445 22.4722 74.1051 22.4722 74.2657 22.4622C74.4281 22.4536 74.5894 22.4301 74.7475 22.3919V24.1486L74.0147 24.2279C73.7715 24.2566 73.5268 24.27 73.2819 24.2681C72.7948 24.2806 72.3084 24.2235 71.8375 24.0984C71.5132 24.0105 71.2186 23.8372 70.9842 23.5965C70.7721 23.3651 70.6264 23.0807 70.5626 22.7734C70.4843 22.4001 70.4406 22.0204 70.4321 21.6391V15.5691H68.7206V13.8526H68.6966ZM76.3325 13.8526H78.4796V15.2479H78.5198C78.8063 14.6806 79.277 14.2275 79.8549 13.963C80.4377 13.6989 81.0711 13.5653 81.7109 13.5715C82.524 13.5715 83.2266 13.712 83.8289 14.0031C84.4154 14.2721 84.931 14.6742 85.3346 15.1776C85.742 15.6965 86.0454 16.2892 86.228 16.9232C86.4325 17.6135 86.534 18.3303 86.5292 19.0503C86.5313 19.7287 86.4401 20.4043 86.2581 21.0579C86.0921 21.6769 85.8167 22.2613 85.4451 22.7834C85.082 23.2834 84.6078 23.6924 84.0598 23.978C83.4485 24.2905 82.7687 24.4451 82.0823 24.4277C81.749 24.4275 81.4164 24.3972 81.0885 24.3373C80.761 24.2771 80.4414 24.1798 80.1359 24.0472C79.8317 23.9179 79.5478 23.7455 79.2927 23.5353C79.0394 23.3293 78.8194 23.0855 78.6403 22.8125H78.6001V27.951H76.3325V13.8526ZM84.2626 19.0101C84.2631 18.5527 84.2023 18.0973 84.0819 17.656C83.9717 17.2389 83.7885 16.8447 83.5408 16.4916C83.3067 16.158 83.0016 15.8803 82.6475 15.6785C82.2693 15.4709 81.8441 15.3641 81.4128 15.3683C80.4602 15.3683 79.7374 15.6986 79.2556 16.3611C78.7738 17.0236 78.5328 17.9069 78.5328 19.0101C78.5267 19.4986 78.5909 19.9854 78.7236 20.4556C78.8358 20.8712 79.0303 21.26 79.2957 21.5989C79.5382 21.913 79.8466 22.17 80.1992 22.3518C80.5962 22.5434 81.0325 22.6395 81.4732 22.6325C81.914 22.6256 82.347 22.5157 82.7378 22.3116C83.089 22.1054 83.3906 21.8243 83.6211 21.4885C83.8582 21.1383 84.0284 20.7473 84.123 20.3351C84.2143 19.8984 84.2601 19.4533 84.2596 19.0071L84.2626 19.0101ZM88.2668 9.92969H90.5344V12.0808H88.2637L88.2668 9.92969ZM88.2668 13.8526H90.5344V24.1486H88.2637L88.2668 13.8526ZM92.561 9.92969H94.8296V24.1486H92.561V9.92969ZM101.78 24.4277C101.027 24.4393 100.28 24.2997 99.5827 24.0171C98.9658 23.7593 98.409 23.3765 97.9475 22.8928C97.4956 22.3965 97.1505 21.8126 96.9336 21.1773C96.6945 20.4728 96.5757 19.733 96.5823 18.989C96.5765 18.252 96.6953 17.5193 96.9336 16.8218C97.1503 16.1865 97.4954 15.6025 97.9475 15.1063C98.4051 14.6195 98.963 14.2379 99.5827 13.9881C100.996 13.4394 102.564 13.4394 103.977 13.9881C104.599 14.2398 105.158 14.6244 105.616 15.1149C106.074 15.6055 106.418 16.1901 106.626 16.8278C106.865 17.5253 106.983 18.258 106.978 18.9951C106.984 19.739 106.866 20.4788 106.626 21.1834C106.41 21.8187 106.065 22.4027 105.614 22.8989C105.156 23.3877 104.598 23.7713 103.977 24.0231C103.279 24.3036 102.532 24.4412 101.78 24.4277ZM101.78 22.6319C102.239 22.6413 102.692 22.5306 103.095 22.3106C103.457 22.1045 103.769 21.8198 104.007 21.4775C104.251 21.1233 104.431 20.7297 104.539 20.3141C104.767 19.4491 104.767 18.54 104.539 17.6751C104.437 17.257 104.256 16.862 104.007 16.5106C103.769 16.1713 103.457 15.89 103.095 15.6875C102.689 15.4771 102.238 15.3673 101.781 15.3673C101.323 15.3673 100.872 15.4771 100.466 15.6875C100.106 15.893 99.7943 16.1738 99.5526 16.5106C99.3078 16.8643 99.1276 17.2585 99.0205 17.6751C98.793 18.54 98.793 19.4491 99.0205 20.3141C99.1252 20.7312 99.3055 21.1255 99.5526 21.4775C99.7911 21.8198 100.103 22.1045 100.466 22.3106C100.867 22.5355 101.321 22.6469 101.78 22.6329V22.6319ZM107.64 13.8516H109.357V10.7618H111.624V13.8526H113.671V15.549H111.624V21.0478C111.623 21.2554 111.633 21.4628 111.654 21.6692C111.671 21.8245 111.718 21.9748 111.795 22.1109C111.871 22.2364 111.988 22.332 112.126 22.3819C112.319 22.45 112.524 22.4807 112.729 22.4722C112.889 22.4722 113.05 22.4722 113.21 22.4622C113.373 22.4536 113.534 22.4301 113.692 22.3919V24.1486L112.959 24.2279C112.717 24.2565 112.472 24.2699 112.228 24.2681C111.74 24.2806 111.253 24.2235 110.782 24.0984C110.458 24.0105 110.163 23.8372 109.929 23.5965C109.717 23.3651 109.571 23.0807 109.507 22.7734C109.43 22.4 109.386 22.0203 109.378 21.6391V15.5691H107.661V13.8526L107.64 13.8516Z" fill="white"/>
<path d="M27.2233 9.92867H16.8279L13.6168 0.0351562L10.3955 9.92867L0.00012207 9.91964L8.41904 16.0398L5.19783 25.9243L13.6168 19.8131L22.0256 25.9243L18.8145 16.0398L27.2233 9.92867Z" fill="#00B67A"/>
<path d="M19.5371 18.2776L18.8144 16.0391L13.6167 19.8124L19.5371 18.2776Z" fill="#005128"/>
</g>
</g>
</g>
<defs>
<clipPath id="clip0_890_2442">
<rect width="240" height="28" fill="white"/>
</clipPath>
<clipPath id="clip1_890_2442">
<rect width="240" height="28" fill="white"/>
</clipPath>
<clipPath id="clip2_890_2442">
<rect width="240" height="27.9259" fill="white" transform="translate(0.00012207 0.0351562)"/>
</clipPath>
</defs>
</svg>
