<svg width="18" height="16" viewBox="0 0 18 16" fill="none" xmlns="http://www.w3.org/2000/svg">
<path d="M16.5037 9.41622L17.981 2.91622C18.0877 2.44691 17.731 2 17.2497 2H6.40456C5.57264 2 4.85553 1.41473 4.68881 0.599688C4.61744 0.250656 4.31031 0 3.95403 0H0.75C0.335781 0 0 0.335781 0 0.75V1.25C0 1.66422 0.335781 2 0.75 2C2.02109 2 3.11676 2.89424 3.37148 4.13954L4.76095 10.9325C4.98073 12.007 4.25 13.1533 4.25 14.25C4.25 15.2165 5.0335 16 6 16C6.9665 16 7.75 15.2165 7.75 14.25C7.75 13.7407 8.10765 13 8.61693 13H12.3831C12.8924 13 13.25 13.7407 13.25 14.25C13.25 15.2165 14.0335 16 15 16C15.9665 16 16.75 15.2165 16.75 14.25C16.75 13.8362 16.6063 13.4559 16.3662 13.1564C16.0812 12.8009 15.8346 12.3604 15.9356 11.9162C16.0422 11.4469 15.6855 11 15.2042 11H7.22424C6.98672 11 6.78198 10.8329 6.73438 10.6002C6.67098 10.2902 6.90783 10 7.22424 10H15.7724C16.1226 10 16.4262 9.75769 16.5037 9.41622Z" fill="#EEEEEE"/>
</svg>
