<svg width="25" height="23" viewBox="0 0 25 23" fill="none" xmlns="http://www.w3.org/2000/svg">
<g filter="url(#filter0_d_724_17710)">
<path d="M15.8635 1.60313C15.8819 1.61774 15.8819 1.61774 15.9005 1.63265C16.0514 1.75415 16.1977 1.88031 16.3394 2.01218C16.3652 2.03618 16.3911 2.06013 16.4169 2.08407C16.4355 2.10134 16.4542 2.11861 16.4728 2.13588C16.4856 2.14783 16.4856 2.14783 16.4988 2.16001C16.6462 2.2973 16.6462 2.2973 16.7109 2.37329C16.7404 2.40732 16.7706 2.43973 16.8028 2.4712C16.8516 2.51901 16.8962 2.56965 16.9408 2.62131C16.9527 2.63493 16.9646 2.64855 16.9765 2.66216C17.0617 2.75963 17.144 2.85879 17.2231 2.96118C17.2367 2.97882 17.2504 2.99642 17.2642 3.01398C17.7525 3.63897 18.1386 4.33826 18.4252 5.0754C18.431 5.09034 18.4369 5.10528 18.4429 5.12068C18.6213 5.58244 18.7435 6.06444 18.8324 6.55047C19.9054 6.55693 19.9054 6.55693 21 6.56352C21 7.24414 21 7.92476 21 8.62601C20.3151 8.62601 19.6301 8.62601 18.9244 8.62601C18.9201 8.69062 18.9157 8.75524 18.9113 8.82181C18.9038 8.89789 18.8942 8.97366 18.8842 9.04944C18.8821 9.06528 18.8821 9.06528 18.8799 9.08144C18.8032 9.6552 18.6573 10.2084 18.4646 10.7538C18.4568 10.776 18.4568 10.776 18.4488 10.7987C18.279 11.2774 18.0483 11.7441 17.7815 12.1766C17.7711 12.1934 17.7711 12.1934 17.7606 12.2106C17.6714 12.3547 17.5775 12.4953 17.4794 12.6335C17.4694 12.6476 17.4694 12.6476 17.4592 12.662C17.3633 12.7971 17.263 12.9274 17.1567 13.0546C17.1302 13.0865 17.1041 13.1186 17.0779 13.1507C16.8946 13.3725 16.6987 13.5799 16.4949 13.783C16.4879 13.7901 16.4808 13.7971 16.4735 13.8044C16.3951 13.8826 16.3159 13.9586 16.2314 14.0302C16.2102 14.0492 16.1892 14.0682 16.1681 14.0873C16.1121 14.1375 16.0547 14.1855 15.9961 14.2326C15.9665 14.2563 15.9372 14.2802 15.9079 14.3044C15.519 14.624 15.0877 14.8983 14.6446 15.1372C14.6255 15.1475 14.6065 15.1578 14.5876 15.1682C13.8381 15.5794 12.9938 15.8408 12.1532 15.9875C12.1393 15.99 12.1393 15.99 12.125 15.9926C12.0754 16.0007 12.0357 16.0057 11.9882 15.9883C11.9681 15.9595 11.9535 15.9341 11.9385 15.9029C11.9318 15.8897 11.9318 15.8897 11.925 15.8763C11.9106 15.8477 11.8964 15.8188 11.8823 15.79C11.8673 15.7601 11.8522 15.7303 11.8371 15.7004C11.827 15.6805 11.817 15.6606 11.807 15.6407C11.768 15.563 11.7269 15.4866 11.6844 15.4107C11.6098 15.2765 11.5392 15.1405 11.4686 15.0043C11.4106 14.8923 11.3516 14.7809 11.292 14.6699C11.2805 14.6703 11.269 14.6707 11.2571 14.6711C11.2132 14.6725 11.1693 14.674 11.1253 14.6754C11.1066 14.6761 11.0878 14.6767 11.069 14.6773C10.8449 14.685 10.6218 14.685 10.3978 14.6731C10.3872 14.6726 10.3765 14.672 10.3655 14.6714C9.42486 14.6203 8.52087 14.3705 7.67936 13.9519C7.66182 13.9433 7.66182 13.9433 7.64391 13.9344C7.20792 13.7188 6.80369 13.4407 6.43138 13.1295C6.42439 13.1237 6.41741 13.1179 6.41021 13.1119C6.23745 12.9672 6.07403 12.8148 5.91412 12.6563C5.90726 12.6495 5.90039 12.6428 5.89332 12.6358C5.81581 12.559 5.74028 12.4815 5.66945 12.3985C5.65698 12.3844 5.64449 12.3703 5.63199 12.3561C5.52951 12.2394 5.43436 12.1179 5.34103 11.9939C5.3316 11.9814 5.3316 11.9814 5.32199 11.9687C4.66631 11.1018 4.23862 10.0782 4.01422 8.54769C4.01247 8.52983 4.01247 8.52983 4.01068 8.51162C3.99937 8.38511 3.99959 8.25929 4.00026 8.13242C4.00033 8.11055 4.00039 8.08868 4.00044 8.06682C4.00058 8.0139 4.00081 7.96098 4.00108 7.90806C4.21959 7.90775 4.43809 7.90752 4.65659 7.90738C4.75811 7.90731 4.85963 7.90722 4.96116 7.90707C5.40321 7.90642 5.845 7.90616 6.28687 7.92111C6.2868 7.90808 6.28673 7.89505 6.28665 7.88163C6.28659 7.86414 6.28653 7.84665 6.28648 7.82916C6.2864 7.81209 6.28633 7.79502 6.28626 7.77744C6.28723 7.69543 6.29431 7.61433 6.30247 7.53276C6.30333 7.52413 6.30419 7.51549 6.30507 7.50659C6.39987 6.5673 6.7945 5.67326 7.43849 4.97821C7.46461 4.94983 7.49 4.92105 7.51516 4.89183C7.59289 4.80315 7.67747 4.72031 7.76752 4.64402C7.7908 4.62428 7.81381 4.60423 7.8367 4.58405C8.14288 4.31559 8.49376 4.10091 8.86167 3.92668C8.87056 3.92246 8.87945 3.91824 8.88862 3.91389C9.35173 3.69651 9.86154 3.56176 10.3724 3.52201C10.3816 3.52128 10.3909 3.52054 10.4004 3.51978C11.565 3.43132 12.7407 3.79346 13.6333 4.54631C13.6827 4.58876 13.7308 4.63252 13.7785 4.67686C13.8112 4.7071 13.8446 4.73625 13.8783 4.76538C14.0139 4.8865 14.1352 5.02444 14.2477 5.16678C14.2573 5.17851 14.2669 5.19023 14.2767 5.20232C14.446 5.41405 14.5972 5.64372 14.7206 5.88473C14.7273 5.8977 14.7339 5.91067 14.7408 5.92403C15.0097 6.45318 15.0097 6.45318 15.0097 6.57657C15.5559 6.57657 16.1021 6.57657 16.6649 6.57657C16.4348 5.7192 16.0851 4.92033 15.522 4.22691C15.5117 4.21412 15.5015 4.20134 15.4909 4.18816C15.4622 4.15288 15.4331 4.11802 15.4038 4.08332C15.3944 4.07229 15.3944 4.07229 15.3849 4.06103C15.2839 3.94167 15.2839 3.94167 15.1748 3.82964C15.1516 3.80665 15.1304 3.78248 15.109 3.7578C15.0388 3.67716 14.9628 3.60398 14.8815 3.53461C14.853 3.50986 14.8254 3.48438 14.7978 3.45871C14.7141 3.38109 14.6264 3.31046 14.5357 3.24124C14.5096 3.22111 14.4839 3.20057 14.4582 3.17992C14.2089 2.98081 13.9372 2.81223 13.6566 2.66047C13.6449 2.65411 13.6333 2.64774 13.6213 2.64118C12.7778 2.18213 11.829 1.95679 10.8716 1.92947C10.8621 1.92916 10.8526 1.92886 10.8427 1.92854C9.96278 1.90343 9.05352 2.09802 8.25738 2.46467C8.24418 2.47069 8.23098 2.47671 8.21738 2.48292C7.64746 2.74406 7.12579 3.09 6.66568 3.51396C6.63145 3.54535 6.59678 3.57616 6.56192 3.60686C6.46373 3.69456 6.36982 3.78671 6.28415 3.8866C6.25624 3.91862 6.22721 3.94948 6.1982 3.98052C6.11485 4.07137 6.03992 4.16841 5.9647 4.26593C5.95132 4.28326 5.9379 4.30058 5.92445 4.31786C5.91175 4.3342 5.89912 4.35058 5.88656 4.36703C5.87173 4.38608 5.85605 4.40447 5.84022 4.42272C5.83155 4.42272 5.82288 4.42272 5.81395 4.42272C5.8096 4.41434 5.80525 4.40595 5.80077 4.39732C5.72341 4.24835 5.64568 4.09967 5.56435 3.95279C5.50057 3.83757 5.43924 3.72123 5.37851 3.60441C5.33239 3.51592 5.28512 3.42819 5.23676 3.3409C5.16973 3.21989 5.10562 3.09752 5.04198 2.97473C4.98477 2.86466 4.9259 2.75561 4.86572 2.64711C4.85399 2.62595 4.8423 2.60477 4.83068 2.58355C4.81755 2.55967 4.80414 2.53594 4.79067 2.51224C4.77615 2.47772 4.77615 2.47772 4.77769 2.44937C4.79149 2.42097 4.80703 2.40448 4.83034 2.38308C4.86398 2.35115 4.89539 2.31873 4.92558 2.28355C5.00128 2.19655 5.0838 2.11759 5.17158 2.04277C5.19626 2.02108 5.21942 1.99851 5.2425 1.97516C5.29062 1.9267 5.34161 1.88241 5.39358 1.83809C5.40682 1.82656 5.42006 1.81502 5.43329 1.80347C5.54356 1.70778 5.65802 1.61877 5.77492 1.53126C5.79802 1.51386 5.82092 1.49624 5.84371 1.47845C6.04782 1.31958 6.26269 1.17596 6.48392 1.04182C6.49485 1.03518 6.50577 1.02854 6.51703 1.0217C7.67936 0.315415 12.1853 -1.13815 15.8635 1.60313ZM6.49706 1.8642C6.47777 1.87771 6.45847 1.89123 6.43918 1.90474C6.31325 1.99348 6.19215 2.08678 6.07338 2.18474C6.04081 2.21148 6.0078 2.23766 5.97487 2.26397C5.90906 2.31745 5.8467 2.37421 5.78439 2.43163C5.74257 2.46987 5.6998 2.50665 5.65631 2.54299C5.67489 2.60426 5.70074 2.65919 5.73123 2.71529C5.73596 2.72411 5.7407 2.73293 5.74557 2.74202C5.76064 2.77007 5.7758 2.79808 5.79096 2.82609C5.80094 2.84464 5.81091 2.86319 5.82088 2.88175C5.87496 2.98233 5.92955 3.08263 5.98473 3.18262C6.04355 3.13369 6.10021 3.08282 6.15633 3.03087C6.24584 2.94831 6.33773 2.8689 6.43138 2.79101C6.43955 2.7842 6.44773 2.77738 6.45615 2.77036C6.86612 2.43014 7.32045 2.15322 7.7976 1.91641C7.80964 1.91038 7.82169 1.90434 7.8341 1.89812C8.46285 1.58439 9.15568 1.39457 9.85103 1.29963C9.86539 1.29765 9.87976 1.29568 9.89456 1.29365C10.1801 1.25716 10.4657 1.24572 10.7534 1.2466C10.7697 1.24662 10.786 1.24664 10.8028 1.24667C11.0644 1.24731 11.3215 1.25638 11.581 1.28984C11.5986 1.29203 11.6162 1.29422 11.6338 1.29642C12.0439 1.34831 12.4488 1.43697 12.8421 1.56397C12.8563 1.56856 12.8706 1.57315 12.8853 1.57788C13.2105 1.6839 13.5212 1.81692 13.8273 1.96863C13.8403 1.97506 13.8533 1.98149 13.8667 1.98811C14.0527 2.08075 14.2306 2.18296 14.4054 2.29497C14.4171 2.30243 14.4171 2.30243 14.429 2.31004C14.4742 2.33906 14.5187 2.36899 14.563 2.3994C14.5713 2.4051 14.5796 2.41079 14.5882 2.41666C14.7192 2.50662 14.8463 2.60025 14.9702 2.69963C14.9831 2.70985 14.9959 2.72006 15.0091 2.73059C15.08 2.78745 15.1484 2.8463 15.2157 2.90722C15.2417 2.93062 15.268 2.9535 15.2946 2.97621C15.4433 3.10507 15.5907 3.23931 15.7194 3.38816C15.7448 3.41706 15.7709 3.44528 15.7972 3.47343C15.8709 3.55235 15.9406 3.63357 16.008 3.71782C16.0162 3.72785 16.0162 3.72785 16.0244 3.73808C16.3434 4.13239 16.6083 4.5577 16.8357 5.01013C16.8417 5.0221 16.8478 5.03407 16.8541 5.04641C17.1954 5.72189 17.3853 6.46224 17.4743 7.20983C17.4776 7.24222 17.4776 7.24222 17.4925 7.26843C16.4954 7.26412 15.4983 7.25981 14.471 7.25537C14.4624 7.20368 14.4537 7.15199 14.4448 7.09873C14.3372 6.62273 14.1243 6.17653 13.8405 5.7803C13.8337 5.7707 13.8268 5.76109 13.8198 5.7512C13.7317 5.62798 13.635 5.51654 13.5298 5.40746C13.5079 5.38429 13.4874 5.36012 13.4669 5.33566C13.3458 5.19694 13.1993 5.08118 13.0523 4.97097C13.0446 4.96509 13.0368 4.9592 13.0289 4.95314C12.2585 4.36746 11.2632 4.10481 10.3013 4.22155C9.71988 4.29972 9.14874 4.49244 8.66462 4.82738C8.65703 4.83258 8.64945 4.83777 8.64163 4.84312C8.49829 4.94146 8.3643 5.04859 8.23552 5.16525C8.20787 5.19015 8.17979 5.21443 8.15147 5.23857C7.55387 5.75696 7.17658 6.53337 7.03238 7.2978C7.03039 7.30826 7.02841 7.31872 7.02636 7.3295C6.98998 7.53538 6.97771 7.74175 6.97819 7.95048C6.9782 7.9623 6.97821 7.97412 6.97821 7.98629C6.98099 8.99286 7.40447 9.93159 8.11452 10.6412C8.19791 10.7235 8.28203 10.8005 8.37561 10.8712C8.39247 10.8844 8.40932 10.8976 8.42616 10.9109C9.03532 11.3858 9.81342 11.7053 10.5954 11.7093C10.6075 11.7094 10.6196 11.7095 10.632 11.7096C10.6708 11.7098 10.7096 11.7099 10.7484 11.7099C10.7617 11.7099 10.775 11.71 10.7886 11.71C10.9857 11.7098 11.1767 11.7039 11.3708 11.6675C11.3837 11.6652 11.3966 11.6629 11.4098 11.6605C11.5932 11.6271 11.772 11.5826 11.9488 11.5239C11.9639 11.5189 11.9639 11.5189 11.9793 11.5138C12.52 11.332 12.9967 11.028 13.407 10.6363C13.4134 10.6302 13.4198 10.6241 13.4264 10.6178C13.5033 10.5445 13.574 10.4684 13.6404 10.3855C13.66 10.3611 13.6801 10.3371 13.7007 10.3135C13.7979 10.2019 13.8792 10.082 13.9587 9.95748C13.9643 9.94873 13.97 9.93997 13.9757 9.93094C14.2291 9.53195 14.4075 9.07887 14.4842 8.61296C14.0057 8.61072 13.5272 8.60859 13.0487 8.60655C13.0212 8.60643 12.9937 8.60631 12.9661 8.60619C11.9426 8.60181 10.919 8.59862 9.89537 8.59908C9.88276 8.59909 9.87016 8.5991 9.85717 8.5991C9.54723 8.59924 9.23729 8.59949 8.92735 8.5999C8.9444 8.6521 8.963 8.69907 8.9895 8.74726C8.99669 8.76044 9.00389 8.77362 9.01131 8.78719C9.01909 8.80131 9.02688 8.81543 9.03491 8.82997C9.04737 8.85275 9.05983 8.87552 9.07227 8.89831C9.08092 8.91412 9.08957 8.92993 9.09823 8.94573C9.14461 9.03038 9.19034 9.11537 9.23607 9.20037C9.30679 9.33171 9.37776 9.46291 9.44891 9.59402C9.49054 9.67078 9.53204 9.74762 9.57336 9.82455C9.58252 9.84159 9.59168 9.85863 9.60084 9.87567C9.61849 9.90849 9.6361 9.94133 9.6537 9.97418C9.6616 9.98888 9.6695 10.0036 9.67763 10.0187C9.68465 10.0318 9.69167 10.0449 9.69889 10.0584C9.71304 10.0867 9.71304 10.0867 9.72869 10.1011C9.74629 10.1023 9.76396 10.1027 9.7816 10.1027C9.79307 10.1027 9.80453 10.1027 9.81635 10.1028C9.82909 10.1027 9.84183 10.1027 9.85495 10.1026C9.87509 10.1027 9.87509 10.1027 9.89563 10.1027C9.94097 10.1027 9.98632 10.1026 10.0317 10.1026C10.064 10.1026 10.0964 10.1026 10.1287 10.1026C10.1986 10.1026 10.2684 10.1025 10.3383 10.1025C10.4393 10.1023 10.5403 10.1023 10.6413 10.1023C10.8051 10.1023 10.969 10.1022 11.1328 10.1021C11.292 10.1019 11.4512 10.1018 11.6104 10.1018C11.6202 10.1018 11.6301 10.1018 11.6402 10.1018C11.6894 10.1018 11.7385 10.1017 11.7877 10.1017C12.1961 10.1016 12.6045 10.1014 13.0129 10.1011C12.9983 10.1177 12.9838 10.1343 12.9692 10.1509C12.9611 10.1602 12.953 10.1694 12.9447 10.1789C12.7358 10.4123 12.4592 10.5807 12.1853 10.7277C12.1742 10.7341 12.1742 10.7341 12.1629 10.7408C12.0934 10.7792 12.0376 10.7874 11.9588 10.7866C11.947 10.7867 11.9352 10.7868 11.9231 10.7869C11.8838 10.7872 11.8446 10.7871 11.8053 10.787C11.7771 10.7871 11.7489 10.7872 11.7207 10.7874C11.6442 10.7878 11.5677 10.7878 11.4912 10.7878C11.4112 10.7878 11.3313 10.7882 11.2513 10.7885C11.0999 10.789 10.9485 10.7893 10.7971 10.7894C10.6247 10.7896 10.4523 10.7901 10.28 10.7907C9.92543 10.7917 9.5709 10.7925 9.21636 10.7929C9.21236 10.7807 9.20836 10.7685 9.20423 10.7559C9.19083 10.7168 9.17495 10.6823 9.15571 10.6457C9.1455 10.6262 9.1455 10.6262 9.13509 10.6063C9.12777 10.5925 9.12045 10.5787 9.11291 10.5645C9.10525 10.5499 9.09759 10.5354 9.0897 10.5204C9.03591 10.4186 8.98063 10.3176 8.92477 10.2169C8.85934 10.0982 8.79746 9.97777 8.73539 9.85732C8.67816 9.74632 8.62029 9.63586 8.55953 9.52671C8.48841 9.39896 8.42136 9.26927 8.35441 9.13934C8.29719 9.02835 8.23932 8.9179 8.17856 8.80876C8.10752 8.68114 8.04051 8.5516 7.97366 8.42178C7.90595 8.29035 7.83681 8.15995 7.76463 8.03087C7.75575 8.01495 7.75575 8.01495 7.74669 7.99872C7.74158 7.98963 7.73646 7.98055 7.73119 7.97119C7.71878 7.94722 7.71878 7.94722 7.70564 7.90806C7.71649 7.90812 7.72734 7.90818 7.73853 7.90824C9.12301 7.91594 10.5075 7.92243 12.6931 7.92777C12.9057 7.92825 13.1182 7.92877 13.3308 7.9293C14.5725 7.93243 15.8142 7.9349 17.5188 7.93416C17.5171 7.99146 17.5153 8.04875 17.5136 8.10605C17.513 8.12549 17.5124 8.14493 17.5118 8.16437C17.5078 8.29877 17.5024 8.43256 17.4892 8.56645C17.488 8.57938 17.488 8.57938 17.4867 8.59257C17.4136 9.34595 17.222 10.0792 16.9013 10.7668C16.8951 10.7804 16.8888 10.7939 16.8824 10.8079C16.6021 11.4111 16.2258 11.9657 15.7756 12.4567C15.7565 12.4777 15.7374 12.4987 15.7185 12.5199C15.6465 12.6004 15.5717 12.6775 15.4949 12.7534C15.4838 12.7645 15.4727 12.7756 15.4612 12.787C15.396 12.8517 15.3293 12.9134 15.2593 12.9729C15.2436 12.9865 15.228 13.0002 15.2123 13.0139C14.9671 13.2276 14.7065 13.4248 14.4316 13.5995C14.4167 13.609 14.4167 13.609 14.4014 13.6188C13.6963 14.0668 12.9409 14.3419 12.1327 14.5393C12.1959 14.6654 12.2595 14.7912 12.3248 14.9162C12.3318 14.9298 12.3389 14.9433 12.3461 14.9572C12.3902 15.0418 12.437 15.124 12.4874 15.2051C13.3017 15.0376 14.1079 14.677 14.7995 14.226C14.8135 14.217 14.8275 14.208 14.8419 14.1987C15.13 14.0105 15.4103 13.8046 15.6646 13.5729C15.6903 13.5495 15.7164 13.5267 15.7428 13.504C15.8608 13.4015 15.9742 13.2949 16.0852 13.185C16.099 13.1714 16.099 13.1714 16.1131 13.1575C16.165 13.1058 16.2144 13.0527 16.2624 12.9975C16.2944 12.9609 16.3278 12.9258 16.3611 12.8905C16.4307 12.816 16.496 12.739 16.5598 12.6596C16.5719 12.6448 16.584 12.6301 16.5961 12.6154C16.8427 12.3145 17.0607 11.9902 17.256 11.6545C17.2614 11.6453 17.2668 11.6362 17.2723 11.6267C17.8359 10.6607 18.1484 9.56772 18.2314 8.45713C18.2325 8.44358 18.2335 8.43003 18.2346 8.41607C18.2453 8.25506 18.2413 8.09637 18.2413 7.93416C18.9262 7.93416 19.6112 7.93416 20.3169 7.93416C20.3169 7.71016 20.3169 7.48616 20.3169 7.25537C19.6233 7.25537 18.9297 7.25537 18.215 7.25537C18.2107 7.18214 18.2063 7.10891 18.2019 7.03346C18.1938 6.96888 18.1852 6.90509 18.1748 6.84092C18.1734 6.83224 18.172 6.82356 18.1706 6.81462C18.1135 6.46025 18.0339 6.10978 17.926 5.76725C17.921 5.75143 17.9161 5.7356 17.9109 5.7193C17.619 4.80118 17.146 3.94407 16.5204 3.20873C16.5135 3.2006 16.5066 3.19248 16.4995 3.18411C16.351 3.00875 16.1939 2.84293 16.0306 2.68118C16.0046 2.65538 15.9786 2.6295 15.9526 2.60362C15.8726 2.52408 15.7927 2.44555 15.7059 2.37329C15.6912 2.3606 15.6765 2.34789 15.6619 2.33515C15.5565 2.24442 15.449 2.15704 15.3381 2.07306C15.3293 2.06637 15.3205 2.05968 15.3114 2.0528C15.0359 1.84467 14.7465 1.6541 14.4448 1.48564C14.4251 1.47465 14.4251 1.47465 14.4051 1.46344C13.4656 0.941967 9.85717 -0.152596 6.49706 1.8642ZM4.7236 8.5999C4.7324 8.72229 4.74327 8.83879 4.76465 8.95888C4.76755 8.97516 4.77044 8.99143 4.77342 9.0082C4.85872 9.47552 4.99102 9.92722 5.18339 10.3621C5.18963 10.3764 5.19588 10.3906 5.20232 10.4053C5.29336 10.6115 5.39665 10.808 5.51181 11.0018C5.51752 11.0115 5.52323 11.0212 5.52911 11.0312C5.72634 11.3665 5.96071 11.6785 6.22119 11.9678C6.22723 11.9745 6.23327 11.9813 6.2395 11.9882C6.32955 12.0886 6.42453 12.1841 6.52005 12.2794C6.53171 12.2911 6.54337 12.3027 6.55538 12.3147C6.62142 12.3802 6.68888 12.4428 6.75979 12.503C6.77357 12.515 6.78732 12.5271 6.80105 12.5393C6.93047 12.6523 7.06724 12.7547 7.20644 12.8554C7.21726 12.8633 7.22807 12.8711 7.23921 12.8792C7.40607 12.9997 7.57856 13.1072 7.75819 13.2079C7.77086 13.215 7.78353 13.2221 7.79658 13.2294C8.698 13.7328 9.7175 13.9949 10.7509 13.9935C10.762 13.9935 10.7731 13.9935 10.7846 13.9935C11.6466 13.9918 12.489 13.8049 13.2756 13.4559C13.2869 13.4509 13.2981 13.446 13.3097 13.4408C13.7839 13.2306 14.2321 12.9397 14.6287 12.6074C14.6357 12.6015 14.6427 12.5957 14.6499 12.5897C14.8084 12.457 14.9597 12.3186 15.1065 12.1733C15.1164 12.1636 15.1262 12.1539 15.1364 12.1439C15.1975 12.0829 15.2554 12.02 15.3118 11.9547C15.3257 11.939 15.3396 11.9233 15.3535 11.9076C15.4447 11.8045 15.5318 11.6996 15.6139 11.5892C15.6205 11.5804 15.6271 11.5716 15.6338 11.5625C15.8639 11.2533 16.0569 10.9272 16.2314 10.5841C16.2394 10.5682 16.2394 10.5682 16.2477 10.5521C16.4842 10.0841 16.6374 9.57345 16.7355 9.06004C16.7386 9.04377 16.7418 9.0275 16.745 9.01074C16.7693 8.87788 16.7819 8.74833 16.7962 8.61296C16.263 8.61296 15.7298 8.61296 15.1804 8.61296C15.1501 8.75511 15.1197 8.89726 15.0885 9.04373C14.9086 9.70331 14.6109 10.294 14.1689 10.819C14.1633 10.8258 14.1577 10.8325 14.152 10.8395C14.0712 10.937 13.9862 11.0291 13.8963 11.1184C13.8872 11.1276 13.878 11.1367 13.8686 11.146C13.0542 11.9466 11.9138 12.3879 10.7739 12.3887C10.7627 12.3887 10.7515 12.3888 10.74 12.3888C9.6598 12.3874 8.60316 11.9935 7.7976 11.2759C7.79096 11.27 7.78431 11.2642 7.77747 11.2581C7.6311 11.1287 7.48737 10.9941 7.36578 10.8411C7.33628 10.8041 7.30551 10.7684 7.27459 10.7325C6.96453 10.3622 6.72842 9.92565 6.56274 9.4745C6.55622 9.45679 6.55622 9.45679 6.54957 9.43873C6.50254 9.30914 6.46317 9.17802 6.42891 9.04454C6.42595 9.03306 6.42298 9.02159 6.41992 9.00976C6.38645 8.87404 6.36469 8.73802 6.33942 8.5999C5.8062 8.5999 5.27298 8.5999 4.7236 8.5999Z" fill="#FF7801"/>
</g>
<defs>
<filter id="filter0_d_724_17710" x="0" y="0" width="25" height="24" filterUnits="userSpaceOnUse" color-interpolation-filters="sRGB">
<feFlood flood-opacity="0" result="BackgroundImageFix"/>
<feColorMatrix in="SourceAlpha" type="matrix" values="0 0 0 0 0 0 0 0 0 0 0 0 0 0 0 0 0 0 127 0" result="hardAlpha"/>
<feOffset dy="4"/>
<feGaussianBlur stdDeviation="2"/>
<feComposite in2="hardAlpha" operator="out"/>
<feColorMatrix type="matrix" values="0 0 0 0 0 0 0 0 0 0 0 0 0 0 0 0 0 0 0.25 0"/>
<feBlend mode="normal" in2="BackgroundImageFix" result="effect1_dropShadow_724_17710"/>
<feBlend mode="normal" in="SourceGraphic" in2="effect1_dropShadow_724_17710" result="shape"/>
</filter>
</defs>
</svg>
