<svg width="21" height="14" viewBox="0 0 21 14" fill="none" xmlns="http://www.w3.org/2000/svg">
<path d="M19.8804 6.5767C18.9966 2.76345 17.6666 0.728179 15.6935 0.172238C15.2788 0.0561207 14.8486 -0.00188201 14.4164 4.65527e-05C13.8451 4.65527e-05 13.3476 0.132868 12.8213 0.273643C12.1871 0.443448 11.4666 0.636318 10.4161 0.636318C9.36566 0.636318 8.64478 0.443846 8.00933 0.274041C7.48263 0.132868 6.98552 4.65527e-05 6.4159 4.65527e-05C5.96897 -0.00145302 5.52399 0.056365 5.09374 0.17184C3.13113 0.725396 1.80189 2.75987 0.90517 6.57432C-0.059052 10.6791 0.415559 13.2707 2.23608 13.872C2.48562 13.9559 2.74819 13.9992 3.01279 14C4.25995 14 5.26 13.0086 5.94338 12.197C6.7155 11.2783 7.61931 10.8123 10.4161 10.8123C12.9142 10.8123 13.948 11.1356 14.841 12.197C15.4023 12.8643 15.9327 13.3311 16.4619 13.625C17.1657 14.0155 17.8691 14.1022 18.552 13.8783C19.6279 13.528 20.2446 12.6018 20.3855 11.1249C20.4925 9.99229 20.3275 8.50461 19.8804 6.5767ZM8.41602 6.36276H7.08261V7.6353C7.08261 7.80405 7.01237 7.96589 6.88733 8.08521C6.7623 8.20454 6.59272 8.27157 6.4159 8.27157C6.23908 8.27157 6.0695 8.20454 5.94447 8.08521C5.81944 7.96589 5.7492 7.80405 5.7492 7.6353V6.36276H4.41579C4.23897 6.36276 4.06939 6.29572 3.94436 6.1764C3.81933 6.05708 3.74908 5.89524 3.74908 5.72649C3.74908 5.55774 3.81933 5.3959 3.94436 5.27658C4.06939 5.15725 4.23897 5.09022 4.41579 5.09022H5.7492V3.81767C5.7492 3.64892 5.81944 3.48709 5.94447 3.36776C6.0695 3.24844 6.23908 3.1814 6.4159 3.1814C6.59272 3.1814 6.7623 3.24844 6.88733 3.36776C7.01237 3.48709 7.08261 3.64892 7.08261 3.81767V5.09022H8.41602C8.59284 5.09022 8.76242 5.15725 8.88745 5.27658C9.01248 5.3959 9.08272 5.55774 9.08272 5.72649C9.08272 5.89524 9.01248 6.05708 8.88745 6.1764C8.76242 6.29572 8.59284 6.36276 8.41602 6.36276ZM11.9162 6.52183C11.7514 6.52183 11.5903 6.47518 11.4532 6.38779C11.3162 6.30039 11.2094 6.17618 11.1463 6.03085C11.0832 5.88552 11.0667 5.72561 11.0989 5.57132C11.131 5.41704 11.2104 5.27533 11.3269 5.1641C11.4435 5.05287 11.592 4.97712 11.7536 4.94643C11.9153 4.91574 12.0829 4.93149 12.2351 4.99169C12.3874 5.05189 12.5176 5.15383 12.6092 5.28462C12.7007 5.41541 12.7496 5.56918 12.7496 5.72649C12.7496 5.93742 12.6618 6.13972 12.5055 6.28888C12.3492 6.43803 12.1372 6.52183 11.9162 6.52183ZM13.7497 8.27157C13.5847 8.27157 13.4235 8.22488 13.2864 8.13739C13.1493 8.04991 13.0425 7.92558 12.9795 7.78014C12.9165 7.63469 12.9001 7.47467 12.9324 7.32034C12.9648 7.166 13.0444 7.02429 13.1611 6.91314C13.2779 6.80199 13.4266 6.7264 13.5884 6.69593C13.7502 6.66547 13.9178 6.68151 14.07 6.74201C14.2223 6.80251 14.3523 6.90476 14.4436 7.03581C14.5349 7.16687 14.5835 7.32083 14.583 7.47822C14.5825 7.68881 14.4944 7.8906 14.3382 8.03933C14.182 8.18805 13.9703 8.27157 13.7497 8.27157ZM13.7497 4.77208C13.5848 4.77208 13.4237 4.72543 13.2867 4.63804C13.1496 4.55065 13.0428 4.42643 12.9797 4.2811C12.9166 4.13578 12.9001 3.97586 12.9323 3.82158C12.9644 3.6673 13.0438 3.52558 13.1604 3.41435C13.2769 3.30312 13.4254 3.22737 13.5871 3.19668C13.7487 3.166 13.9163 3.18175 14.0686 3.24194C14.2209 3.30214 14.351 3.40408 14.4426 3.53487C14.5342 3.66567 14.583 3.81944 14.583 3.97674C14.583 4.18768 14.4952 4.38998 14.3389 4.53913C14.1827 4.68829 13.9707 4.77208 13.7497 4.77208ZM15.5831 6.52183C15.4183 6.52183 15.2571 6.47518 15.1201 6.38779C14.983 6.30039 14.8762 6.17618 14.8132 6.03085C14.7501 5.88552 14.7336 5.72561 14.7657 5.57132C14.7979 5.41704 14.8773 5.27533 14.9938 5.1641C15.1104 5.05287 15.2589 4.97712 15.4205 4.94643C15.5822 4.91574 15.7497 4.93149 15.902 4.99169C16.0543 5.05189 16.1845 5.15383 16.276 5.28462C16.3676 5.41541 16.4165 5.56918 16.4165 5.72649C16.4165 5.93742 16.3287 6.13972 16.1724 6.28888C16.0161 6.43803 15.8041 6.52183 15.5831 6.52183Z" fill="#FF7801"/>
</svg>
