<svg width="15" height="16" viewBox="0 0 15 16" fill="none" xmlns="http://www.w3.org/2000/svg">
<path d="M7.5 0.789062C11.6423 0.789062 15 4.14681 15 8.28906C15 12.4313 11.6423 15.7891 7.5 15.7891C3.35775 15.7891 0 12.4313 0 8.28906C0 4.14681 3.35775 0.789062 7.5 0.789062ZM7.5 2.28906C5.9087 2.28906 4.38258 2.9212 3.25736 4.04642C2.13214 5.17164 1.5 6.69776 1.5 8.28906C1.5 9.88036 2.13214 11.4065 3.25736 12.5317C4.38258 13.6569 5.9087 14.2891 7.5 14.2891C9.0913 14.2891 10.6174 13.6569 11.7426 12.5317C12.8679 11.4065 13.5 9.88036 13.5 8.28906C13.5 6.69776 12.8679 5.17164 11.7426 4.04642C10.6174 2.9212 9.0913 2.28906 7.5 2.28906ZM7.5 3.78906C7.6837 3.78909 7.861 3.85653 7.99828 3.9786C8.13556 4.10067 8.22326 4.26887 8.24475 4.45131L8.25 4.53906V7.97856L10.2802 10.0088C10.4148 10.1438 10.4929 10.3249 10.4987 10.5154C10.5045 10.7058 10.4376 10.8913 10.3116 11.0343C10.1855 11.1772 10.0098 11.2668 9.82014 11.2849C9.63045 11.3029 9.44099 11.2481 9.29025 11.1316L9.21975 11.0693L6.96975 8.81931C6.85318 8.70265 6.77832 8.55081 6.75675 8.38731L6.75 8.28906V4.53906C6.75 4.34015 6.82902 4.14938 6.96967 4.00873C7.11032 3.86808 7.30109 3.78906 7.5 3.78906Z" fill="white"/>
</svg>
