<svg width="24" height="18" viewBox="0 0 24 18" fill="none" xmlns="http://www.w3.org/2000/svg">
<path fill-rule="evenodd" clip-rule="evenodd" d="M22.8489 13.5112C22.3996 14.054 21.2989 14.4412 21.2989 14.4412L13.1106 17.2579V15.1806L19.1366 13.1244C19.8205 12.8898 19.9255 12.5581 19.3696 12.384C18.8148 12.2094 17.8102 12.2594 17.1259 12.4951L13.1106 13.8494V11.6936L13.342 11.6185C13.342 11.6185 14.5023 11.2253 16.1338 11.0522C17.7653 10.8801 19.763 11.0757 21.3313 11.6451C23.0986 12.1799 23.2977 12.9683 22.8489 13.5112ZM13.89 9.97407V4.66195C13.89 4.03808 13.7698 3.46374 13.1586 3.30115C12.6905 3.15756 12.4001 3.57381 12.4001 4.19717V17.5L8.65382 16.3613V0.5C10.2467 0.783167 12.5672 1.45256 13.8148 1.8553C16.9874 2.89841 18.0631 4.19667 18.0631 7.1219C18.0631 9.97307 16.2252 11.0537 13.89 9.97407ZM1.77986 14.9635C-0.0344915 14.4742 -0.336448 13.4546 0.490537 12.8673C1.25483 12.325 2.55461 11.9167 2.55461 11.9167L7.92609 10.0876V12.1729L4.06073 13.4976C3.37793 13.7323 3.27293 14.0645 3.82773 14.2386C4.38306 14.4127 5.38819 14.3632 6.07204 14.128L7.92609 13.4836V15.3492C7.80855 15.3692 7.67742 15.3893 7.55622 15.4088C5.70164 15.6989 3.72639 15.5779 1.77986 14.9635ZM21.6557 15.7895C21.8903 15.7895 22.1102 15.8765 22.2758 16.0371C22.4414 16.1952 22.5329 16.4064 22.5329 16.6305C22.5329 16.8556 22.4414 17.0657 22.2758 17.2238C22.1102 17.3834 21.8903 17.4705 21.6557 17.4705C21.4212 17.4705 21.2017 17.3834 21.0356 17.2238C20.87 17.0657 20.7791 16.8556 20.7791 16.6305C20.7791 16.1672 21.172 15.7895 21.6557 15.7895ZM20.9264 16.6305C20.9264 16.8171 21.0022 16.9927 21.1401 17.1238C21.2775 17.2569 21.4614 17.3289 21.6557 17.3289C22.0585 17.3289 22.385 17.0157 22.385 16.6305C22.385 16.4434 22.3098 16.2678 22.1714 16.1362C22.034 16.0031 21.8501 15.9316 21.6557 15.9316C21.4614 15.9316 21.2775 16.0031 21.1401 16.1362C21.0022 16.2678 20.9264 16.4434 20.9264 16.6305ZM21.9206 16.1777C22.0167 16.2182 22.0653 16.2963 22.0653 16.4074C22.0653 16.4644 22.0528 16.5124 22.0272 16.5499C22.0089 16.577 21.9828 16.599 21.9535 16.618C21.9765 16.631 21.9969 16.6465 22.012 16.6645C22.0329 16.6905 22.0449 16.732 22.0465 16.7886L22.0512 16.9082C22.0528 16.9402 22.0549 16.9647 22.0601 16.9797C22.0653 17.0017 22.0752 17.0157 22.0878 17.0202L22.1008 17.0262V17.0397V17.0602V17.0808H22.0794H21.9243H21.9117L21.9054 17.0703C21.9002 17.0603 21.8966 17.0487 21.8929 17.0337C21.8903 17.0202 21.8877 16.9967 21.8861 16.9607L21.8783 16.8121C21.8762 16.7606 21.8579 16.7286 21.8234 16.7115C21.802 16.702 21.7665 16.6975 21.7184 16.6975H21.4525V17.0603V17.0808H21.4306H21.3041H21.2827V17.0603V16.1662V16.1457H21.3041H21.7362C21.8104 16.1457 21.8725 16.1562 21.9206 16.1777ZM21.4525 16.5544H21.7231C21.7774 16.5544 21.8208 16.5449 21.8516 16.5254C21.8798 16.5059 21.8934 16.4704 21.8934 16.4189C21.8934 16.3628 21.8741 16.3263 21.8333 16.3068C21.8109 16.2963 21.7795 16.2903 21.7398 16.2903H21.4525V16.5544Z" fill="black"/>
</svg>
