<svg width="19" height="18" viewBox="0 0 19 18" fill="none" xmlns="http://www.w3.org/2000/svg">
<path d="M9.76581 0.199219C5.1254 0.199219 1.32389 3.76408 0.962646 8.29447L5.69731 10.2448C6.09849 9.97146 6.58314 9.8113 7.10453 9.8113C7.15126 9.8113 7.19779 9.81329 7.24392 9.81548L9.34945 6.77486C9.34945 6.76034 9.34945 6.74621 9.34945 6.73189C9.34945 4.9017 10.8437 3.41273 12.6809 3.41273C14.5178 3.41273 16.0121 4.9017 16.0121 6.73189C16.0121 8.56207 14.5178 10.0512 12.6809 10.0512C12.6555 10.0512 12.6304 10.0512 12.6052 10.0493L9.60226 12.184C9.60426 12.2228 9.60526 12.2624 9.60526 12.3018C9.60526 13.6758 8.48359 14.7931 7.10473 14.7931C5.89441 14.7931 4.88237 13.9324 4.65313 12.7926L1.26698 11.3988C2.31535 15.0929 5.72187 17.8013 9.76581 17.8013C14.6447 17.8013 18.5995 13.8608 18.5995 9.00056C18.5995 4.13951 14.6445 0.199219 9.76581 0.199219Z" fill="black"/>
<path d="M6.49894 13.5545L5.41382 13.1078C5.60612 13.5067 5.9388 13.8408 6.38052 14.0242C7.33544 14.4205 8.43634 13.9691 8.83432 13.0169C9.02702 12.5565 9.02822 12.0482 8.83712 11.5866C8.64641 11.1248 8.28657 10.7647 7.82388 10.5725C7.3648 10.3821 6.87296 10.3891 6.44083 10.5516L7.56169 11.0134C8.266 11.3059 8.59908 12.1117 8.30554 12.8134C8.01259 13.5153 7.20325 13.8471 6.49894 13.5545Z" fill="black"/>
<path d="M14.9012 6.73111C14.9012 5.51172 13.9055 4.51953 12.6814 4.51953C11.4575 4.51953 10.4617 5.51172 10.4617 6.73111C10.4617 7.9507 11.4575 8.94249 12.6814 8.94249C13.9055 8.94249 14.9012 7.9505 14.9012 6.73111ZM11.0176 6.72733C11.0176 5.80975 11.7643 5.06606 12.6852 5.06606C13.6062 5.06606 14.3528 5.80975 14.3528 6.72733C14.3528 7.64491 13.6062 8.3886 12.6852 8.3886C11.7643 8.3886 11.0176 7.64471 11.0176 6.72733Z" fill="black"/>
</svg>
