<svg width="126" height="31" viewBox="0 0 126 31" fill="none" xmlns="http://www.w3.org/2000/svg">
<path d="M23.6615 18.3503L17.401 8.18965H12.901V22.8027H17.401V12.6421L23.6615 22.8027H28.1198V8.18965H23.625L23.6615 18.3503ZM59.224 13.113V11.6533H56.875V9.68601H52.4948V11.6533H50.1094V13.113H52.4948V22.8027H56.875V13.113H59.224ZM30.625 22.7609H34.9688V13.0711H30.625V22.7609ZM30.625 11.1824H35.0052V8.18965H30.625V11.1824ZM106.995 12.4014C103.474 12.4014 100.62 14.8448 100.62 17.8375C100.62 20.8302 103.474 23.2736 106.995 23.2736C110.516 23.2736 113.375 20.8302 113.375 17.8375C113.375 14.8448 110.516 12.4014 106.995 12.4014ZM108.755 19.8885C108.755 21.4215 107.854 22.0545 106.995 22.0545C106.135 22.0545 105.193 21.4215 105.193 19.8885V15.7918C105.193 14.2536 106.094 13.6257 106.995 13.6257C107.854 13.6257 108.755 14.2536 108.755 15.7918V19.8885ZM94.9062 13.5473C94.1626 13.0711 93.3195 12.7739 92.4427 12.6787C89.3125 12.4014 86.8854 15.2006 86.8854 17.759C86.8854 21.1494 89.4688 22.3685 89.8594 22.5673C91.3438 23.237 93.224 23.2736 94.8646 22.2115V22.7609H99.1719V8.18965H94.8646C94.9062 8.18965 94.9062 11.3027 94.9062 13.5473ZM94.9479 17.8794V19.6112C94.9479 21.1075 93.9271 21.4999 93.224 21.4999C92.5208 21.4999 91.5 21.1075 91.5 19.6112V16.1476C91.5 14.646 92.5208 14.2536 93.224 14.2536C93.8906 14.2536 94.9427 14.646 94.9427 16.1476L94.9479 17.8794ZM45.1771 12.6421C43.8794 12.6836 42.6417 13.201 41.6979 14.0966V13.0711H37.3542V22.7609H41.6979V16.383C41.6979 15.5564 42.5938 14.6094 43.7708 14.6094C44.9427 14.6094 45.7656 15.5564 45.7656 16.383V22.7609H50.1094V17.487C50.1094 13.6624 46.8229 12.5584 45.1771 12.6421ZM80.5833 12.6421C79.2835 12.6737 78.0425 13.1925 77.1042 14.0966V13.0711H72.7604V22.7609H77.1042V16.383C77.1042 15.5564 78.0052 14.6094 79.1771 14.6094C80.349 14.6094 81.1719 15.5564 81.1719 16.383V22.7609H85.5156V17.487C85.5156 13.6624 82.2292 12.5584 80.5833 12.6421ZM71.4688 17.9579C71.4688 14.9651 68.5729 12.4433 65.0521 12.4433C61.4948 12.4433 58.6354 14.8867 58.6354 17.8794C58.6354 20.8721 61.4948 23.3155 65.0521 23.3155C67.9896 23.3155 70.4896 21.6203 71.2344 19.3391H66.8906V19.9251C66.8906 21.6988 65.7188 22.0912 65.0938 22.0912C64.4271 22.0912 63.2552 21.6988 63.2552 19.9303V17.916L71.4688 17.9579ZM63.5677 14.5309C63.7289 14.2689 63.9532 14.0519 64.2199 13.9001C64.4867 13.7483 64.7872 13.6665 65.0938 13.6624C65.6771 13.6624 66.2656 13.9397 66.6198 14.5309C66.8906 15.0018 66.8906 15.593 66.8906 16.4196H63.2552C63.2552 15.593 63.2917 15.0436 63.5677 14.5309ZM115.094 9.99993C115.094 9.52905 114.741 9.2936 114.036 9.2936H113.057V11.7736H113.646V10.7481H113.958L114.427 11.7736H115.094L114.547 10.6696C114.896 10.5545 115.094 10.3139 115.094 9.99993ZM113.958 10.3557H113.646V9.64415H113.917C114.278 9.64415 114.46 9.76274 114.464 9.99993C114.464 10.2772 114.313 10.3557 113.958 10.3557ZM113.995 8.30475C113.404 8.31159 112.839 8.55115 112.422 8.97188C112.006 9.39261 111.77 9.96091 111.766 10.5545C111.766 11.7736 112.786 12.7991 114 12.7991C114.593 12.7991 115.162 12.5623 115.582 12.1409C116.001 11.7195 116.237 11.1479 116.237 10.5519C116.237 9.95593 116.001 9.38435 115.582 8.96293C115.162 8.5415 114.588 8.30475 113.995 8.30475ZM113.995 12.3648C113.519 12.358 113.066 12.165 112.73 11.8268C112.394 11.4886 112.203 11.0321 112.198 10.5545C112.202 10.0752 112.393 9.61656 112.73 9.27711C113.067 8.93767 113.523 8.74447 114 8.73901C114.476 8.74583 114.931 8.93962 115.267 9.27892C115.603 9.61822 115.793 10.0761 115.797 10.5545C115.791 11.0321 115.601 11.4886 115.265 11.8268C114.929 12.165 114.47 12.358 113.995 12.3648ZM109.109 -0.00372199H16.8125C7.03125 -0.0455783 0.5 7.04906 0.5 15.5145C0.5 23.9799 7.03125 30.9961 16.8542 30.9961H109.146C118.969 30.9961 125.5 23.9852 125.5 15.5145C125.464 7.04906 118.891 -0.00372199 109.109 -0.00372199ZM109.068 27.2133H16.8542C9.06771 27.2552 4.33333 21.9761 4.33333 15.5145C4.33333 9.05293 9.10938 3.85752 16.8542 3.81566H109.068C116.812 3.81566 121.589 9.05293 121.589 15.5145C121.589 21.9761 116.854 27.2133 109.068 27.2133Z" fill="#E22B26"/>
</svg>
