<svg width="120" height="21" viewBox="0 0 120 21" fill="none" xmlns="http://www.w3.org/2000/svg">
<path d="M42.8938 -0.00390625C47.4604 -0.00390625 51.1147 1.13956 53.9062 3.68502C55.8152 5.4201 56.8812 7.89098 56.8515 10.4812C56.8468 11.7596 56.5833 13.0237 56.0771 14.1971C55.5708 15.3704 54.8323 16.4284 53.9062 17.3072C51.2932 19.7134 47.2224 20.9961 42.8987 20.9961C38.5751 20.9961 34.5687 19.7134 31.916 17.3072C30.9576 16.4518 30.1943 15.3992 29.6784 14.2212C29.1624 13.0433 28.9058 11.7676 28.9261 10.4812C28.9261 7.90589 30.0071 5.43502 31.916 3.68502C34.3952 1.42791 38.7783 -0.00390625 42.8938 -0.00390625ZM42.9086 18.2418C45.1944 18.2418 47.3116 17.4414 48.7991 15.9648C50.2866 14.4734 50.9461 12.6836 50.9461 10.4812C50.9461 8.37322 50.2123 6.3995 48.7991 4.99752C47.3414 3.55575 45.1647 2.74041 42.9086 2.74041C40.6526 2.74041 38.4808 3.55078 37.0082 4.99752C35.5951 6.3995 34.8563 8.37322 34.8563 10.4812C34.8261 12.5218 35.5993 14.492 37.0082 15.9648C38.4808 17.4265 40.6427 18.2418 42.9086 18.2418ZM18.9053 8.45774C19.6987 8.65992 20.4689 8.93004 21.2159 9.26811C21.9084 9.58922 22.5433 10.0226 23.0951 10.5508C24.0719 11.5749 24.6273 12.9471 24.6124 14.364C24.623 15.1112 24.4585 15.8505 24.1321 16.5223C23.8057 17.1941 23.3265 17.7797 22.7332 18.2319C21.6814 19.0281 20.4885 19.6169 19.2177 19.967C17.3037 20.5715 15.3037 20.857 13.2975 20.8121C11.5521 20.8121 10.5902 20.6083 9.26635 20.3299L8.88455 20.2504C7.42556 19.9275 6.00092 19.4646 4.6303 18.8683C4.56901 18.8266 4.49604 18.8057 4.42205 18.8086C4.31332 18.8112 4.20991 18.8563 4.13393 18.9344C4.05796 19.0124 4.01544 19.1171 4.01547 19.2262V20.2354H1.09997V12.8874H3.69814C3.71532 13.6321 3.95165 14.3551 4.37743 14.9656C5.4286 16.2582 6.5591 16.7553 7.63505 17.1531C9.45476 17.7496 11.3637 18.0678 13.2677 18.1275C16.0097 18.1275 17.6112 17.4613 17.9583 17.3171L18.0029 17.2972L18.0327 17.2873C18.3401 17.1729 19.5797 16.7205 19.5797 15.3384C19.5797 13.9762 18.4194 13.6779 17.6608 13.484L17.5517 13.4592C16.7088 13.2305 14.7651 13.0217 12.643 12.7979L11.8893 12.7184C9.89935 12.5143 7.91913 12.224 5.95418 11.8484C3.48493 11.3015 2.5131 10.3967 1.90818 9.83487L1.86851 9.7951C0.986686 8.85233 0.49718 7.60751 0.500012 6.31499C0.500012 3.84908 2.18585 2.3576 4.25843 1.44283C6.51314 0.477695 8.94195 -0.0113958 11.3935 0.00604095C15.4593 0.0209557 18.7665 1.34837 19.9565 1.96485C20.4375 2.22337 20.6755 1.90519 20.6755 1.66655V0.925782H23.2885V7.32919H20.9482C20.7401 6.37815 20.2283 5.52112 19.4904 4.88814C19.0414 4.52689 18.5461 4.22759 18.0178 3.99823C16.0567 3.16574 13.9444 2.75096 11.8149 2.78019C9.61839 2.78019 7.51605 3.20277 6.45993 3.84908C5.80212 4.26006 5.47157 4.76716 5.46826 5.37038C5.46826 6.23047 6.19218 6.57351 6.5591 6.67791C7.53093 6.97621 9.69276 7.18999 11.3736 7.35902L12.3851 7.46343C14.0065 7.62749 17.403 8.0799 18.9053 8.45774ZM108.983 3.50107V1.11968H119.5V3.45632H117.14C116.287 3.45632 115.94 3.62038 115.295 4.34624L108.22 12.4499C108.146 12.55 108.112 12.6742 108.126 12.7979V16.4869C108.137 16.6585 108.156 16.8294 108.185 16.9989C108.227 17.1071 108.294 17.2038 108.38 17.2815C108.466 17.3592 108.569 17.4157 108.681 17.4464C108.894 17.477 109.11 17.4936 109.326 17.4961H111.735V19.8327H98.9725V17.4961H101.253C101.469 17.4936 101.684 17.477 101.898 17.4464C102.012 17.4149 102.117 17.3584 102.206 17.281C102.295 17.2036 102.366 17.1073 102.414 16.9989C102.437 16.8341 102.452 16.6681 102.458 16.5018V12.8129C102.458 12.6886 102.458 12.6886 102.295 12.4947L95.2984 4.53019C94.9215 4.13743 94.277 3.50604 93.2853 3.50604H91.0144V1.16939H103.847V3.50604H102.3C101.952 3.50604 101.714 3.85405 102.012 4.23189L106.37 9.45703C106.415 9.51669 106.445 9.51669 106.504 9.47194C106.564 9.4272 110.937 4.27663 110.967 4.23189C111.003 4.18459 111.03 4.13037 111.046 4.07246C111.061 4.01455 111.065 3.95412 111.056 3.89476C111.048 3.83541 111.028 3.77833 110.997 3.72693C110.966 3.67553 110.926 3.63084 110.877 3.59553C110.79 3.53452 110.686 3.50315 110.58 3.50604L108.983 3.50107ZM77.8252 3.48615H80.23C81.3258 3.48615 81.5192 3.90874 81.534 4.93288L81.6729 12.7184L68.8705 1.16442H59.7223V3.50107H61.7652C63.2378 3.50107 63.3419 4.31641 63.3419 5.04226V16.0444C63.3419 16.6808 63.3469 17.511 62.4395 17.511H59.9306V19.8327H70.6604V17.4961H68.0424C66.9913 17.4961 66.9516 17.0138 66.9318 15.9897V6.63317L81.6729 19.8129H85.4263L85.228 4.91797C85.2478 3.83416 85.3222 3.47124 86.4329 3.47124H88.7782V1.13459H77.8252V3.48615Z" fill="#005128"/>
</svg>
