<svg width="31" height="27" viewBox="0 0 31 27" fill="none" xmlns="http://www.w3.org/2000/svg">
<path d="M28.4231 15.8899L30.9673 4.92112C31.151 4.12915 30.5367 3.375 29.7078 3.375H8.56849L8.07518 1.01197C7.95226 0.422982 7.42332 0 6.80972 0H1.29167C0.57829 0 0 0.566631 0 1.26562V2.10938C0 2.80837 0.57829 3.375 1.29167 3.375H5.05273L8.83344 21.4858C7.92895 21.9955 7.31945 22.9512 7.31945 24.0469C7.31945 25.6778 8.66881 27 10.3333 27C11.9979 27 13.3472 25.6778 13.3472 24.0469C13.3472 23.2203 13.0003 22.4735 12.4418 21.9375H23.7249C23.1664 22.4735 22.8195 23.2203 22.8195 24.0469C22.8195 25.6778 24.1688 27 25.8333 27C27.4979 27 28.8472 25.6778 28.8472 24.0469C28.8472 22.8776 28.1536 21.8673 27.1477 21.3888L27.4446 20.1086C27.6283 19.3167 27.0139 18.5625 26.1851 18.5625H11.7389L11.3867 16.875H27.1636C27.7667 16.875 28.2895 16.4661 28.4231 15.8899Z" fill="#EEEEEE"/>
</svg>
