<svg width="24" height="24" viewBox="0 0 24 24" fill="none" xmlns="http://www.w3.org/2000/svg">
<path d="M12.0231 0C5.79719 0 0.696823 4.78286 0.212158 10.8611L6.56451 13.4779C7.10275 13.1111 7.75299 12.8962 8.45253 12.8962C8.51522 12.8962 8.57765 12.8989 8.63954 12.9018L11.4645 8.82233C11.4645 8.80284 11.4645 8.78389 11.4645 8.76467C11.4645 6.30917 13.4693 4.31147 15.9342 4.31147C18.3987 4.31147 20.4036 6.30917 20.4036 8.76467C20.4036 11.2202 18.3987 13.2181 15.9342 13.2181C15.9001 13.2181 15.8664 13.2181 15.8326 13.2155L11.8037 16.0796C11.8063 16.1317 11.8077 16.1848 11.8077 16.2377C11.8077 18.0811 10.3028 19.5802 8.4528 19.5802C6.82894 19.5802 5.47113 18.4254 5.16356 16.8962L0.620466 15.0261C2.02704 19.9824 6.59746 23.6162 12.0231 23.6162C18.5689 23.6162 23.875 18.3293 23.875 11.8085C23.875 5.28656 18.5686 0 12.0231 0Z" fill="white"/>
<path d="M7.63995 17.9151L6.18408 17.3158C6.44209 17.851 6.88844 18.2992 7.48108 18.5453C8.76226 19.077 10.2393 18.4714 10.7733 17.1938C11.0318 16.5761 11.0334 15.8941 10.777 15.2749C10.5211 14.6553 10.0384 14.1722 9.41759 13.9143C8.80165 13.6589 8.14176 13.6682 7.56199 13.8863L9.06581 14.5058C10.0108 14.8982 10.4577 15.9793 10.0638 16.9208C9.67077 17.8625 8.5849 18.3077 7.63995 17.9151Z" fill="white"/>
<path d="M18.9124 8.76408C18.9124 7.12806 17.5766 5.79688 15.9342 5.79688C14.2922 5.79688 12.9561 7.12806 12.9561 8.76408C12.9561 10.4004 14.2922 11.731 15.9342 11.731C17.5766 11.731 18.9124 10.4001 18.9124 8.76408ZM13.7019 8.75901C13.7019 7.52792 14.7037 6.53013 15.9393 6.53013C17.175 6.53013 18.1767 7.52792 18.1767 8.75901C18.1767 9.99009 17.175 10.9879 15.9393 10.9879C14.7037 10.9879 13.7019 9.98982 13.7019 8.75901Z" fill="white"/>
</svg>
