<svg width="21" height="21" viewBox="0 0 21 21" fill="none" xmlns="http://www.w3.org/2000/svg">
<path d="M4.28709 0.0640068C2.2924 0.420647 0.687517 1.89697 0.181586 3.83775C-0.000880431 4.53859 -0.0133214 4.94914 0.00741352 10.3858C0.0198544 15.3788 0.0240014 15.4949 0.106941 15.8806C0.567255 17.9582 2.04358 19.4387 4.14195 19.928C4.41565 19.9902 4.76399 20.0027 7.0075 20.0151C9.32981 20.0317 9.57033 20.0275 9.63254 19.9653C9.69474 19.9031 9.69889 19.1028 9.69889 10.0292C9.69889 3.3028 9.68645 0.134506 9.65742 0.0764484C9.61595 0.00180244 9.54545 -0.00234413 7.11533 0.00180244C5.14137 0.00594902 4.54835 0.0183907 4.28709 0.0640068ZM8.0401 10.0167V18.4185L6.35228 18.3978C4.79717 18.3812 4.63129 18.3729 4.32027 18.2941C2.98494 17.9499 1.99381 16.9215 1.71597 15.582C1.62473 15.1631 1.62473 4.84547 1.71182 4.43492C1.96064 3.26962 2.7693 2.30337 3.85995 1.86794C4.40735 1.64815 4.66032 1.62327 6.43522 1.61912L8.0401 1.61497V10.0167Z" fill="white"/>
<path d="M4.64443 4.15096C4.38317 4.20073 3.98506 4.39978 3.77357 4.58639C3.33814 4.96377 3.12249 5.49873 3.15567 6.12907C3.17226 6.45668 3.19299 6.54377 3.3257 6.80917C3.5206 7.21143 3.81504 7.50586 4.2173 7.70492C4.49514 7.84177 4.56564 7.85836 4.92643 7.8708C5.25404 7.88324 5.37015 7.8708 5.58994 7.79615C6.48984 7.49342 7.03309 6.61841 6.87965 5.72266C6.70133 4.65689 5.68947 3.94361 4.64443 4.15096Z" fill="white"/>
<path d="M11.7204 0.0273514C11.7038 0.0397911 11.6914 4.53511 11.6914 10.0174C11.6914 19.062 11.6956 19.9784 11.7578 20.0033C11.8697 20.0448 15.0878 20.0282 15.4859 19.9867C17.1696 19.796 18.6542 18.7717 19.4628 17.2497C19.5665 17.0548 19.7034 16.7272 19.7739 16.524C20.0351 15.7444 20.0268 15.9517 20.0268 9.99253C20.0268 5.23595 20.0185 4.52682 19.9605 4.22409C19.5499 2.06351 17.9036 0.433754 15.7389 0.0605259C15.4486 0.0107632 15.0007 -0.00167847 13.5575 -0.00167847C12.5623 -0.00167847 11.7329 0.0107632 11.7204 0.0273514ZM16.1494 9.05946C16.7963 9.22949 17.3271 9.72297 17.5428 10.3533C17.6796 10.7431 17.6755 11.3154 17.5386 11.6721C17.2857 12.3273 16.788 12.7876 16.1494 12.9576C15.1127 13.2272 14.0096 12.601 13.7068 11.5725C13.6156 11.2574 13.6197 10.7265 13.7234 10.4031C14.0344 9.38707 15.1127 8.78991 16.1494 9.05946Z" fill="white"/>
</svg>
