<svg width="167" height="25" viewBox="0 0 167 25" fill="none" xmlns="http://www.w3.org/2000/svg">
<path d="M153.019 24.0999C151.062 23.9229 149.078 23.2551 147.373 22.1986C145.944 21.3136 145.622 20.9516 145.622 20.2249C145.622 18.7687 147.31 16.2158 150.196 13.3088C151.837 11.6569 154.12 9.72074 154.366 9.77169C154.847 9.8736 158.685 13.4295 160.123 15.1002C162.397 17.7497 163.444 19.9165 162.912 20.8819C162.507 21.6166 160.004 23.0513 158.165 23.6011C156.649 24.057 154.657 24.25 153.019 24.0999ZM143.695 18.7124C142.51 16.9854 141.91 15.2825 141.619 12.8234C141.522 12.0109 141.556 11.547 141.836 9.87896C142.184 7.80066 143.429 5.39788 144.928 3.9176C145.568 3.28741 145.624 3.27132 146.402 3.52071C147.347 3.82374 148.354 4.48343 149.919 5.82695L150.832 6.61L150.335 7.19192C148.018 9.88969 145.576 13.7138 144.657 16.079C144.156 17.3635 143.955 18.6561 144.17 19.1924C144.315 19.5544 144.182 19.4204 143.695 18.7124ZM164.516 19.0047C164.632 18.463 164.485 17.4654 164.137 16.4598C163.387 14.2823 160.872 10.2276 158.564 7.4735L157.837 6.60732L158.623 5.92081C159.65 5.02513 160.363 4.4888 161.132 4.03559C161.741 3.67625 162.606 3.35981 162.98 3.35981C163.209 3.35981 164.018 4.15627 164.671 5.02781C165.684 6.37401 166.428 8.00983 166.804 9.71001C167.048 10.8095 167.068 13.1613 166.844 14.2555C166.66 15.1538 166.27 16.3203 165.891 17.1141C165.605 17.7068 164.898 18.8572 164.587 19.2326C164.428 19.4204 164.428 19.4204 164.516 19.0047ZM153.228 2.94684C152.162 2.43195 150.518 1.88221 149.61 1.73204C149.291 1.68109 148.75 1.65159 148.402 1.66768C147.653 1.70254 147.687 1.66768 148.889 1.12866C149.888 0.680822 150.722 0.418018 151.854 0.192757C153.127 -0.0620017 155.517 -0.0646834 156.77 0.187394C158.123 0.458243 159.715 1.02139 160.612 1.54432L160.878 1.69986L160.267 1.67036C159.05 1.61136 157.279 2.07797 155.376 2.95756C154.801 3.22305 154.303 3.4349 154.267 3.42685C154.233 3.42149 153.763 3.20428 153.228 2.94684Z" fill="white"/>
</svg>
