<svg width="311" height="104" viewBox="0 0 311 104" fill="none" xmlns="http://www.w3.org/2000/svg">
<rect width="311" height="104" rx="9" fill="url(#paint0_linear_481_27708)"/>
<path d="M84.1683 65.32C82.1949 65.32 80.3549 65.0133 78.6483 64.4C76.9683 63.7867 75.5549 62.8133 74.4083 61.48C73.2883 60.1467 72.5816 58.4267 72.2883 56.32H78.1283C78.3683 57.2267 78.8083 57.96 79.4483 58.52C80.0883 59.0533 80.8483 59.44 81.7283 59.68C82.6349 59.92 83.5816 60.04 84.5683 60.04C85.3149 60.04 86.0483 59.9467 86.7683 59.76C87.4883 59.5733 88.0749 59.2533 88.5283 58.8C89.0083 58.3467 89.2483 57.7333 89.2483 56.96C89.2483 56.3733 89.1149 55.8933 88.8483 55.52C88.6083 55.1467 88.2483 54.8533 87.7683 54.64C87.3149 54.4 86.7549 54.1867 86.0883 54C85.5283 53.84 84.9416 53.7067 84.3283 53.6C83.7416 53.4933 83.1549 53.36 82.5683 53.2C82.0083 53.04 81.4616 52.8533 80.9283 52.64C79.9149 52.3733 78.9416 52.0533 78.0083 51.68C77.0749 51.28 76.2483 50.7867 75.5283 50.2C74.8083 49.5867 74.2349 48.8267 73.8083 47.92C73.4083 47.0133 73.2083 45.92 73.2083 44.64C73.2083 43.2533 73.4349 42.08 73.8883 41.12C74.3683 40.16 74.9949 39.3733 75.7683 38.76C76.5683 38.12 77.4483 37.6267 78.4083 37.28C79.3949 36.9333 80.3816 36.6933 81.3683 36.56C82.3549 36.4267 83.2883 36.36 84.1683 36.36C86.0083 36.36 87.6616 36.68 89.1283 37.32C90.5949 37.96 91.7949 38.92 92.7283 40.2C93.6616 41.48 94.1949 43.0933 94.3283 45.04H88.7683C88.6616 44.24 88.3683 43.5867 87.8883 43.08C87.4083 42.5733 86.7949 42.2 86.0483 41.96C85.3283 41.72 84.5149 41.6 83.6083 41.6C83.0216 41.6 82.4483 41.6533 81.8883 41.76C81.3283 41.8667 80.8216 42.04 80.3683 42.28C79.9416 42.4933 79.5949 42.7867 79.3283 43.16C79.0883 43.5333 78.9683 43.9867 78.9683 44.52C78.9683 45.0533 79.1149 45.52 79.4083 45.92C79.7016 46.2933 80.1283 46.6267 80.6883 46.92C81.2749 47.1867 81.9549 47.44 82.7283 47.68C83.5283 47.9467 84.3683 48.16 85.2483 48.32C86.1283 48.48 86.9683 48.6933 87.7683 48.96C88.7816 49.2267 89.7283 49.5467 90.6083 49.92C91.4883 50.2667 92.2616 50.72 92.9283 51.28C93.5949 51.8133 94.1149 52.5067 94.4883 53.36C94.8616 54.1867 95.0483 55.2133 95.0483 56.44C95.0483 58.0667 94.7416 59.4533 94.1283 60.6C93.5416 61.72 92.7283 62.6267 91.6883 63.32C90.6749 64.0133 89.5149 64.52 88.2083 64.84C86.9016 65.16 85.5549 65.32 84.1683 65.32ZM108.655 65C106.895 65 105.415 64.7867 104.215 64.36C103.041 63.9333 102.148 63.2133 101.535 62.2C100.948 61.16 100.655 59.7467 100.655 57.96V48.92H97.5345V43.92H100.655V38.28H106.255V43.92H110.855V48.92H106.255V57.16C106.255 58.04 106.415 58.7333 106.735 59.24C107.055 59.7467 107.775 60 108.895 60H110.655V65H108.655ZM113.743 65V43.92H118.783L119.143 46.44C119.676 45.64 120.276 45.04 120.943 44.64C121.61 44.2133 122.303 43.9333 123.023 43.8C123.743 43.64 124.476 43.56 125.223 43.56C125.57 43.56 125.89 43.5733 126.183 43.6C126.476 43.6 126.69 43.6 126.823 43.6V49H125.503C124.25 49 123.156 49.2133 122.223 49.64C121.29 50.0667 120.57 50.7333 120.063 51.64C119.583 52.5467 119.343 53.7067 119.343 55.12V65H113.743ZM136.126 65.28C135.166 65.28 134.233 65.16 133.326 64.92C132.446 64.6533 131.659 64.2533 130.966 63.72C130.273 63.1867 129.726 62.52 129.326 61.72C128.926 60.92 128.726 59.9867 128.726 58.92C128.726 57.48 129.019 56.3333 129.606 55.48C130.193 54.6 130.979 53.9333 131.966 53.48C132.953 53.0267 134.086 52.72 135.366 52.56C136.673 52.4 138.019 52.32 139.406 52.32H142.446C142.446 51.5467 142.299 50.8667 142.006 50.28C141.739 49.6667 141.326 49.2 140.766 48.88C140.206 48.5333 139.486 48.36 138.606 48.36C138.046 48.36 137.499 48.44 136.966 48.6C136.459 48.7333 136.033 48.9333 135.686 49.2C135.339 49.4667 135.113 49.8133 135.006 50.24H129.326C129.486 49.0667 129.859 48.0667 130.446 47.24C131.033 46.3867 131.766 45.6933 132.646 45.16C133.526 44.6267 134.486 44.24 135.526 44C136.593 43.7333 137.686 43.6 138.806 43.6C141.873 43.6 144.139 44.48 145.606 46.24C147.073 47.9733 147.806 50.44 147.806 53.64V65H142.766L142.686 62.28C142.019 63.2133 141.259 63.8933 140.406 64.32C139.579 64.7467 138.779 65.0133 138.006 65.12C137.233 65.2267 136.606 65.28 136.126 65.28ZM137.406 60.84C138.339 60.84 139.193 60.6533 139.966 60.28C140.739 59.9067 141.353 59.4 141.806 58.76C142.259 58.12 142.486 57.4 142.486 56.6V56.08H138.646C138.086 56.08 137.539 56.1067 137.006 56.16C136.499 56.2133 136.033 56.32 135.606 56.48C135.206 56.6133 134.886 56.84 134.646 57.16C134.406 57.48 134.286 57.9067 134.286 58.44C134.286 58.9733 134.419 59.4267 134.686 59.8C134.979 60.1467 135.366 60.4133 135.846 60.6C136.326 60.76 136.846 60.84 137.406 60.84ZM160.78 65.28C158.407 65.28 156.647 64.6133 155.5 63.28C154.38 61.9467 153.82 60.12 153.82 57.8V48.92H150.66V43.92H153.82V38.24H159.42V43.92H165.82V48.92H159.42V56.64C159.42 57.3333 159.5 57.9333 159.66 58.44C159.847 58.9467 160.14 59.3467 160.54 59.64C160.967 59.9067 161.54 60.04 162.26 60.04C162.9 60.04 163.434 59.9467 163.86 59.76C164.314 59.5467 164.687 59.32 164.98 59.08L166.74 63.4C166.18 63.8533 165.554 64.2267 164.86 64.52C164.194 64.7867 163.514 64.9733 162.82 65.08C162.127 65.2133 161.447 65.28 160.78 65.28ZM178.695 65.28C176.482 65.28 174.602 64.84 173.055 63.96C171.509 63.08 170.322 61.84 169.495 60.24C168.669 58.6133 168.255 56.72 168.255 54.56C168.255 52.3733 168.682 50.4667 169.535 48.84C170.389 47.1867 171.589 45.8933 173.135 44.96C174.709 44.0267 176.562 43.56 178.695 43.56C180.295 43.56 181.695 43.8267 182.895 44.36C184.122 44.8933 185.149 45.64 185.975 46.6C186.829 47.56 187.455 48.68 187.855 49.96C188.282 51.2133 188.482 52.5733 188.455 54.04C188.455 54.4133 188.442 54.7733 188.415 55.12C188.389 55.4667 188.335 55.8133 188.255 56.16H173.815C173.895 56.96 174.122 57.6933 174.495 58.36C174.869 59.0267 175.389 59.56 176.055 59.96C176.749 60.3333 177.602 60.52 178.615 60.52C179.282 60.52 179.895 60.4533 180.455 60.32C181.015 60.16 181.495 59.92 181.895 59.6C182.295 59.28 182.575 58.9067 182.735 58.48H188.255C187.909 60.0533 187.255 61.3467 186.295 62.36C185.362 63.3733 184.229 64.12 182.895 64.6C181.562 65.0533 180.162 65.28 178.695 65.28ZM173.935 52.24H183.095C183.069 51.52 182.882 50.8533 182.535 50.24C182.215 49.6 181.722 49.0933 181.055 48.72C180.415 48.32 179.589 48.12 178.575 48.12C177.562 48.12 176.709 48.32 176.015 48.72C175.349 49.12 174.842 49.64 174.495 50.28C174.175 50.8933 173.989 51.5467 173.935 52.24ZM202.223 74.76C200.57 74.76 199.05 74.4933 197.663 73.96C196.277 73.4533 195.103 72.64 194.143 71.52C193.183 70.4 192.53 68.96 192.183 67.2H197.903C198.09 67.7333 198.383 68.1733 198.783 68.52C199.21 68.8933 199.717 69.1733 200.303 69.36C200.917 69.5467 201.557 69.64 202.223 69.64C203.477 69.64 204.45 69.3733 205.143 68.84C205.837 68.3067 206.317 67.6 206.583 66.72C206.85 65.8667 206.983 64.92 206.983 63.88V62.4C206.503 63.1733 205.903 63.76 205.183 64.16C204.463 64.56 203.703 64.84 202.903 65C202.13 65.1867 201.383 65.28 200.663 65.28C198.45 65.28 196.65 64.7867 195.263 63.8C193.877 62.8133 192.863 61.52 192.223 59.92C191.583 58.2933 191.263 56.5467 191.263 54.68C191.263 52.6267 191.623 50.76 192.343 49.08C193.063 47.4 194.143 46.0667 195.583 45.08C197.023 44.0933 198.823 43.6 200.983 43.6C202.29 43.6 203.45 43.8133 204.463 44.24C205.477 44.64 206.343 45.24 207.063 46.04L207.543 43.92H212.663V62.32C212.663 64.88 212.33 67.08 211.663 68.92C210.997 70.7867 209.89 72.2267 208.343 73.24C206.823 74.2533 204.783 74.76 202.223 74.76ZM201.903 60.24C203.077 60.24 204.037 59.9733 204.783 59.44C205.557 58.9067 206.13 58.2 206.503 57.32C206.877 56.4133 207.063 55.44 207.063 54.4C207.063 53.3067 206.877 52.3333 206.503 51.48C206.13 50.6 205.57 49.9067 204.823 49.4C204.077 48.8667 203.117 48.6 201.943 48.6C200.663 48.6 199.65 48.9067 198.903 49.52C198.157 50.1067 197.623 50.8533 197.303 51.76C197.01 52.64 196.863 53.5733 196.863 54.56C196.863 55.5733 197.023 56.52 197.343 57.4C197.663 58.2533 198.197 58.9467 198.943 59.48C199.69 59.9867 200.677 60.24 201.903 60.24ZM226.383 74.72C224.757 74.72 223.17 74.5067 221.623 74.08C220.077 73.6533 218.623 72.9333 217.263 71.92L219.143 67.44C219.997 68.08 220.97 68.5867 222.063 68.96C223.157 69.36 224.37 69.56 225.703 69.56C227.757 69.56 229.277 69.08 230.263 68.12C231.277 67.16 231.783 65.7733 231.783 63.96V62.84C231.33 63.4533 230.757 63.9467 230.063 64.32C229.397 64.6667 228.677 64.92 227.903 65.08C227.13 65.24 226.357 65.32 225.583 65.32C223.557 65.32 221.93 64.8933 220.703 64.04C219.477 63.1867 218.583 62.0267 218.023 60.56C217.49 59.0667 217.223 57.3733 217.223 55.48V43.92H222.823V54.32C222.823 55.0133 222.863 55.7067 222.943 56.4C223.023 57.0933 223.21 57.7333 223.503 58.32C223.797 58.9067 224.237 59.3867 224.823 59.76C225.41 60.1067 226.197 60.28 227.183 60.28C228.463 60.28 229.423 59.9733 230.063 59.36C230.703 58.72 231.13 57.92 231.343 56.96C231.583 56 231.703 55 231.703 53.96V43.92H237.303V61.96C237.303 63.88 237.117 65.6267 236.743 67.2C236.397 68.7733 235.797 70.12 234.943 71.24C234.117 72.36 232.997 73.2133 231.583 73.8C230.197 74.4133 228.463 74.72 226.383 74.72Z" fill="white"/>
<defs>
<linearGradient id="paint0_linear_481_27708" x1="155.5" y1="0" x2="155.5" y2="104" gradientUnits="userSpaceOnUse">
<stop stop-color="#1A83D4"/>
<stop offset="1" stop-color="#FE7072"/>
</linearGradient>
</defs>
</svg>
