<svg width="312" height="104" viewBox="0 0 312 104" fill="none" xmlns="http://www.w3.org/2000/svg">
<rect width="312" height="104" rx="9" fill="url(#paint0_linear_481_27705)"/>
<path d="M39.9808 65.32C38.0074 65.32 36.1674 65.0133 34.4608 64.4C32.7808 63.7867 31.3674 62.8133 30.2208 61.48C29.1008 60.1467 28.3941 58.4267 28.1008 56.32H33.9408C34.1808 57.2267 34.6208 57.96 35.2608 58.52C35.9008 59.0533 36.6608 59.44 37.5408 59.68C38.4474 59.92 39.3941 60.04 40.3808 60.04C41.1274 60.04 41.8608 59.9467 42.5808 59.76C43.3008 59.5733 43.8874 59.2533 44.3408 58.8C44.8208 58.3467 45.0608 57.7333 45.0608 56.96C45.0608 56.3733 44.9274 55.8933 44.6608 55.52C44.4208 55.1467 44.0608 54.8533 43.5808 54.64C43.1274 54.4 42.5674 54.1867 41.9008 54C41.3408 53.84 40.7541 53.7067 40.1408 53.6C39.5541 53.4933 38.9674 53.36 38.3808 53.2C37.8208 53.04 37.2741 52.8533 36.7408 52.64C35.7274 52.3733 34.7541 52.0533 33.8208 51.68C32.8874 51.28 32.0608 50.7867 31.3408 50.2C30.6208 49.5867 30.0474 48.8267 29.6208 47.92C29.2208 47.0133 29.0208 45.92 29.0208 44.64C29.0208 43.2533 29.2474 42.08 29.7008 41.12C30.1808 40.16 30.8074 39.3733 31.5808 38.76C32.3808 38.12 33.2608 37.6267 34.2208 37.28C35.2074 36.9333 36.1941 36.6933 37.1808 36.56C38.1674 36.4267 39.1008 36.36 39.9808 36.36C41.8208 36.36 43.4741 36.68 44.9408 37.32C46.4074 37.96 47.6074 38.92 48.5408 40.2C49.4741 41.48 50.0074 43.0933 50.1408 45.04H44.5808C44.4741 44.24 44.1808 43.5867 43.7008 43.08C43.2208 42.5733 42.6074 42.2 41.8608 41.96C41.1408 41.72 40.3274 41.6 39.4208 41.6C38.8341 41.6 38.2608 41.6533 37.7008 41.76C37.1408 41.8667 36.6341 42.04 36.1808 42.28C35.7541 42.4933 35.4074 42.7867 35.1408 43.16C34.9008 43.5333 34.7808 43.9867 34.7808 44.52C34.7808 45.0533 34.9274 45.52 35.2208 45.92C35.5141 46.2933 35.9408 46.6267 36.5008 46.92C37.0874 47.1867 37.7674 47.44 38.5408 47.68C39.3408 47.9467 40.1808 48.16 41.0608 48.32C41.9408 48.48 42.7808 48.6933 43.5808 48.96C44.5941 49.2267 45.5408 49.5467 46.4208 49.92C47.3008 50.2667 48.0741 50.72 48.7408 51.28C49.4074 51.8133 49.9274 52.5067 50.3008 53.36C50.6741 54.1867 50.8608 55.2133 50.8608 56.44C50.8608 58.0667 50.5541 59.4533 49.9408 60.6C49.3541 61.72 48.5408 62.6267 47.5008 63.32C46.4874 64.0133 45.3274 64.52 44.0208 64.84C42.7141 65.16 41.3674 65.32 39.9808 65.32ZM54.907 65V43.92H60.507V65H54.907ZM57.707 41.8C56.667 41.8 55.827 41.4933 55.187 40.88C54.547 40.24 54.227 39.4267 54.227 38.44C54.227 37.4 54.5604 36.56 55.227 35.92C55.8937 35.28 56.7337 34.96 57.747 34.96C58.6804 34.96 59.4804 35.28 60.147 35.92C60.8404 36.5333 61.187 37.36 61.187 38.4C61.187 39.4133 60.8537 40.24 60.187 40.88C59.547 41.4933 58.7204 41.8 57.707 41.8ZM64.9461 65V43.92H70.1861L70.4661 46.36C71.0528 45.64 71.7194 45.08 72.4661 44.68C73.2394 44.2533 74.0128 43.96 74.7861 43.8C75.5861 43.64 76.3061 43.56 76.9461 43.56C78.9728 43.56 80.5461 44 81.6661 44.88C82.8128 45.76 83.6261 46.9467 84.1061 48.44C84.6128 49.9067 84.8661 51.5467 84.8661 53.36V65H79.2661V54.08C79.2661 53.44 79.2128 52.8 79.1061 52.16C78.9994 51.52 78.7994 50.9333 78.5061 50.4C78.2394 49.8667 77.8528 49.44 77.3461 49.12C76.8394 48.8 76.1728 48.64 75.3461 48.64C74.2794 48.64 73.3861 48.9067 72.6661 49.44C71.9461 49.9733 71.4128 50.6933 71.0661 51.6C70.7194 52.5067 70.5461 53.5067 70.5461 54.6V65H64.9461ZM99.3248 74.76C97.6715 74.76 96.1515 74.4933 94.7648 73.96C93.3782 73.4533 92.2048 72.64 91.2448 71.52C90.2848 70.4 89.6315 68.96 89.2848 67.2H95.0048C95.1915 67.7333 95.4848 68.1733 95.8848 68.52C96.3115 68.8933 96.8182 69.1733 97.4048 69.36C98.0182 69.5467 98.6582 69.64 99.3248 69.64C100.578 69.64 101.552 69.3733 102.245 68.84C102.938 68.3067 103.418 67.6 103.685 66.72C103.952 65.8667 104.085 64.92 104.085 63.88V62.4C103.605 63.1733 103.005 63.76 102.285 64.16C101.565 64.56 100.805 64.84 100.005 65C99.2315 65.1867 98.4848 65.28 97.7648 65.28C95.5515 65.28 93.7515 64.7867 92.3648 63.8C90.9782 62.8133 89.9648 61.52 89.3248 59.92C88.6848 58.2933 88.3648 56.5467 88.3648 54.68C88.3648 52.6267 88.7248 50.76 89.4448 49.08C90.1648 47.4 91.2448 46.0667 92.6848 45.08C94.1248 44.0933 95.9248 43.6 98.0848 43.6C99.3915 43.6 100.552 43.8133 101.565 44.24C102.578 44.64 103.445 45.24 104.165 46.04L104.645 43.92H109.765V62.32C109.765 64.88 109.432 67.08 108.765 68.92C108.098 70.7867 106.992 72.2267 105.445 73.24C103.925 74.2533 101.885 74.76 99.3248 74.76ZM99.0048 60.24C100.178 60.24 101.138 59.9733 101.885 59.44C102.658 58.9067 103.232 58.2 103.605 57.32C103.978 56.4133 104.165 55.44 104.165 54.4C104.165 53.3067 103.978 52.3333 103.605 51.48C103.232 50.6 102.672 49.9067 101.925 49.4C101.178 48.8667 100.218 48.6 99.0448 48.6C97.7648 48.6 96.7515 48.9067 96.0048 49.52C95.2582 50.1067 94.7248 50.8533 94.4048 51.76C94.1115 52.64 93.9648 53.5733 93.9648 54.56C93.9648 55.5733 94.1248 56.52 94.4448 57.4C94.7648 58.2533 95.2982 58.9467 96.0448 59.48C96.7915 59.9867 97.7782 60.24 99.0048 60.24ZM114.165 65V36.68H119.765V65H114.165ZM133.844 65.28C131.631 65.28 129.751 64.84 128.204 63.96C126.657 63.08 125.471 61.84 124.644 60.24C123.817 58.6133 123.404 56.72 123.404 54.56C123.404 52.3733 123.831 50.4667 124.684 48.84C125.537 47.1867 126.737 45.8933 128.284 44.96C129.857 44.0267 131.711 43.56 133.844 43.56C135.444 43.56 136.844 43.8267 138.044 44.36C139.271 44.8933 140.297 45.64 141.124 46.6C141.977 47.56 142.604 48.68 143.004 49.96C143.431 51.2133 143.631 52.5733 143.604 54.04C143.604 54.4133 143.591 54.7733 143.564 55.12C143.537 55.4667 143.484 55.8133 143.404 56.16H128.964C129.044 56.96 129.271 57.6933 129.644 58.36C130.017 59.0267 130.537 59.56 131.204 59.96C131.897 60.3333 132.751 60.52 133.764 60.52C134.431 60.52 135.044 60.4533 135.604 60.32C136.164 60.16 136.644 59.92 137.044 59.6C137.444 59.28 137.724 58.9067 137.884 58.48H143.404C143.057 60.0533 142.404 61.3467 141.444 62.36C140.511 63.3733 139.377 64.12 138.044 64.6C136.711 65.0533 135.311 65.28 133.844 65.28ZM129.084 52.24H138.244C138.217 51.52 138.031 50.8533 137.684 50.24C137.364 49.6 136.871 49.0933 136.204 48.72C135.564 48.32 134.737 48.12 133.724 48.12C132.711 48.12 131.857 48.32 131.164 48.72C130.497 49.12 129.991 49.64 129.644 50.28C129.324 50.8933 129.137 51.5467 129.084 52.24ZM147.492 55.92V50.88H161.132V55.92H147.492ZM165.805 72.88V43.92H171.045L171.325 46.56C172.179 45.52 173.152 44.76 174.245 44.28C175.365 43.8 176.592 43.56 177.925 43.56C180.005 43.56 181.725 44.04 183.085 45C184.445 45.96 185.459 47.2667 186.125 48.92C186.819 50.5467 187.165 52.3733 187.165 54.4C187.165 56.48 186.805 58.3467 186.085 60C185.392 61.6267 184.339 62.92 182.925 63.88C181.512 64.8133 179.752 65.28 177.645 65.28C176.739 65.28 175.885 65.1733 175.085 64.96C174.285 64.7467 173.579 64.4667 172.965 64.12C172.352 63.7467 171.832 63.3333 171.405 62.88V72.88H165.805ZM176.685 60.24C177.939 60.24 178.925 59.96 179.645 59.4C180.365 58.84 180.872 58.1333 181.165 57.28C181.459 56.4 181.605 55.4933 181.605 54.56C181.605 53.5467 181.445 52.5867 181.125 51.68C180.805 50.7733 180.272 50.0533 179.525 49.52C178.805 48.96 177.819 48.68 176.565 48.68C175.445 48.68 174.499 48.96 173.725 49.52C172.952 50.0533 172.365 50.76 171.965 51.64C171.565 52.52 171.365 53.4667 171.365 54.48C171.365 55.4933 171.552 56.44 171.925 57.32C172.325 58.2 172.912 58.9067 173.685 59.44C174.485 59.9733 175.485 60.24 176.685 60.24ZM190.766 65V36.68H196.366V65H190.766ZM207.485 65.28C206.525 65.28 205.592 65.16 204.685 64.92C203.805 64.6533 203.019 64.2533 202.325 63.72C201.632 63.1867 201.085 62.52 200.685 61.72C200.285 60.92 200.085 59.9867 200.085 58.92C200.085 57.48 200.379 56.3333 200.965 55.48C201.552 54.6 202.339 53.9333 203.325 53.48C204.312 53.0267 205.445 52.72 206.725 52.56C208.032 52.4 209.379 52.32 210.765 52.32H213.805C213.805 51.5467 213.659 50.8667 213.365 50.28C213.099 49.6667 212.685 49.2 212.125 48.88C211.565 48.5333 210.845 48.36 209.965 48.36C209.405 48.36 208.859 48.44 208.325 48.6C207.819 48.7333 207.392 48.9333 207.045 49.2C206.699 49.4667 206.472 49.8133 206.365 50.24H200.685C200.845 49.0667 201.219 48.0667 201.805 47.24C202.392 46.3867 203.125 45.6933 204.005 45.16C204.885 44.6267 205.845 44.24 206.885 44C207.952 43.7333 209.045 43.6 210.165 43.6C213.232 43.6 215.499 44.48 216.965 46.24C218.432 47.9733 219.165 50.44 219.165 53.64V65H214.125L214.045 62.28C213.379 63.2133 212.619 63.8933 211.765 64.32C210.939 64.7467 210.139 65.0133 209.365 65.12C208.592 65.2267 207.965 65.28 207.485 65.28ZM208.765 60.84C209.699 60.84 210.552 60.6533 211.325 60.28C212.099 59.9067 212.712 59.4 213.165 58.76C213.619 58.12 213.845 57.4 213.845 56.6V56.08H210.005C209.445 56.08 208.899 56.1067 208.365 56.16C207.859 56.2133 207.392 56.32 206.965 56.48C206.565 56.6133 206.245 56.84 206.005 57.16C205.765 57.48 205.645 57.9067 205.645 58.44C205.645 58.9733 205.779 59.4267 206.045 59.8C206.339 60.1467 206.725 60.4133 207.205 60.6C207.685 60.76 208.205 60.84 208.765 60.84ZM232.86 74.72C231.233 74.72 229.647 74.5067 228.1 74.08C226.553 73.6533 225.1 72.9333 223.74 71.92L225.62 67.44C226.473 68.08 227.447 68.5867 228.54 68.96C229.633 69.36 230.847 69.56 232.18 69.56C234.233 69.56 235.753 69.08 236.74 68.12C237.753 67.16 238.26 65.7733 238.26 63.96V62.84C237.807 63.4533 237.233 63.9467 236.54 64.32C235.873 64.6667 235.153 64.92 234.38 65.08C233.607 65.24 232.833 65.32 232.06 65.32C230.033 65.32 228.407 64.8933 227.18 64.04C225.953 63.1867 225.06 62.0267 224.5 60.56C223.967 59.0667 223.7 57.3733 223.7 55.48V43.92H229.3V54.32C229.3 55.0133 229.34 55.7067 229.42 56.4C229.5 57.0933 229.687 57.7333 229.98 58.32C230.273 58.9067 230.713 59.3867 231.3 59.76C231.887 60.1067 232.673 60.28 233.66 60.28C234.94 60.28 235.9 59.9733 236.54 59.36C237.18 58.72 237.607 57.92 237.82 56.96C238.06 56 238.18 55 238.18 53.96V43.92H243.78V61.96C243.78 63.88 243.593 65.6267 243.22 67.2C242.873 68.7733 242.273 70.12 241.42 71.24C240.593 72.36 239.473 73.2133 238.06 73.8C236.673 74.4133 234.94 74.72 232.86 74.72ZM257.828 65.28C255.615 65.28 253.735 64.84 252.188 63.96C250.642 63.08 249.455 61.84 248.628 60.24C247.802 58.6133 247.388 56.72 247.388 54.56C247.388 52.3733 247.815 50.4667 248.668 48.84C249.522 47.1867 250.722 45.8933 252.268 44.96C253.842 44.0267 255.695 43.56 257.828 43.56C259.428 43.56 260.828 43.8267 262.028 44.36C263.255 44.8933 264.282 45.64 265.108 46.6C265.962 47.56 266.588 48.68 266.988 49.96C267.415 51.2133 267.615 52.5733 267.588 54.04C267.588 54.4133 267.575 54.7733 267.548 55.12C267.522 55.4667 267.468 55.8133 267.388 56.16H252.948C253.028 56.96 253.255 57.6933 253.628 58.36C254.002 59.0267 254.522 59.56 255.188 59.96C255.882 60.3333 256.735 60.52 257.748 60.52C258.415 60.52 259.028 60.4533 259.588 60.32C260.148 60.16 260.628 59.92 261.028 59.6C261.428 59.28 261.708 58.9067 261.868 58.48H267.388C267.042 60.0533 266.388 61.3467 265.428 62.36C264.495 63.3733 263.362 64.12 262.028 64.6C260.695 65.0533 259.295 65.28 257.828 65.28ZM253.068 52.24H262.228C262.202 51.52 262.015 50.8533 261.668 50.24C261.348 49.6 260.855 49.0933 260.188 48.72C259.548 48.32 258.722 48.12 257.708 48.12C256.695 48.12 255.842 48.32 255.148 48.72C254.482 49.12 253.975 49.64 253.628 50.28C253.308 50.8933 253.122 51.5467 253.068 52.24ZM271.196 65V43.92H276.236L276.596 46.44C277.129 45.64 277.729 45.04 278.396 44.64C279.063 44.2133 279.756 43.9333 280.476 43.8C281.196 43.64 281.929 43.56 282.676 43.56C283.023 43.56 283.343 43.5733 283.636 43.6C283.929 43.6 284.143 43.6 284.276 43.6V49H282.956C281.703 49 280.609 49.2133 279.676 49.64C278.743 50.0667 278.023 50.7333 277.516 51.64C277.036 52.5467 276.796 53.7067 276.796 55.12V65H271.196Z" fill="white"/>
<defs>
<linearGradient id="paint0_linear_481_27705" x1="156" y1="0" x2="156" y2="104" gradientUnits="userSpaceOnUse">
<stop stop-color="#EB4A4A"/>
<stop offset="1" stop-color="#FE7070"/>
</linearGradient>
</defs>
</svg>
