<svg width="311" height="104" viewBox="0 0 311 104" fill="none" xmlns="http://www.w3.org/2000/svg">
<rect width="311" height="104" rx="9" fill="url(#paint0_linear_481_27710)"/>
<path d="M56.418 65V36.68H67.458C69.618 36.68 71.498 37.0133 73.098 37.68C74.7246 38.32 75.978 39.36 76.858 40.8C77.738 42.2133 78.178 44.1067 78.178 46.48C78.178 48.6933 77.6846 50.5467 76.698 52.04C75.738 53.5333 74.418 54.6533 72.738 55.4C71.058 56.12 69.1513 56.48 67.018 56.48H62.138V65H56.418ZM62.138 51.36H66.938C68.6446 51.36 69.9913 50.96 70.978 50.16C71.9913 49.3333 72.498 48.0933 72.498 46.44C72.498 44.9733 72.0713 43.8667 71.218 43.12C70.3913 42.3733 69.058 42 67.218 42H62.138V51.36ZM81.7508 65V36.68H87.3508V65H81.7508ZM98.4698 65.28C97.5098 65.28 96.5765 65.16 95.6698 64.92C94.7898 64.6533 94.0032 64.2533 93.3098 63.72C92.6165 63.1867 92.0698 62.52 91.6698 61.72C91.2698 60.92 91.0698 59.9867 91.0698 58.92C91.0698 57.48 91.3632 56.3333 91.9498 55.48C92.5365 54.6 93.3232 53.9333 94.3098 53.48C95.2965 53.0267 96.4298 52.72 97.7098 52.56C99.0165 52.4 100.363 52.32 101.75 52.32H104.79C104.79 51.5467 104.643 50.8667 104.35 50.28C104.083 49.6667 103.67 49.2 103.11 48.88C102.55 48.5333 101.83 48.36 100.95 48.36C100.39 48.36 99.8432 48.44 99.3098 48.6C98.8032 48.7333 98.3765 48.9333 98.0298 49.2C97.6832 49.4667 97.4565 49.8133 97.3498 50.24H91.6698C91.8298 49.0667 92.2032 48.0667 92.7898 47.24C93.3765 46.3867 94.1098 45.6933 94.9898 45.16C95.8698 44.6267 96.8298 44.24 97.8698 44C98.9365 43.7333 100.03 43.6 101.15 43.6C104.217 43.6 106.483 44.48 107.95 46.24C109.417 47.9733 110.15 50.44 110.15 53.64V65H105.11L105.03 62.28C104.363 63.2133 103.603 63.8933 102.75 64.32C101.923 64.7467 101.123 65.0133 100.35 65.12C99.5765 65.2267 98.9498 65.28 98.4698 65.28ZM99.7498 60.84C100.683 60.84 101.537 60.6533 102.31 60.28C103.083 59.9067 103.697 59.4 104.15 58.76C104.603 58.12 104.83 57.4 104.83 56.6V56.08H100.99C100.43 56.08 99.8832 56.1067 99.3498 56.16C98.8432 56.2133 98.3765 56.32 97.9498 56.48C97.5498 56.6133 97.2298 56.84 96.9898 57.16C96.7498 57.48 96.6298 57.9067 96.6298 58.44C96.6298 58.9733 96.7632 59.4267 97.0298 59.8C97.3232 60.1467 97.7098 60.4133 98.1898 60.6C98.6698 60.76 99.1898 60.84 99.7498 60.84ZM123.124 65.28C120.751 65.28 118.991 64.6133 117.844 63.28C116.724 61.9467 116.164 60.12 116.164 57.8V48.92H113.004V43.92H116.164V38.24H121.764V43.92H128.164V48.92H121.764V56.64C121.764 57.3333 121.844 57.9333 122.004 58.44C122.191 58.9467 122.484 59.3467 122.884 59.64C123.311 59.9067 123.884 60.04 124.604 60.04C125.244 60.04 125.778 59.9467 126.204 59.76C126.658 59.5467 127.031 59.32 127.324 59.08L129.084 63.4C128.524 63.8533 127.898 64.2267 127.204 64.52C126.538 64.7867 125.858 64.9733 125.164 65.08C124.471 65.2133 123.791 65.28 123.124 65.28ZM133.159 65V48.92H129.999V43.92H133.159V42C133.159 40.4 133.413 39.0933 133.919 38.08C134.453 37.04 135.253 36.28 136.319 35.8C137.413 35.32 138.799 35.08 140.479 35.08H143.959V40.04H141.199C140.586 40.04 140.093 40.1333 139.719 40.32C139.373 40.5067 139.133 40.8 138.999 41.2C138.866 41.5733 138.799 42.04 138.799 42.6V43.92H143.959V48.92H138.799V65H133.159ZM156.2 65.28C154.067 65.28 152.2 64.8533 150.6 64C149 63.12 147.76 61.88 146.88 60.28C146 58.6533 145.56 56.7333 145.56 54.52C145.56 52.2533 146 50.3067 146.88 48.68C147.787 47.0267 149.04 45.76 150.64 44.88C152.24 44 154.08 43.56 156.16 43.56C158.293 43.56 160.147 44.0133 161.72 44.92C163.293 45.8267 164.52 47.0933 165.4 48.72C166.28 50.3467 166.72 52.2933 166.72 54.56C166.72 56.7733 166.28 58.6933 165.4 60.32C164.547 61.92 163.333 63.1467 161.76 64C160.213 64.8533 158.36 65.28 156.2 65.28ZM156.12 60.16C157.347 60.16 158.333 59.8933 159.08 59.36C159.827 58.8267 160.36 58.1333 160.68 57.28C161.027 56.4 161.2 55.48 161.2 54.52C161.2 53.56 161.027 52.64 160.68 51.76C160.36 50.88 159.827 50.16 159.08 49.6C158.36 49.0133 157.373 48.72 156.12 48.72C154.92 48.72 153.947 49.0133 153.2 49.6C152.453 50.16 151.907 50.88 151.56 51.76C151.24 52.64 151.08 53.56 151.08 54.52C151.08 55.5067 151.24 56.4267 151.56 57.28C151.907 58.1333 152.453 58.8267 153.2 59.36C153.947 59.8933 154.92 60.16 156.12 60.16ZM170.305 65V43.92H175.345L175.705 46.44C176.239 45.64 176.839 45.04 177.505 44.64C178.172 44.2133 178.865 43.9333 179.585 43.8C180.305 43.64 181.039 43.56 181.785 43.56C182.132 43.56 182.452 43.5733 182.745 43.6C183.039 43.6 183.252 43.6 183.385 43.6V49H182.065C180.812 49 179.719 49.2133 178.785 49.64C177.852 50.0667 177.132 50.7333 176.625 51.64C176.145 52.5467 175.905 53.7067 175.905 55.12V65H170.305ZM186.009 65V43.92H191.049L191.529 46.28C192.062 45.5333 192.649 44.9733 193.289 44.6C193.955 44.2 194.622 43.9333 195.289 43.8C195.955 43.6667 196.569 43.6 197.129 43.6C198.382 43.6 199.489 43.84 200.449 44.32C201.409 44.8 202.182 45.5733 202.769 46.64C203.329 45.8667 203.942 45.2667 204.609 44.84C205.275 44.3867 205.982 44.0667 206.729 43.88C207.475 43.6933 208.235 43.6 209.009 43.6C210.635 43.6 211.942 43.9467 212.929 44.64C213.942 45.3067 214.675 46.24 215.129 47.44C215.609 48.64 215.849 50.04 215.849 51.64V65H210.249V53.12C210.249 52.64 210.222 52.1467 210.169 51.64C210.115 51.1333 209.982 50.6533 209.769 50.2C209.582 49.7467 209.289 49.3733 208.889 49.08C208.515 48.7867 207.982 48.64 207.289 48.64C206.622 48.64 206.062 48.7867 205.609 49.08C205.155 49.3733 204.795 49.7733 204.529 50.28C204.262 50.76 204.062 51.2933 203.929 51.88C203.822 52.44 203.769 53.0133 203.769 53.6V65H198.169V53.08C198.169 52.6267 198.142 52.1467 198.089 51.64C198.035 51.1333 197.915 50.6533 197.729 50.2C197.542 49.7467 197.235 49.3733 196.809 49.08C196.409 48.7867 195.849 48.64 195.129 48.64C194.142 48.64 193.382 48.9333 192.849 49.52C192.342 50.08 192.009 50.76 191.849 51.56C191.689 52.3333 191.609 53.0533 191.609 53.72V65H186.009ZM229.711 65.28C227.498 65.28 225.618 64.84 224.071 63.96C222.524 63.08 221.338 61.84 220.511 60.24C219.684 58.6133 219.271 56.72 219.271 54.56C219.271 52.3733 219.698 50.4667 220.551 48.84C221.404 47.1867 222.604 45.8933 224.151 44.96C225.724 44.0267 227.578 43.56 229.711 43.56C231.311 43.56 232.711 43.8267 233.911 44.36C235.138 44.8933 236.164 45.64 236.991 46.6C237.844 47.56 238.471 48.68 238.871 49.96C239.298 51.2133 239.498 52.5733 239.471 54.04C239.471 54.4133 239.458 54.7733 239.431 55.12C239.404 55.4667 239.351 55.8133 239.271 56.16H224.831C224.911 56.96 225.138 57.6933 225.511 58.36C225.884 59.0267 226.404 59.56 227.071 59.96C227.764 60.3333 228.618 60.52 229.631 60.52C230.298 60.52 230.911 60.4533 231.471 60.32C232.031 60.16 232.511 59.92 232.911 59.6C233.311 59.28 233.591 58.9067 233.751 58.48H239.271C238.924 60.0533 238.271 61.3467 237.311 62.36C236.378 63.3733 235.244 64.12 233.911 64.6C232.578 65.0533 231.178 65.28 229.711 65.28ZM224.951 52.24H234.111C234.084 51.52 233.898 50.8533 233.551 50.24C233.231 49.6 232.738 49.0933 232.071 48.72C231.431 48.32 230.604 48.12 229.591 48.12C228.578 48.12 227.724 48.32 227.031 48.72C226.364 49.12 225.858 49.64 225.511 50.28C225.191 50.8933 225.004 51.5467 224.951 52.24ZM243.079 65V43.92H248.119L248.479 46.44C249.012 45.64 249.612 45.04 250.279 44.64C250.946 44.2133 251.639 43.9333 252.359 43.8C253.079 43.64 253.812 43.56 254.559 43.56C254.906 43.56 255.226 43.5733 255.519 43.6C255.812 43.6 256.026 43.6 256.159 43.6V49H254.839C253.586 49 252.492 49.2133 251.559 49.64C250.626 50.0667 249.906 50.7333 249.399 51.64C248.919 52.5467 248.679 53.7067 248.679 55.12V65H243.079Z" fill="white"/>
<defs>
<linearGradient id="paint0_linear_481_27710" x1="155.5" y1="0" x2="155.5" y2="104" gradientUnits="userSpaceOnUse">
<stop stop-color="#370909"/>
<stop offset="1" stop-color="#C62020"/>
</linearGradient>
</defs>
</svg>
