<svg width="311" height="104" viewBox="0 0 311 104" fill="none" xmlns="http://www.w3.org/2000/svg">
<rect width="311" height="104" rx="9" fill="url(#paint0_linear_481_27707)"/>
<path d="M107.055 65V36.68H114.655L122.215 50.36L129.695 36.68H137.015V65H131.295V44.32L123.255 58.68H120.935L112.775 44.32V65H107.055ZM143.031 65V36.68H150.631L158.191 50.36L165.671 36.68H172.991V65H167.271V44.32L159.231 58.68H156.911L148.751 44.32V65H143.031ZM191.408 65.32C188.501 65.32 185.994 64.7067 183.888 63.48C181.808 62.2533 180.208 60.56 179.088 58.4C177.994 56.2133 177.448 53.7067 177.448 50.88C177.448 48 178.008 45.4667 179.128 43.28C180.274 41.0933 181.901 39.4 184.008 38.2C186.114 36.9733 188.621 36.36 191.528 36.36C194.408 36.36 196.888 36.96 198.968 38.16C201.048 39.36 202.648 41.04 203.768 43.2C204.914 45.36 205.488 47.88 205.488 50.76C205.488 53.5867 204.914 56.1067 203.768 58.32C202.648 60.5067 201.034 62.2267 198.928 63.48C196.848 64.7067 194.341 65.32 191.408 65.32ZM191.488 59.96C193.408 59.96 194.968 59.52 196.168 58.64C197.368 57.76 198.234 56.6267 198.768 55.24C199.328 53.8533 199.608 52.4 199.608 50.88C199.608 49.76 199.448 48.6533 199.128 47.56C198.834 46.4667 198.368 45.48 197.728 44.6C197.088 43.72 196.248 43.0267 195.208 42.52C194.168 41.9867 192.914 41.72 191.448 41.72C189.554 41.72 188.008 42.16 186.808 43.04C185.608 43.8933 184.714 45.0133 184.128 46.4C183.568 47.7867 183.288 49.2667 183.288 50.84C183.288 52.4133 183.568 53.8933 184.128 55.28C184.714 56.6667 185.608 57.8 186.808 58.68C188.034 59.5333 189.594 59.96 191.488 59.96Z" fill="white"/>
<defs>
<linearGradient id="paint0_linear_481_27707" x1="155.5" y1="0" x2="155.5" y2="104" gradientUnits="userSpaceOnUse">
<stop stop-color="#7431D7"/>
<stop offset="1" stop-color="#E64B4B" stop-opacity="0.65"/>
</linearGradient>
</defs>
</svg>
