<svg width="311" height="104" viewBox="0 0 311 104" fill="none" xmlns="http://www.w3.org/2000/svg">
<rect width="311" height="104" rx="9" fill="url(#paint0_linear_481_27706)"/>
<path d="M87.0634 65L98.1034 36.68H104.503L115.423 65H109.263L107.503 60.16H94.9834L93.2234 65H87.0634ZM96.8234 55H105.703L101.303 42.76L96.8234 55ZM117.661 65V43.92H122.701L123.061 46.44C123.594 45.64 124.194 45.04 124.861 44.64C125.528 44.2133 126.221 43.9333 126.941 43.8C127.661 43.64 128.394 43.56 129.141 43.56C129.488 43.56 129.808 43.5733 130.101 43.6C130.394 43.6 130.608 43.6 130.741 43.6V49H129.421C128.168 49 127.074 49.2133 126.141 49.64C125.208 50.0667 124.488 50.7333 123.981 51.64C123.501 52.5467 123.261 53.7067 123.261 55.12V65H117.661ZM142.413 65.28C140.253 65.28 138.4 64.84 136.853 63.96C135.333 63.08 134.173 61.84 133.373 60.24C132.573 58.6133 132.173 56.7067 132.173 54.52C132.173 52.3067 132.587 50.3867 133.413 48.76C134.24 47.1067 135.427 45.8267 136.973 44.92C138.547 44.0133 140.44 43.56 142.653 43.56C144.36 43.56 145.88 43.8667 147.213 44.48C148.547 45.0933 149.613 45.9733 150.413 47.12C151.24 48.2667 151.72 49.68 151.853 51.36H146.373C146.133 50.4267 145.667 49.7467 144.973 49.32C144.307 48.8933 143.507 48.68 142.573 48.68C141.373 48.68 140.413 48.9733 139.693 49.56C139 50.1467 138.493 50.8933 138.173 51.8C137.88 52.7067 137.733 53.6133 137.733 54.52C137.733 55.5067 137.893 56.44 138.213 57.32C138.533 58.1733 139.04 58.88 139.733 59.44C140.453 59.9733 141.387 60.24 142.533 60.24C143.493 60.24 144.333 60.0267 145.053 59.6C145.773 59.1467 146.24 58.4533 146.453 57.52H152.053C151.92 59.2533 151.4 60.6933 150.493 61.84C149.587 62.9867 148.427 63.8533 147.013 64.44C145.627 65 144.093 65.28 142.413 65.28ZM162.114 65.28C161.154 65.28 160.221 65.16 159.314 64.92C158.434 64.6533 157.648 64.2533 156.954 63.72C156.261 63.1867 155.714 62.52 155.314 61.72C154.914 60.92 154.714 59.9867 154.714 58.92C154.714 57.48 155.008 56.3333 155.594 55.48C156.181 54.6 156.968 53.9333 157.954 53.48C158.941 53.0267 160.074 52.72 161.354 52.56C162.661 52.4 164.008 52.32 165.394 52.32H168.434C168.434 51.5467 168.288 50.8667 167.994 50.28C167.728 49.6667 167.314 49.2 166.754 48.88C166.194 48.5333 165.474 48.36 164.594 48.36C164.034 48.36 163.488 48.44 162.954 48.6C162.448 48.7333 162.021 48.9333 161.674 49.2C161.328 49.4667 161.101 49.8133 160.994 50.24H155.314C155.474 49.0667 155.848 48.0667 156.434 47.24C157.021 46.3867 157.754 45.6933 158.634 45.16C159.514 44.6267 160.474 44.24 161.514 44C162.581 43.7333 163.674 43.6 164.794 43.6C167.861 43.6 170.128 44.48 171.594 46.24C173.061 47.9733 173.794 50.44 173.794 53.64V65H168.754L168.674 62.28C168.008 63.2133 167.248 63.8933 166.394 64.32C165.568 64.7467 164.768 65.0133 163.994 65.12C163.221 65.2267 162.594 65.28 162.114 65.28ZM163.394 60.84C164.328 60.84 165.181 60.6533 165.954 60.28C166.728 59.9067 167.341 59.4 167.794 58.76C168.248 58.12 168.474 57.4 168.474 56.6V56.08H164.634C164.074 56.08 163.528 56.1067 162.994 56.16C162.488 56.2133 162.021 56.32 161.594 56.48C161.194 56.6133 160.874 56.84 160.634 57.16C160.394 57.48 160.274 57.9067 160.274 58.44C160.274 58.9733 160.408 59.4267 160.674 59.8C160.968 60.1467 161.354 60.4133 161.834 60.6C162.314 60.76 162.834 60.84 163.394 60.84ZM186.849 65.28C184.715 65.28 182.942 64.8 181.529 63.84C180.142 62.8533 179.102 61.5467 178.409 59.92C177.715 58.2667 177.369 56.44 177.369 54.44C177.369 52.3333 177.742 50.4667 178.489 48.84C179.235 47.1867 180.342 45.8933 181.809 44.96C183.275 44.0267 185.102 43.56 187.289 43.56C188.035 43.56 188.769 43.6533 189.489 43.84C190.235 44 190.915 44.2533 191.529 44.6C192.169 44.92 192.715 45.3467 193.169 45.88V36.68H198.769V65H193.329L193.249 62.64C192.769 63.2533 192.182 63.76 191.489 64.16C190.822 64.5333 190.102 64.8133 189.329 65C188.555 65.1867 187.729 65.28 186.849 65.28ZM187.969 60.24C189.169 60.24 190.142 59.96 190.889 59.4C191.662 58.84 192.235 58.12 192.609 57.24C192.982 56.36 193.169 55.4133 193.169 54.4C193.169 53.36 192.982 52.4133 192.609 51.56C192.262 50.68 191.702 49.9867 190.929 49.48C190.182 48.9467 189.195 48.68 187.969 48.68C186.742 48.68 185.755 48.96 185.009 49.52C184.262 50.08 183.729 50.8133 183.409 51.72C183.115 52.6 182.969 53.5467 182.969 54.56C182.969 55.3067 183.049 56.0267 183.209 56.72C183.395 57.3867 183.689 57.9867 184.089 58.52C184.489 59.0533 185.009 59.48 185.649 59.8C186.289 60.0933 187.062 60.24 187.969 60.24ZM212.809 65.28C210.595 65.28 208.715 64.84 207.169 63.96C205.622 63.08 204.435 61.84 203.609 60.24C202.782 58.6133 202.369 56.72 202.369 54.56C202.369 52.3733 202.795 50.4667 203.649 48.84C204.502 47.1867 205.702 45.8933 207.249 44.96C208.822 44.0267 210.675 43.56 212.809 43.56C214.409 43.56 215.809 43.8267 217.009 44.36C218.235 44.8933 219.262 45.64 220.089 46.6C220.942 47.56 221.569 48.68 221.969 49.96C222.395 51.2133 222.595 52.5733 222.569 54.04C222.569 54.4133 222.555 54.7733 222.529 55.12C222.502 55.4667 222.449 55.8133 222.369 56.16H207.929C208.009 56.96 208.235 57.6933 208.609 58.36C208.982 59.0267 209.502 59.56 210.169 59.96C210.862 60.3333 211.715 60.52 212.729 60.52C213.395 60.52 214.009 60.4533 214.569 60.32C215.129 60.16 215.609 59.92 216.009 59.6C216.409 59.28 216.689 58.9067 216.849 58.48H222.369C222.022 60.0533 221.369 61.3467 220.409 62.36C219.475 63.3733 218.342 64.12 217.009 64.6C215.675 65.0533 214.275 65.28 212.809 65.28ZM208.049 52.24H217.209C217.182 51.52 216.995 50.8533 216.649 50.24C216.329 49.6 215.835 49.0933 215.169 48.72C214.529 48.32 213.702 48.12 212.689 48.12C211.675 48.12 210.822 48.32 210.129 48.72C209.462 49.12 208.955 49.64 208.609 50.28C208.289 50.8933 208.102 51.5467 208.049 52.24Z" fill="white"/>
<defs>
<linearGradient id="paint0_linear_481_27706" x1="155.5" y1="0" x2="155.5" y2="104" gradientUnits="userSpaceOnUse">
<stop stop-color="#8BFA46"/>
<stop offset="1" stop-color="#59E6FF" stop-opacity="0.66"/>
</linearGradient>
</defs>
</svg>
