<svg width="311" height="104" viewBox="0 0 311 104" fill="none" xmlns="http://www.w3.org/2000/svg">
<rect width="311" height="104" rx="9" fill="url(#paint0_linear_481_27711)"/>
<path d="M137.974 65L127.654 36.68H133.894L141.814 60.16L149.574 36.68H155.774L145.494 65H137.974ZM159.008 65V36.68H170.408C171.821 36.68 173.168 36.8267 174.448 37.12C175.754 37.3867 176.928 37.8533 177.968 38.52C179.008 39.1867 179.821 40.12 180.408 41.32C181.021 42.4933 181.328 44 181.328 45.84C181.328 47.2 181.101 48.4267 180.648 49.52C180.194 50.6133 179.528 51.5467 178.648 52.32C177.768 53.0933 176.714 53.6933 175.488 54.12L181.768 65H175.328L169.808 55.04H164.728V65H159.008ZM164.728 49.96H170.008C170.834 49.96 171.581 49.8933 172.248 49.76C172.941 49.6 173.528 49.36 174.008 49.04C174.514 48.72 174.901 48.2933 175.168 47.76C175.461 47.2267 175.608 46.5733 175.608 45.8C175.634 44.8133 175.421 44.0533 174.968 43.52C174.541 42.96 173.928 42.5733 173.128 42.36C172.354 42.12 171.434 42 170.368 42H164.728V49.96Z" fill="white"/>
<defs>
<linearGradient id="paint0_linear_481_27711" x1="155.5" y1="0" x2="155.5" y2="104" gradientUnits="userSpaceOnUse">
<stop stop-color="#0F0066"/>
<stop offset="1" stop-color="#225B6B"/>
</linearGradient>
</defs>
</svg>
