<svg width="311" height="104" viewBox="0 0 311 104" fill="none" xmlns="http://www.w3.org/2000/svg">
<rect width="311" height="104" rx="9" fill="url(#paint0_linear_481_27701)"/>
<path d="M119.465 65V36.68H139.625V42H125.185V49.32H137.385V54.6H125.185V65H119.465ZM143.605 65V36.68H154.645C156.805 36.68 158.685 37.0133 160.285 37.68C161.912 38.32 163.165 39.36 164.045 40.8C164.925 42.2133 165.365 44.1067 165.365 46.48C165.365 48.6933 164.872 50.5467 163.885 52.04C162.925 53.5333 161.605 54.6533 159.925 55.4C158.245 56.12 156.339 56.48 154.205 56.48H149.325V65H143.605ZM149.325 51.36H154.125C155.832 51.36 157.179 50.96 158.165 50.16C159.179 49.3333 159.685 48.0933 159.685 46.44C159.685 44.9733 159.259 43.8667 158.405 43.12C157.579 42.3733 156.245 42 154.405 42H149.325V51.36ZM180.809 65.32C178.836 65.32 176.996 65.0133 175.289 64.4C173.609 63.7867 172.196 62.8133 171.049 61.48C169.929 60.1467 169.222 58.4267 168.929 56.32H174.769C175.009 57.2267 175.449 57.96 176.089 58.52C176.729 59.0533 177.489 59.44 178.369 59.68C179.276 59.92 180.222 60.04 181.209 60.04C181.956 60.04 182.689 59.9467 183.409 59.76C184.129 59.5733 184.716 59.2533 185.169 58.8C185.649 58.3467 185.889 57.7333 185.889 56.96C185.889 56.3733 185.756 55.8933 185.489 55.52C185.249 55.1467 184.889 54.8533 184.409 54.64C183.956 54.4 183.396 54.1867 182.729 54C182.169 53.84 181.582 53.7067 180.969 53.6C180.382 53.4933 179.796 53.36 179.209 53.2C178.649 53.04 178.102 52.8533 177.569 52.64C176.556 52.3733 175.582 52.0533 174.649 51.68C173.716 51.28 172.889 50.7867 172.169 50.2C171.449 49.5867 170.876 48.8267 170.449 47.92C170.049 47.0133 169.849 45.92 169.849 44.64C169.849 43.2533 170.076 42.08 170.529 41.12C171.009 40.16 171.636 39.3733 172.409 38.76C173.209 38.12 174.089 37.6267 175.049 37.28C176.036 36.9333 177.022 36.6933 178.009 36.56C178.996 36.4267 179.929 36.36 180.809 36.36C182.649 36.36 184.302 36.68 185.769 37.32C187.236 37.96 188.436 38.92 189.369 40.2C190.302 41.48 190.836 43.0933 190.969 45.04H185.409C185.302 44.24 185.009 43.5867 184.529 43.08C184.049 42.5733 183.436 42.2 182.689 41.96C181.969 41.72 181.156 41.6 180.249 41.6C179.662 41.6 179.089 41.6533 178.529 41.76C177.969 41.8667 177.462 42.04 177.009 42.28C176.582 42.4933 176.236 42.7867 175.969 43.16C175.729 43.5333 175.609 43.9867 175.609 44.52C175.609 45.0533 175.756 45.52 176.049 45.92C176.342 46.2933 176.769 46.6267 177.329 46.92C177.916 47.1867 178.596 47.44 179.369 47.68C180.169 47.9467 181.009 48.16 181.889 48.32C182.769 48.48 183.609 48.6933 184.409 48.96C185.422 49.2267 186.369 49.5467 187.249 49.92C188.129 50.2667 188.902 50.72 189.569 51.28C190.236 51.8133 190.756 52.5067 191.129 53.36C191.502 54.1867 191.689 55.2133 191.689 56.44C191.689 58.0667 191.382 59.4533 190.769 60.6C190.182 61.72 189.369 62.6267 188.329 63.32C187.316 64.0133 186.156 64.52 184.849 64.84C183.542 65.16 182.196 65.32 180.809 65.32Z" fill="white"/>
<defs>
<linearGradient id="paint0_linear_481_27701" x1="155.5" y1="104" x2="155.5" y2="0" gradientUnits="userSpaceOnUse">
<stop stop-color="#478EFF"/>
<stop offset="1" stop-color="#002E77"/>
</linearGradient>
</defs>
</svg>
