<svg width="312" height="104" viewBox="0 0 312 104" fill="none" xmlns="http://www.w3.org/2000/svg">
<rect width="312" height="104" rx="9" fill="url(#paint0_linear_481_27704)"/>
<path d="M79.3477 65V36.68H99.5077V42H85.0677V49.32H97.2677V54.6H85.0677V65H79.3477ZM102.688 65V43.92H108.288V65H102.688ZM105.488 41.8C104.448 41.8 103.608 41.4933 102.968 40.88C102.328 40.24 102.008 39.4267 102.008 38.44C102.008 37.4 102.342 36.56 103.008 35.92C103.675 35.28 104.515 34.96 105.528 34.96C106.462 34.96 107.262 35.28 107.928 35.92C108.622 36.5333 108.968 37.36 108.968 38.4C108.968 39.4133 108.635 40.24 107.968 40.88C107.328 41.4933 106.502 41.8 105.488 41.8ZM122.887 74.76C121.234 74.76 119.714 74.4933 118.327 73.96C116.941 73.4533 115.767 72.64 114.807 71.52C113.847 70.4 113.194 68.96 112.847 67.2H118.567C118.754 67.7333 119.047 68.1733 119.447 68.52C119.874 68.8933 120.381 69.1733 120.967 69.36C121.581 69.5467 122.221 69.64 122.887 69.64C124.141 69.64 125.114 69.3733 125.807 68.84C126.501 68.3067 126.981 67.6 127.247 66.72C127.514 65.8667 127.647 64.92 127.647 63.88V62.4C127.167 63.1733 126.567 63.76 125.847 64.16C125.127 64.56 124.367 64.84 123.567 65C122.794 65.1867 122.047 65.28 121.327 65.28C119.114 65.28 117.314 64.7867 115.927 63.8C114.541 62.8133 113.527 61.52 112.887 59.92C112.247 58.2933 111.927 56.5467 111.927 54.68C111.927 52.6267 112.287 50.76 113.007 49.08C113.727 47.4 114.807 46.0667 116.247 45.08C117.687 44.0933 119.487 43.6 121.647 43.6C122.954 43.6 124.114 43.8133 125.127 44.24C126.141 44.64 127.007 45.24 127.727 46.04L128.207 43.92H133.327V62.32C133.327 64.88 132.994 67.08 132.327 68.92C131.661 70.7867 130.554 72.2267 129.007 73.24C127.487 74.2533 125.447 74.76 122.887 74.76ZM122.567 60.24C123.741 60.24 124.701 59.9733 125.447 59.44C126.221 58.9067 126.794 58.2 127.167 57.32C127.541 56.4133 127.727 55.44 127.727 54.4C127.727 53.3067 127.541 52.3333 127.167 51.48C126.794 50.6 126.234 49.9067 125.487 49.4C124.741 48.8667 123.781 48.6 122.607 48.6C121.327 48.6 120.314 48.9067 119.567 49.52C118.821 50.1067 118.287 50.8533 117.967 51.76C117.674 52.64 117.527 53.5733 117.527 54.56C117.527 55.5733 117.687 56.52 118.007 57.4C118.327 58.2533 118.861 58.9467 119.607 59.48C120.354 59.9867 121.341 60.24 122.567 60.24ZM137.727 65V36.68H143.327V46.36C143.941 45.64 144.621 45.08 145.367 44.68C146.141 44.28 146.914 44 147.687 43.84C148.487 43.6533 149.221 43.56 149.887 43.56C151.861 43.56 153.407 44 154.527 44.88C155.647 45.76 156.447 46.9467 156.927 48.44C157.407 49.9333 157.647 51.5733 157.647 53.36V65H152.047V54.16C152.047 53.52 151.981 52.88 151.847 52.24C151.741 51.6 151.541 51.0133 151.247 50.48C150.954 49.92 150.541 49.48 150.007 49.16C149.474 48.8133 148.767 48.64 147.887 48.64C147.061 48.64 146.354 48.8133 145.767 49.16C145.181 49.5067 144.701 49.9733 144.327 50.56C143.981 51.12 143.727 51.7467 143.567 52.44C143.407 53.1333 143.327 53.8267 143.327 54.52V65H137.727ZM171.506 65C169.746 65 168.266 64.7867 167.066 64.36C165.893 63.9333 164.999 63.2133 164.386 62.2C163.799 61.16 163.506 59.7467 163.506 57.96V48.92H160.386V43.92H163.506V38.28H169.106V43.92H173.706V48.92H169.106V57.16C169.106 58.04 169.266 58.7333 169.586 59.24C169.906 59.7467 170.626 60 171.746 60H173.506V65H171.506ZM176.595 65V43.92H182.195V65H176.595ZM179.395 41.8C178.355 41.8 177.515 41.4933 176.875 40.88C176.235 40.24 175.915 39.4267 175.915 38.44C175.915 37.4 176.248 36.56 176.915 35.92C177.581 35.28 178.421 34.96 179.435 34.96C180.368 34.96 181.168 35.28 181.835 35.92C182.528 36.5333 182.875 37.36 182.875 38.4C182.875 39.4133 182.541 40.24 181.875 40.88C181.235 41.4933 180.408 41.8 179.395 41.8ZM186.634 65V43.92H191.874L192.154 46.36C192.74 45.64 193.407 45.08 194.154 44.68C194.927 44.2533 195.7 43.96 196.474 43.8C197.274 43.64 197.994 43.56 198.634 43.56C200.66 43.56 202.234 44 203.354 44.88C204.5 45.76 205.314 46.9467 205.794 48.44C206.3 49.9067 206.554 51.5467 206.554 53.36V65H200.954V54.08C200.954 53.44 200.9 52.8 200.794 52.16C200.687 51.52 200.487 50.9333 200.194 50.4C199.927 49.8667 199.54 49.44 199.034 49.12C198.527 48.8 197.86 48.64 197.034 48.64C195.967 48.64 195.074 48.9067 194.354 49.44C193.634 49.9733 193.1 50.6933 192.754 51.6C192.407 52.5067 192.234 53.5067 192.234 54.6V65H186.634ZM221.012 74.76C219.359 74.76 217.839 74.4933 216.452 73.96C215.066 73.4533 213.892 72.64 212.932 71.52C211.972 70.4 211.319 68.96 210.972 67.2H216.692C216.879 67.7333 217.172 68.1733 217.572 68.52C217.999 68.8933 218.506 69.1733 219.092 69.36C219.706 69.5467 220.346 69.64 221.012 69.64C222.266 69.64 223.239 69.3733 223.932 68.84C224.626 68.3067 225.106 67.6 225.372 66.72C225.639 65.8667 225.772 64.92 225.772 63.88V62.4C225.292 63.1733 224.692 63.76 223.972 64.16C223.252 64.56 222.492 64.84 221.692 65C220.919 65.1867 220.172 65.28 219.452 65.28C217.239 65.28 215.439 64.7867 214.052 63.8C212.666 62.8133 211.652 61.52 211.012 59.92C210.372 58.2933 210.052 56.5467 210.052 54.68C210.052 52.6267 210.412 50.76 211.132 49.08C211.852 47.4 212.932 46.0667 214.372 45.08C215.812 44.0933 217.612 43.6 219.772 43.6C221.079 43.6 222.239 43.8133 223.252 44.24C224.266 44.64 225.132 45.24 225.852 46.04L226.332 43.92H231.452V62.32C231.452 64.88 231.119 67.08 230.452 68.92C229.786 70.7867 228.679 72.2267 227.132 73.24C225.612 74.2533 223.572 74.76 221.012 74.76ZM220.692 60.24C221.866 60.24 222.826 59.9733 223.572 59.44C224.346 58.9067 224.919 58.2 225.292 57.32C225.666 56.4133 225.852 55.44 225.852 54.4C225.852 53.3067 225.666 52.3333 225.292 51.48C224.919 50.6 224.359 49.9067 223.612 49.4C222.866 48.8667 221.906 48.6 220.732 48.6C219.452 48.6 218.439 48.9067 217.692 49.52C216.946 50.1067 216.412 50.8533 216.092 51.76C215.799 52.64 215.652 53.5733 215.652 54.56C215.652 55.5733 215.812 56.52 216.132 57.4C216.452 58.2533 216.986 58.9467 217.732 59.48C218.479 59.9867 219.466 60.24 220.692 60.24Z" fill="white"/>
<defs>
<linearGradient id="paint0_linear_481_27704" x1="156" y1="0" x2="156" y2="104" gradientUnits="userSpaceOnUse">
<stop stop-color="#D0FF00"/>
<stop offset="1" stop-color="#64A592"/>
</linearGradient>
</defs>
</svg>
