<svg width="311" height="104" viewBox="0 0 311 104" fill="none" xmlns="http://www.w3.org/2000/svg">
<rect width="311" height="104" rx="9" fill="url(#paint0_linear_481_27700)"/>
<path d="M93.165 65L104.205 36.68H110.605L121.525 65H115.365L113.605 60.16H101.085L99.325 65H93.165ZM102.925 55H111.805L107.405 42.76L102.925 55ZM133.203 65.28C131.043 65.28 129.189 64.84 127.643 63.96C126.123 63.08 124.963 61.84 124.163 60.24C123.363 58.6133 122.963 56.7067 122.963 54.52C122.963 52.3067 123.376 50.3867 124.202 48.76C125.029 47.1067 126.216 45.8267 127.763 44.92C129.336 44.0133 131.229 43.56 133.443 43.56C135.149 43.56 136.669 43.8667 138.003 44.48C139.336 45.0933 140.403 45.9733 141.203 47.12C142.029 48.2667 142.509 49.68 142.643 51.36H137.163C136.923 50.4267 136.456 49.7467 135.763 49.32C135.096 48.8933 134.296 48.68 133.363 48.68C132.163 48.68 131.203 48.9733 130.483 49.56C129.789 50.1467 129.283 50.8933 128.963 51.8C128.669 52.7067 128.523 53.6133 128.523 54.52C128.523 55.5067 128.683 56.44 129.003 57.32C129.323 58.1733 129.829 58.88 130.523 59.44C131.243 59.9733 132.176 60.24 133.322 60.24C134.283 60.24 135.123 60.0267 135.843 59.6C136.563 59.1467 137.029 58.4533 137.243 57.52H142.843C142.709 59.2533 142.189 60.6933 141.283 61.84C140.376 62.9867 139.216 63.8533 137.803 64.44C136.416 65 134.883 65.28 133.203 65.28ZM155.783 65C154.023 65 152.543 64.7867 151.343 64.36C150.17 63.9333 149.277 63.2133 148.663 62.2C148.077 61.16 147.783 59.7467 147.783 57.96V48.92H144.663V43.92H147.783V38.28H153.383V43.92H157.983V48.92H153.383V57.16C153.383 58.04 153.543 58.7333 153.863 59.24C154.183 59.7467 154.903 60 156.023 60H157.783V65H155.783ZM160.872 65V43.92H166.472V65H160.872ZM163.672 41.8C162.632 41.8 161.792 41.4933 161.152 40.88C160.512 40.24 160.192 39.4267 160.192 38.44C160.192 37.4 160.525 36.56 161.192 35.92C161.859 35.28 162.699 34.96 163.712 34.96C164.645 34.96 165.445 35.28 166.112 35.92C166.805 36.5333 167.152 37.36 167.152 38.4C167.152 39.4133 166.819 40.24 166.152 40.88C165.512 41.4933 164.685 41.8 163.672 41.8ZM180.751 65.28C178.618 65.28 176.751 64.8533 175.151 64C173.551 63.12 172.311 61.88 171.431 60.28C170.551 58.6533 170.111 56.7333 170.111 54.52C170.111 52.2533 170.551 50.3067 171.431 48.68C172.338 47.0267 173.591 45.76 175.191 44.88C176.791 44 178.631 43.56 180.711 43.56C182.844 43.56 184.698 44.0133 186.271 44.92C187.844 45.8267 189.071 47.0933 189.951 48.72C190.831 50.3467 191.271 52.2933 191.271 54.56C191.271 56.7733 190.831 58.6933 189.951 60.32C189.098 61.92 187.884 63.1467 186.311 64C184.764 64.8533 182.911 65.28 180.751 65.28ZM180.671 60.16C181.898 60.16 182.884 59.8933 183.631 59.36C184.378 58.8267 184.911 58.1333 185.231 57.28C185.578 56.4 185.751 55.48 185.751 54.52C185.751 53.56 185.578 52.64 185.231 51.76C184.911 50.88 184.378 50.16 183.631 49.6C182.911 49.0133 181.924 48.72 180.671 48.72C179.471 48.72 178.498 49.0133 177.751 49.6C177.004 50.16 176.458 50.88 176.111 51.76C175.791 52.64 175.631 53.56 175.631 54.52C175.631 55.5067 175.791 56.4267 176.111 57.28C176.458 58.1333 177.004 58.8267 177.751 59.36C178.498 59.8933 179.471 60.16 180.671 60.16ZM194.856 65V43.92H200.096L200.376 46.36C200.963 45.64 201.63 45.08 202.376 44.68C203.15 44.2533 203.923 43.96 204.696 43.8C205.496 43.64 206.216 43.56 206.856 43.56C208.883 43.56 210.456 44 211.576 44.88C212.723 45.76 213.536 46.9467 214.016 48.44C214.523 49.9067 214.776 51.5467 214.776 53.36V65H209.176V54.08C209.176 53.44 209.123 52.8 209.016 52.16C208.91 51.52 208.71 50.9333 208.416 50.4C208.15 49.8667 207.763 49.44 207.256 49.12C206.75 48.8 206.083 48.64 205.256 48.64C204.19 48.64 203.296 48.9067 202.576 49.44C201.856 49.9733 201.323 50.6933 200.976 51.6C200.63 52.5067 200.456 53.5067 200.456 54.6V65H194.856Z" fill="white"/>
<defs>
<linearGradient id="paint0_linear_481_27700" x1="155.5" y1="0" x2="155.5" y2="104" gradientUnits="userSpaceOnUse">
<stop stop-color="#FF0051"/>
<stop offset="1" stop-color="#FFA6A6"/>
</linearGradient>
</defs>
</svg>
