<svg width="311" height="104" viewBox="0 0 311 104" fill="none" xmlns="http://www.w3.org/2000/svg">
<rect width="311" height="104" rx="9" fill="url(#paint0_linear_481_27702)"/>
<path d="M116.301 65V36.68H127.701C129.114 36.68 130.461 36.8267 131.741 37.12C133.047 37.3867 134.221 37.8533 135.261 38.52C136.301 39.1867 137.114 40.12 137.701 41.32C138.314 42.4933 138.621 44 138.621 45.84C138.621 47.2 138.394 48.4267 137.941 49.52C137.487 50.6133 136.821 51.5467 135.941 52.32C135.061 53.0933 134.007 53.6933 132.781 54.12L139.061 65H132.621L127.101 55.04H122.021V65H116.301ZM122.021 49.96H127.301C128.127 49.96 128.874 49.8933 129.541 49.76C130.234 49.6 130.821 49.36 131.301 49.04C131.807 48.72 132.194 48.2933 132.461 47.76C132.754 47.2267 132.901 46.5733 132.901 45.8C132.927 44.8133 132.714 44.0533 132.261 43.52C131.834 42.96 131.221 42.5733 130.421 42.36C129.647 42.12 128.727 42 127.661 42H122.021V49.96ZM143.879 65V36.68H154.919C157.079 36.68 158.959 37.0133 160.559 37.68C162.186 38.32 163.439 39.36 164.319 40.8C165.199 42.2133 165.639 44.1067 165.639 46.48C165.639 48.6933 165.146 50.5467 164.159 52.04C163.199 53.5333 161.879 54.6533 160.199 55.4C158.519 56.12 156.612 56.48 154.479 56.48H149.599V65H143.879ZM149.599 51.36H154.399C156.106 51.36 157.452 50.96 158.439 50.16C159.452 49.3333 159.959 48.0933 159.959 46.44C159.959 44.9733 159.532 43.8667 158.679 43.12C157.852 42.3733 156.519 42 154.679 42H149.599V51.36ZM182.442 65.32C179.562 65.32 177.109 64.72 175.082 63.52C173.056 62.2933 171.509 60.6 170.442 58.44C169.376 56.2533 168.842 53.7067 168.842 50.8C168.842 48.64 169.136 46.68 169.722 44.92C170.336 43.1333 171.216 41.6 172.362 40.32C173.536 39.04 174.962 38.0667 176.642 37.4C178.322 36.7067 180.229 36.36 182.362 36.36C184.522 36.36 186.456 36.7067 188.162 37.4C189.869 38.0933 191.282 39.1333 192.402 40.52C193.549 41.88 194.296 43.5867 194.642 45.64H188.842C188.629 44.76 188.242 44.04 187.682 43.48C187.122 42.8933 186.416 42.4533 185.562 42.16C184.736 41.8667 183.789 41.72 182.722 41.72C181.256 41.72 180.016 41.9733 179.002 42.48C177.989 42.9867 177.162 43.68 176.522 44.56C175.909 45.4133 175.456 46.4 175.162 47.52C174.896 48.6133 174.762 49.7467 174.762 50.92C174.762 52.52 175.029 54.0133 175.562 55.4C176.096 56.76 176.936 57.8667 178.082 58.72C179.229 59.5467 180.749 59.96 182.642 59.96C183.896 59.96 185.002 59.7733 185.962 59.4C186.949 59 187.736 58.4133 188.322 57.64C188.936 56.84 189.282 55.88 189.362 54.76H181.642V49.84H195.242V51.4C195.242 54.28 194.762 56.76 193.802 58.84C192.842 60.92 191.416 62.52 189.522 63.64C187.629 64.76 185.269 65.32 182.442 65.32Z" fill="white"/>
<defs>
<linearGradient id="paint0_linear_481_27702" x1="155.5" y1="0" x2="155.5" y2="104" gradientUnits="userSpaceOnUse">
<stop stop-color="#E2C32A"/>
<stop offset="1" stop-color="#D069D0"/>
</linearGradient>
</defs>
</svg>
