<svg width="312" height="104" viewBox="0 0 312 104" fill="none" xmlns="http://www.w3.org/2000/svg">
<rect width="312" height="104" rx="9" fill="url(#paint0_linear_481_27703)"/>
<path d="M54.2588 65L65.2988 36.68H71.6988L82.6188 65H76.4588L74.6988 60.16H62.1788L60.4188 65H54.2588ZM64.0188 55H72.8988L68.4988 42.76L64.0188 55ZM93.5363 65.28C91.4029 65.28 89.6296 64.8 88.2163 63.84C86.8296 62.8533 85.7896 61.5467 85.0963 59.92C84.4029 58.2667 84.0563 56.44 84.0563 54.44C84.0563 52.3333 84.4296 50.4667 85.1763 48.84C85.9229 47.1867 87.0296 45.8933 88.4963 44.96C89.9629 44.0267 91.7896 43.56 93.9763 43.56C94.7229 43.56 95.4563 43.6533 96.1763 43.84C96.9229 44 97.6029 44.2533 98.2163 44.6C98.8563 44.92 99.4029 45.3467 99.8563 45.88V36.68H105.456V65H100.016L99.9363 62.64C99.4563 63.2533 98.8696 63.76 98.1763 64.16C97.5096 64.5333 96.7896 64.8133 96.0163 65C95.2429 65.1867 94.4163 65.28 93.5363 65.28ZM94.6563 60.24C95.8563 60.24 96.8296 59.96 97.5763 59.4C98.3496 58.84 98.9229 58.12 99.2963 57.24C99.6696 56.36 99.8563 55.4133 99.8563 54.4C99.8563 53.36 99.6696 52.4133 99.2963 51.56C98.9496 50.68 98.3896 49.9867 97.6163 49.48C96.8696 48.9467 95.8829 48.68 94.6563 48.68C93.4296 48.68 92.4429 48.96 91.6963 49.52C90.9496 50.08 90.4163 50.8133 90.0963 51.72C89.8029 52.6 89.6563 53.5467 89.6563 54.56C89.6563 55.3067 89.7363 56.0267 89.8963 56.72C90.0829 57.3867 90.3763 57.9867 90.7763 58.52C91.1763 59.0533 91.6963 59.48 92.3363 59.8C92.9763 60.0933 93.7496 60.24 94.6563 60.24ZM115.056 65L107.656 43.92H113.776L118.816 60.44L123.816 43.92H129.976L122.576 65H115.056ZM141.801 65.28C139.588 65.28 137.708 64.84 136.161 63.96C134.614 63.08 133.428 61.84 132.601 60.24C131.774 58.6133 131.361 56.72 131.361 54.56C131.361 52.3733 131.788 50.4667 132.641 48.84C133.494 47.1867 134.694 45.8933 136.241 44.96C137.814 44.0267 139.668 43.56 141.801 43.56C143.401 43.56 144.801 43.8267 146.001 44.36C147.228 44.8933 148.254 45.64 149.081 46.6C149.934 47.56 150.561 48.68 150.961 49.96C151.388 51.2133 151.588 52.5733 151.561 54.04C151.561 54.4133 151.548 54.7733 151.521 55.12C151.494 55.4667 151.441 55.8133 151.361 56.16H136.921C137.001 56.96 137.228 57.6933 137.601 58.36C137.974 59.0267 138.494 59.56 139.161 59.96C139.854 60.3333 140.708 60.52 141.721 60.52C142.388 60.52 143.001 60.4533 143.561 60.32C144.121 60.16 144.601 59.92 145.001 59.6C145.401 59.28 145.681 58.9067 145.841 58.48H151.361C151.014 60.0533 150.361 61.3467 149.401 62.36C148.468 63.3733 147.334 64.12 146.001 64.6C144.668 65.0533 143.268 65.28 141.801 65.28ZM137.041 52.24H146.201C146.174 51.52 145.988 50.8533 145.641 50.24C145.321 49.6 144.828 49.0933 144.161 48.72C143.521 48.32 142.694 48.12 141.681 48.12C140.668 48.12 139.814 48.32 139.121 48.72C138.454 49.12 137.948 49.64 137.601 50.28C137.281 50.8933 137.094 51.5467 137.041 52.24ZM155.169 65V43.92H160.409L160.689 46.36C161.275 45.64 161.942 45.08 162.689 44.68C163.462 44.2533 164.235 43.96 165.009 43.8C165.809 43.64 166.529 43.56 167.169 43.56C169.195 43.56 170.769 44 171.889 44.88C173.035 45.76 173.849 46.9467 174.329 48.44C174.835 49.9067 175.089 51.5467 175.089 53.36V65H169.489V54.08C169.489 53.44 169.435 52.8 169.329 52.16C169.222 51.52 169.022 50.9333 168.729 50.4C168.462 49.8667 168.075 49.44 167.569 49.12C167.062 48.8 166.395 48.64 165.569 48.64C164.502 48.64 163.609 48.9067 162.889 49.44C162.169 49.9733 161.635 50.6933 161.289 51.6C160.942 52.5067 160.769 53.5067 160.769 54.6V65H155.169ZM187.988 65.28C185.614 65.28 183.854 64.6133 182.708 63.28C181.588 61.9467 181.028 60.12 181.028 57.8V48.92H177.868V43.92H181.028V38.24H186.628V43.92H193.028V48.92H186.628V56.64C186.628 57.3333 186.708 57.9333 186.868 58.44C187.054 58.9467 187.348 59.3467 187.747 59.64C188.174 59.9067 188.748 60.04 189.468 60.04C190.108 60.04 190.641 59.9467 191.068 59.76C191.521 59.5467 191.894 59.32 192.188 59.08L193.948 63.4C193.388 63.8533 192.761 64.2267 192.068 64.52C191.401 64.7867 190.721 64.9733 190.028 65.08C189.334 65.2133 188.654 65.28 187.988 65.28ZM205.822 65.28C202.729 65.28 200.343 64.4933 198.663 62.92C197.009 61.32 196.183 58.92 196.183 55.72V43.92H201.783V55.32C201.783 56.28 201.916 57.1333 202.183 57.88C202.476 58.6 202.916 59.1733 203.503 59.6C204.116 60.0267 204.903 60.24 205.863 60.24C206.903 60.24 207.703 60.0133 208.263 59.56C208.823 59.1067 209.209 58.5067 209.423 57.76C209.636 56.9867 209.743 56.1733 209.743 55.32V43.92H215.303V55.72C215.303 59.0533 214.463 61.48 212.783 63C211.129 64.52 208.809 65.28 205.822 65.28ZM219.661 65V43.92H224.701L225.061 46.44C225.594 45.64 226.194 45.04 226.861 44.64C227.528 44.2133 228.221 43.9333 228.941 43.8C229.661 43.64 230.394 43.56 231.141 43.56C231.488 43.56 231.808 43.5733 232.101 43.6C232.394 43.6 232.608 43.6 232.741 43.6V49H231.421C230.168 49 229.074 49.2133 228.141 49.64C227.208 50.0667 226.488 50.7333 225.981 51.64C225.501 52.5467 225.261 53.7067 225.261 55.12V65H219.661ZM244.613 65.28C242.4 65.28 240.52 64.84 238.973 63.96C237.427 63.08 236.24 61.84 235.413 60.24C234.587 58.6133 234.173 56.72 234.173 54.56C234.173 52.3733 234.6 50.4667 235.453 48.84C236.307 47.1867 237.507 45.8933 239.053 44.96C240.627 44.0267 242.48 43.56 244.613 43.56C246.213 43.56 247.613 43.8267 248.813 44.36C250.04 44.8933 251.067 45.64 251.893 46.6C252.747 47.56 253.373 48.68 253.773 49.96C254.2 51.2133 254.4 52.5733 254.373 54.04C254.373 54.4133 254.36 54.7733 254.333 55.12C254.307 55.4667 254.253 55.8133 254.173 56.16H239.733C239.813 56.96 240.04 57.6933 240.413 58.36C240.787 59.0267 241.307 59.56 241.973 59.96C242.667 60.3333 243.52 60.52 244.533 60.52C245.2 60.52 245.813 60.4533 246.373 60.32C246.933 60.16 247.413 59.92 247.813 59.6C248.213 59.28 248.493 58.9067 248.653 58.48H254.173C253.827 60.0533 253.173 61.3467 252.213 62.36C251.28 63.3733 250.147 64.12 248.813 64.6C247.48 65.0533 246.08 65.28 244.613 65.28ZM239.853 52.24H249.013C248.987 51.52 248.8 50.8533 248.453 50.24C248.133 49.6 247.64 49.0933 246.973 48.72C246.333 48.32 245.507 48.12 244.493 48.12C243.48 48.12 242.627 48.32 241.933 48.72C241.267 49.12 240.76 49.64 240.413 50.28C240.093 50.8933 239.907 51.5467 239.853 52.24Z" fill="white"/>
<defs>
<linearGradient id="paint0_linear_481_27703" x1="156" y1="0" x2="156" y2="104" gradientUnits="userSpaceOnUse">
<stop stop-color="#FF9800"/>
<stop offset="1" stop-color="#FE7070"/>
</linearGradient>
</defs>
</svg>
