<svg width="311" height="104" viewBox="0 0 311 104" fill="none" xmlns="http://www.w3.org/2000/svg">
<rect width="311" height="104" rx="9" fill="url(#paint0_linear_481_27709)"/>
<path d="M106.096 65.32C103.189 65.32 100.709 64.7333 98.6556 63.56C96.629 62.36 95.0823 60.68 94.0156 58.52C92.9756 56.36 92.4556 53.84 92.4556 50.96C92.4556 48.0267 92.989 45.4667 94.0556 43.28C95.149 41.0933 96.709 39.4 98.7356 38.2C100.762 36.9733 103.202 36.36 106.056 36.36C108.216 36.36 110.149 36.7333 111.856 37.48C113.562 38.2 114.936 39.28 115.976 40.72C117.042 42.1333 117.709 43.88 117.976 45.96H112.456C112.109 44.6533 111.402 43.6267 110.336 42.88C109.296 42.1067 107.909 41.72 106.176 41.72C104.256 41.72 102.722 42.16 101.576 43.04C100.456 43.8933 99.6423 45.0133 99.1356 46.4C98.629 47.76 98.3756 49.2 98.3756 50.72C98.3756 52.2933 98.6423 53.7867 99.1756 55.2C99.709 56.6133 100.549 57.76 101.696 58.64C102.869 59.52 104.402 59.96 106.296 59.96C107.416 59.96 108.416 59.8 109.296 59.48C110.176 59.1333 110.896 58.64 111.456 58C112.042 57.36 112.442 56.6 112.656 55.72H118.376C118.136 57.7733 117.442 59.52 116.296 60.96C115.149 62.4 113.696 63.4933 111.936 64.24C110.176 64.96 108.229 65.32 106.096 65.32ZM128.45 65.28C127.49 65.28 126.557 65.16 125.65 64.92C124.77 64.6533 123.984 64.2533 123.29 63.72C122.597 63.1867 122.05 62.52 121.65 61.72C121.25 60.92 121.05 59.9867 121.05 58.92C121.05 57.48 121.344 56.3333 121.93 55.48C122.517 54.6 123.304 53.9333 124.29 53.48C125.277 53.0267 126.41 52.72 127.69 52.56C128.997 52.4 130.344 52.32 131.73 52.32H134.77C134.77 51.5467 134.624 50.8667 134.33 50.28C134.064 49.6667 133.65 49.2 133.09 48.88C132.53 48.5333 131.81 48.36 130.93 48.36C130.37 48.36 129.824 48.44 129.29 48.6C128.784 48.7333 128.357 48.9333 128.01 49.2C127.664 49.4667 127.437 49.8133 127.33 50.24H121.65C121.81 49.0667 122.184 48.0667 122.77 47.24C123.357 46.3867 124.09 45.6933 124.97 45.16C125.85 44.6267 126.81 44.24 127.85 44C128.917 43.7333 130.01 43.6 131.13 43.6C134.197 43.6 136.464 44.48 137.93 46.24C139.397 47.9733 140.13 50.44 140.13 53.64V65H135.09L135.01 62.28C134.344 63.2133 133.584 63.8933 132.73 64.32C131.904 64.7467 131.104 65.0133 130.33 65.12C129.557 65.2267 128.93 65.28 128.45 65.28ZM129.73 60.84C130.664 60.84 131.517 60.6533 132.29 60.28C133.064 59.9067 133.677 59.4 134.13 58.76C134.584 58.12 134.81 57.4 134.81 56.6V56.08H130.97C130.41 56.08 129.864 56.1067 129.33 56.16C128.824 56.2133 128.357 56.32 127.93 56.48C127.53 56.6133 127.21 56.84 126.97 57.16C126.73 57.48 126.61 57.9067 126.61 58.44C126.61 58.9733 126.744 59.4267 127.01 59.8C127.304 60.1467 127.69 60.4133 128.17 60.6C128.65 60.76 129.17 60.84 129.73 60.84ZM152.745 65.28C151.758 65.28 150.745 65.1733 149.705 64.96C148.665 64.7467 147.705 64.3867 146.825 63.88C145.945 63.3467 145.198 62.64 144.585 61.76C143.971 60.8533 143.571 59.7333 143.385 58.4H149.065C149.225 58.88 149.505 59.2933 149.905 59.64C150.331 59.9867 150.811 60.24 151.345 60.4C151.905 60.56 152.465 60.64 153.025 60.64C153.398 60.64 153.771 60.6133 154.145 60.56C154.518 60.5067 154.865 60.4 155.185 60.24C155.505 60.08 155.758 59.88 155.945 59.64C156.131 59.3733 156.225 59.04 156.225 58.64C156.225 58.2133 156.091 57.88 155.825 57.64C155.558 57.4 155.185 57.2133 154.705 57.08C154.225 56.92 153.678 56.7733 153.065 56.64C151.971 56.4 150.798 56.1333 149.545 55.84C148.291 55.5467 147.211 55.12 146.305 54.56C145.931 54.2933 145.598 54 145.305 53.68C145.011 53.36 144.771 53 144.585 52.6C144.398 52.2 144.251 51.7867 144.145 51.36C144.038 50.9067 143.985 50.4267 143.985 49.92C143.985 48.7733 144.225 47.8 144.705 47C145.211 46.1733 145.878 45.5067 146.705 45C147.531 44.4933 148.451 44.1333 149.465 43.92C150.478 43.68 151.518 43.56 152.585 43.56C154.025 43.56 155.358 43.8 156.585 44.28C157.811 44.7333 158.825 45.4533 159.625 46.44C160.425 47.4 160.918 48.6533 161.105 50.2H155.745C155.638 49.6133 155.278 49.1467 154.665 48.8C154.051 48.4267 153.291 48.24 152.385 48.24C152.065 48.24 151.718 48.2667 151.345 48.32C150.998 48.3733 150.678 48.4667 150.385 48.6C150.091 48.7333 149.851 48.92 149.665 49.16C149.478 49.3733 149.385 49.6667 149.385 50.04C149.385 50.3333 149.465 50.6 149.625 50.84C149.811 51.08 150.065 51.28 150.385 51.44C150.731 51.6 151.145 51.7467 151.625 51.88C152.531 52.0933 153.438 52.2933 154.345 52.48C155.278 52.64 156.105 52.8133 156.825 53C157.705 53.1867 158.505 53.4933 159.225 53.92C159.971 54.3467 160.571 54.9333 161.025 55.68C161.505 56.4 161.745 57.3467 161.745 58.52C161.745 59.8533 161.478 60.96 160.945 61.84C160.411 62.6933 159.691 63.3733 158.785 63.88C157.905 64.3867 156.931 64.7467 155.865 64.96C154.825 65.1733 153.785 65.28 152.745 65.28ZM174.572 65.28C171.479 65.28 169.093 64.4933 167.413 62.92C165.759 61.32 164.933 58.92 164.933 55.72V43.92H170.533V55.32C170.533 56.28 170.666 57.1333 170.933 57.88C171.226 58.6 171.666 59.1733 172.253 59.6C172.866 60.0267 173.653 60.24 174.613 60.24C175.653 60.24 176.453 60.0133 177.013 59.56C177.573 59.1067 177.959 58.5067 178.173 57.76C178.386 56.9867 178.493 56.1733 178.493 55.32V43.92H184.053V55.72C184.053 59.0533 183.213 61.48 181.533 63C179.879 64.52 177.559 65.28 174.572 65.28ZM195.091 65.28C194.131 65.28 193.198 65.16 192.291 64.92C191.411 64.6533 190.624 64.2533 189.931 63.72C189.238 63.1867 188.691 62.52 188.291 61.72C187.891 60.92 187.691 59.9867 187.691 58.92C187.691 57.48 187.984 56.3333 188.571 55.48C189.158 54.6 189.944 53.9333 190.931 53.48C191.918 53.0267 193.051 52.72 194.331 52.56C195.638 52.4 196.984 52.32 198.371 52.32H201.411C201.411 51.5467 201.264 50.8667 200.971 50.28C200.704 49.6667 200.291 49.2 199.731 48.88C199.171 48.5333 198.451 48.36 197.571 48.36C197.011 48.36 196.464 48.44 195.931 48.6C195.424 48.7333 194.998 48.9333 194.651 49.2C194.304 49.4667 194.078 49.8133 193.971 50.24H188.291C188.451 49.0667 188.824 48.0667 189.411 47.24C189.998 46.3867 190.731 45.6933 191.611 45.16C192.491 44.6267 193.451 44.24 194.491 44C195.558 43.7333 196.651 43.6 197.771 43.6C200.838 43.6 203.104 44.48 204.571 46.24C206.038 47.9733 206.771 50.44 206.771 53.64V65H201.731L201.651 62.28C200.984 63.2133 200.224 63.8933 199.371 64.32C198.544 64.7467 197.744 65.0133 196.971 65.12C196.198 65.2267 195.571 65.28 195.091 65.28ZM196.371 60.84C197.304 60.84 198.158 60.6533 198.931 60.28C199.704 59.9067 200.318 59.4 200.771 58.76C201.224 58.12 201.451 57.4 201.451 56.6V56.08H197.611C197.051 56.08 196.504 56.1067 195.971 56.16C195.464 56.2133 194.998 56.32 194.571 56.48C194.171 56.6133 193.851 56.84 193.611 57.16C193.371 57.48 193.251 57.9067 193.251 58.44C193.251 58.9733 193.384 59.4267 193.651 59.8C193.944 60.1467 194.331 60.4133 194.811 60.6C195.291 60.76 195.811 60.84 196.371 60.84ZM211.145 65V36.68H216.745V65H211.145Z" fill="white"/>
<defs>
<linearGradient id="paint0_linear_481_27709" x1="155.5" y1="0" x2="155.5" y2="104" gradientUnits="userSpaceOnUse">
<stop stop-color="#E07DE0"/>
<stop offset="1" stop-color="#592972"/>
</linearGradient>
</defs>
</svg>
