<svg width="16" height="16" viewBox="0 0 16 16" fill="none" xmlns="http://www.w3.org/2000/svg">
<path d="M3.4678 0.584358C1.98108 0.850177 0.784896 1.95054 0.407805 3.39709C0.271805 3.91945 0.262532 4.22545 0.277987 8.27763C0.287259 11.9991 0.29035 12.0856 0.352168 12.3731C0.695259 13.9216 1.79562 15.0251 3.35962 15.3898C3.56362 15.4362 3.82326 15.4455 5.49544 15.4547C7.22635 15.4671 7.40562 15.464 7.45199 15.4176C7.49835 15.3713 7.50144 14.7747 7.50144 8.01181C7.50144 2.99836 7.49217 0.636904 7.47053 0.593631C7.43962 0.537994 7.38708 0.534904 5.57581 0.537994C4.10453 0.541085 3.66253 0.550358 3.4678 0.584358ZM6.26508 8.00254V14.2647L5.00708 14.2493C3.84799 14.2369 3.72435 14.2307 3.49253 14.172C2.49726 13.9155 1.75853 13.1489 1.55144 12.1505C1.48344 11.8384 1.48344 4.14818 1.54835 3.84218C1.7338 2.97363 2.33653 2.25345 3.14944 1.9289C3.55744 1.76509 3.74599 1.74654 5.0689 1.74345L6.26508 1.74036V8.00254Z" fill="#E60012"/>
<path d="M3.7337 3.63057C3.53897 3.66766 3.24224 3.81603 3.08461 3.95512C2.76006 4.23639 2.59933 4.63512 2.62406 5.10494C2.63642 5.34912 2.65188 5.41403 2.75079 5.61184C2.89606 5.91166 3.11552 6.13112 3.41533 6.27948C3.62242 6.38148 3.67497 6.39384 3.94388 6.40312C4.18806 6.41239 4.27461 6.40312 4.43842 6.34748C5.10915 6.12184 5.51406 5.46966 5.3997 4.80203C5.26679 4.00766 4.51261 3.47603 3.7337 3.63057Z" fill="#E60012"/>
<path d="M9.00674 0.55803C8.99438 0.567303 8.98511 3.91785 8.98511 8.00403C8.98511 14.7453 8.9882 15.4284 9.03456 15.4469C9.11802 15.4778 11.5166 15.4655 11.8133 15.4346C13.0682 15.2924 14.1747 14.5289 14.7775 13.3946C14.8547 13.2493 14.9567 13.0051 15.0093 12.8537C15.204 12.2726 15.1978 12.4271 15.1978 7.98549C15.1978 4.44021 15.1917 3.91167 15.1484 3.68603C14.8424 2.07567 13.6153 0.860939 12.0018 0.582757C11.7855 0.545667 11.4517 0.536394 10.376 0.536394C9.6342 0.536394 9.01602 0.545667 9.00674 0.55803ZM12.3078 7.29003C12.79 7.41676 13.1857 7.78458 13.3464 8.25439C13.4484 8.54494 13.4453 8.97149 13.3433 9.2373C13.1547 9.72567 12.7838 10.0688 12.3078 10.1955C11.5351 10.3964 10.7129 9.92967 10.4873 9.16312C10.4193 8.92821 10.4224 8.53258 10.4997 8.29148C10.7315 7.53421 11.5351 7.08912 12.3078 7.29003Z" fill="#E60012"/>
</svg>
