<svg width="20" height="18" viewBox="0 0 20 18" fill="none" xmlns="http://www.w3.org/2000/svg">
<path d="M9.13308 17.9626C7.67399 17.8307 6.19593 17.333 4.9245 16.5455C3.85971 15.8859 3.61934 15.6161 3.61934 15.0744C3.61934 13.9891 4.87811 12.0863 7.02879 9.91961C8.25172 8.68837 9.95328 7.24527 10.1367 7.28324C10.4952 7.3592 13.3564 10.0096 14.4275 11.2548C16.1228 13.2296 16.9029 14.8446 16.5065 15.5641C16.205 16.1118 14.339 17.1811 12.9684 17.5909C11.8383 17.9306 10.3539 18.0746 9.13308 17.9626ZM2.18345 13.9471C1.29998 12.6599 0.852982 11.3907 0.635806 9.55783C0.564117 8.95221 0.589419 8.60642 0.798161 7.36319C1.05751 5.81415 1.98525 4.02326 3.10276 2.91995C3.57928 2.45024 3.62145 2.43825 4.20129 2.62413C4.90553 2.84999 5.65615 3.34169 6.82216 4.34307L7.5032 4.9267L7.13211 5.36044C5.40524 7.37119 3.5856 10.2214 2.90034 11.9843C2.52713 12.9417 2.37743 13.9051 2.53768 14.3049C2.64521 14.5747 2.54611 14.4748 2.18345 13.9471ZM17.702 14.165C17.7885 13.7612 17.6788 13.0177 17.4195 12.2682C16.8607 10.6452 14.9863 7.62303 13.2657 5.5703L12.7239 4.92471L13.31 4.41302C14.0754 3.74544 14.6068 3.34568 15.1803 3.00789C15.6336 2.74006 16.2788 2.50421 16.5571 2.50421C16.7279 2.50421 17.3309 3.09784 17.818 3.74744C18.5728 4.75081 19.1274 5.97006 19.4078 7.23727C19.5891 8.05676 19.6039 9.80968 19.4373 10.6252C19.3003 11.2948 19.0093 12.1642 18.7268 12.7558C18.5138 13.1976 17.9867 14.055 17.7547 14.3349C17.6367 14.4748 17.6367 14.4748 17.702 14.165ZM9.2891 2.1964C8.4942 1.81263 7.26916 1.40289 6.59233 1.29096C6.35407 1.25298 5.95134 1.231 5.692 1.24299C5.13324 1.26897 5.15855 1.24299 6.05466 0.841237C6.79896 0.507444 7.42097 0.311566 8.26437 0.14367C9.2132 -0.0462124 10.9949 -0.0482112 11.929 0.139672C12.9368 0.341547 14.1239 0.761287 14.7923 1.15105L14.9905 1.26697L14.5351 1.24499C13.6284 1.20101 12.3085 1.5488 10.8895 2.20439C10.4614 2.40227 10.0903 2.56017 10.0629 2.55417C10.0376 2.55018 9.68761 2.38828 9.2891 2.1964Z" fill="#107C10"/>
</svg>
